<svg width="317" height="129" viewBox="0 0 317 129" fill="none" xmlns="http://www.w3.org/2000/svg">
<path d="M307.694 0.5H316.5V8.5625H317V23.6875H316.5V40.8125H317V55.9375H316.5V73.0625H317V88.1875H316.5V105.312H317V120.438H316.5V128.5H307.694V129H291.083V128.5H272.473V129H255.861V128.5H237.25V129H220.639V128.5H202.027V129H185.417V128.5H166.806V129H150.194V128.5H131.583V129H114.973V128.5H96.3613V129H79.75V128.5H61.1387V129H44.5273V128.5H25.917V129H9.30566V128.5H0.5V120.438H0V105.312H0.5V88.1875H0V73.0625H0.5V55.9375H0V40.8125H0.5V23.6875H0V8.5625H0.5V0.5H9.30566V0H25.917V0.5H44.5273V0H61.1387V0.5H79.75V0H96.3613V0.5H114.973V0H131.583V0.5H150.194V0H166.806V0.5H185.417V0H202.027V0.5H220.639V0H237.25V0.5H255.861V0H272.473V0.5H291.083V0H307.694V0.5Z" stroke="#AFAFAF" stroke-linecap="square" stroke-dasharray="17 17"/>
</svg>
