<svg width="258" height="40" viewBox="0 0 258 40" fill="none" xmlns="http://www.w3.org/2000/svg">
<path d="M0 4.504L2.032 0H3.072L1.04 4.504H0Z" fill="white"/>
<path d="M2 4.504L4.032 0H5.072L3.04 4.504H2Z" fill="white"/>
<path d="M4 4.504L6.032 0H7.072L5.04 4.504H4Z" fill="white"/>
<path d="M6 4.504L8.032 0H9.072L7.04 4.504H6Z" fill="white"/>
<path d="M8 4.504L10.032 0H11.072L9.04 4.504H8Z" fill="white"/>
<path d="M10 4.504L12.032 0H13.072L11.04 4.504H10Z" fill="white"/>
<path d="M12 4.504L14.032 0H15.072L13.04 4.504H12Z" fill="white"/>
<path d="M14 4.504L16.032 0H17.072L15.04 4.504H14Z" fill="white"/>
<path d="M16 4.504L18.032 0H19.072L17.04 4.504H16Z" fill="white"/>
<path d="M18 4.504L20.032 0H21.072L19.04 4.504H18Z" fill="white"/>
<path d="M20 4.504L22.032 0H23.072L21.04 4.504H20Z" fill="white"/>
<path d="M22 4.504L24.032 0H25.072L23.04 4.504H22Z" fill="white"/>
<path d="M24 4.504L26.032 0H27.072L25.04 4.504H24Z" fill="white"/>
<path d="M26 4.504L28.032 0H29.072L27.04 4.504H26Z" fill="white"/>
<path d="M28 4.504L30.032 0H31.072L29.04 4.504H28Z" fill="white"/>
<path d="M30 4.504L32.032 0H33.072L31.04 4.504H30Z" fill="white"/>
<path d="M32 4.504L34.032 0H35.072L33.04 4.504H32Z" fill="white"/>
<path d="M34 4.504L36.032 0H37.072L35.04 4.504H34Z" fill="white"/>
<path d="M36 4.504L38.032 0H39.072L37.04 4.504H36Z" fill="white"/>
<path d="M38 4.504L40.032 0H41.072L39.04 4.504H38Z" fill="white"/>
<path d="M40 4.504L42.032 0H43.072L41.04 4.504H40Z" fill="white"/>
<path d="M42 4.504L44.032 0H45.072L43.04 4.504H42Z" fill="white"/>
<path d="M44 4.504L46.032 0H47.072L45.04 4.504H44Z" fill="white"/>
<path d="M46 4.504L48.032 0H49.072L47.04 4.504H46Z" fill="white"/>
<path d="M48 4.504L50.032 0H51.072L49.04 4.504H48Z" fill="white"/>
<path d="M50 4.504L52.032 0H53.072L51.04 4.504H50Z" fill="white"/>
<path d="M52 4.504L54.032 0H55.072L53.04 4.504H52Z" fill="white"/>
<path d="M54 4.504L56.032 0H57.072L55.04 4.504H54Z" fill="white"/>
<path d="M56 4.504L58.032 0H59.072L57.04 4.504H56Z" fill="white"/>
<path d="M58 4.504L60.032 0H61.072L59.04 4.504H58Z" fill="white"/>
<path d="M60 4.504L62.032 0H63.072L61.04 4.504H60Z" fill="white"/>
<path d="M62 4.504L64.032 0H65.072L63.04 4.504H62Z" fill="white"/>
<path d="M64 4.504L66.032 0H67.072L65.04 4.504H64Z" fill="white"/>
<path d="M66 4.504L68.032 0H69.072L67.04 4.504H66Z" fill="white"/>
<path d="M68 4.504L70.032 0H71.072L69.04 4.504H68Z" fill="white"/>
<path d="M70 4.504L72.032 0H73.072L71.04 4.504H70Z" fill="white"/>
<path d="M72 4.504L74.032 0H75.072L73.04 4.504H72Z" fill="white"/>
<path d="M74 4.504L76.032 0H77.072L75.04 4.504H74Z" fill="white"/>
<path d="M76 4.504L78.032 0H79.072L77.04 4.504H76Z" fill="white"/>
<path d="M78 4.504L80.032 0H81.072L79.04 4.504H78Z" fill="white"/>
<path d="M80 4.504L82.032 0H83.072L81.04 4.504H80Z" fill="white"/>
<path d="M82 4.504L84.032 0H85.072L83.04 4.504H82Z" fill="white"/>
<path d="M84 4.504L86.032 0H87.072L85.04 4.504H84Z" fill="white"/>
<path d="M86 4.504L88.032 0H89.072L87.04 4.504H86Z" fill="white"/>
<path d="M88 4.504L90.032 0H91.072L89.04 4.504H88Z" fill="white"/>
<path d="M90 4.504L92.032 0H93.072L91.04 4.504H90Z" fill="white"/>
<path d="M92 4.504L94.032 0H95.072L93.04 4.504H92Z" fill="white"/>
<path d="M94 4.504L96.032 0H97.072L95.04 4.504H94Z" fill="white"/>
<path d="M96 4.504L98.032 0H99.072L97.04 4.504H96Z" fill="white"/>
<path d="M98 4.504L100.032 0H101.072L99.04 4.504H98Z" fill="white"/>
<path d="M100 4.504L102.032 0H103.072L101.04 4.504H100Z" fill="white"/>
<path d="M102 4.504L104.032 0H105.072L103.04 4.504H102Z" fill="white"/>
<path d="M104 4.504L106.032 0H107.072L105.04 4.504H104Z" fill="white"/>
<path d="M106 4.504L108.032 0H109.072L107.04 4.504H106Z" fill="white"/>
<path d="M108 4.504L110.032 0H111.072L109.04 4.504H108Z" fill="white"/>
<path d="M110 4.504L112.032 0H113.072L111.04 4.504H110Z" fill="white"/>
<path d="M112 4.504L114.032 0H115.072L113.04 4.504H112Z" fill="white"/>
<path d="M114 4.504L116.032 0H117.072L115.04 4.504H114Z" fill="white"/>
<path d="M116 4.504L118.032 0H119.072L117.04 4.504H116Z" fill="white"/>
<path d="M118 4.504L120.032 0H121.072L119.04 4.504H118Z" fill="white"/>
<path d="M120 4.504L122.032 0H123.072L121.04 4.504H120Z" fill="white"/>
<path d="M122 4.504L124.032 0H125.072L123.04 4.504H122Z" fill="white"/>
<path d="M124 4.504L126.032 0H127.072L125.04 4.504H124Z" fill="white"/>
<path d="M126 4.504L128.032 0H129.072L127.04 4.504H126Z" fill="white"/>
<path d="M128 4.504L130.032 0H131.072L129.04 4.504H128Z" fill="white"/>
<path d="M130 4.504L132.032 0H133.072L131.04 4.504H130Z" fill="white"/>
<path d="M132 4.504L134.032 0H135.072L133.04 4.504H132Z" fill="white"/>
<path d="M134 4.504L136.032 0H137.072L135.04 4.504H134Z" fill="white"/>
<path d="M136 4.504L138.032 0H139.072L137.04 4.504H136Z" fill="white"/>
<path d="M138 4.504L140.032 0H141.072L139.04 4.504H138Z" fill="white"/>
<path d="M140 4.504L142.032 0H143.072L141.04 4.504H140Z" fill="white"/>
<path d="M142 4.504L144.032 0H145.072L143.04 4.504H142Z" fill="white"/>
<path d="M144 4.504L146.032 0H147.072L145.04 4.504H144Z" fill="white"/>
<path d="M146 4.504L148.032 0H149.072L147.04 4.504H146Z" fill="white"/>
<path d="M148 4.504L150.032 0H151.072L149.04 4.504H148Z" fill="white"/>
<path d="M150 4.504L152.032 0H153.072L151.04 4.504H150Z" fill="white"/>
<path d="M152 4.504L154.032 0H155.072L153.04 4.504H152Z" fill="white"/>
<path d="M154 4.504L156.032 0H157.072L155.04 4.504H154Z" fill="white"/>
<path d="M156 4.504L158.032 0H159.072L157.04 4.504H156Z" fill="white"/>
<path d="M158 4.504L160.032 0H161.072L159.04 4.504H158Z" fill="white"/>
<path d="M160 4.504L162.032 0H163.072L161.04 4.504H160Z" fill="white"/>
<path d="M162 4.504L164.032 0H165.072L163.04 4.504H162Z" fill="white"/>
<path d="M164 4.504L166.032 0H167.072L165.04 4.504H164Z" fill="white"/>
<path d="M166 4.504L168.032 0H169.072L167.04 4.504H166Z" fill="white"/>
<path d="M168 4.504L170.032 0H171.072L169.04 4.504H168Z" fill="white"/>
<path d="M170 4.504L172.032 0H173.072L171.04 4.504H170Z" fill="white"/>
<path d="M172 4.504L174.032 0H175.072L173.04 4.504H172Z" fill="white"/>
<path d="M174 4.504L176.032 0H177.072L175.04 4.504H174Z" fill="white"/>
<path d="M176 4.504L178.032 0H179.072L177.04 4.504H176Z" fill="white"/>
<path d="M178 4.504L180.032 0H181.072L179.04 4.504H178Z" fill="white"/>
<path d="M180 4.504L182.032 0H183.072L181.04 4.504H180Z" fill="white"/>
<path d="M182 4.504L184.032 0H185.072L183.04 4.504H182Z" fill="white"/>
<path d="M184 4.504L186.032 0H187.072L185.04 4.504H184Z" fill="white"/>
<path d="M186 4.504L188.032 0H189.072L187.04 4.504H186Z" fill="white"/>
<path d="M188 4.504L190.032 0H191.072L189.04 4.504H188Z" fill="white"/>
<path d="M190 4.504L192.032 0H193.072L191.04 4.504H190Z" fill="white"/>
<path d="M192 4.504L194.032 0H195.072L193.04 4.504H192Z" fill="white"/>
<path d="M194 4.504L196.032 0H197.072L195.04 4.504H194Z" fill="white"/>
<path d="M196 4.504L198.032 0H199.072L197.04 4.504H196Z" fill="white"/>
<path d="M198 4.504L200.032 0H201.072L199.04 4.504H198Z" fill="white"/>
<path d="M200 4.504L202.032 0H203.072L201.04 4.504H200Z" fill="white"/>
<path d="M202 4.504L204.032 0H205.072L203.04 4.504H202Z" fill="white"/>
<path d="M204 4.504L206.032 0H207.072L205.04 4.504H204Z" fill="white"/>
<path d="M206 4.504L208.032 0H209.072L207.04 4.504H206Z" fill="white"/>
<path d="M208 4.504L210.032 0H211.072L209.04 4.504H208Z" fill="white"/>
<path d="M210 4.504L212.032 0H213.072L211.04 4.504H210Z" fill="white"/>
<path d="M212 4.504L214.032 0H215.072L213.04 4.504H212Z" fill="white"/>
<path d="M214 4.504L216.032 0H217.072L215.04 4.504H214Z" fill="white"/>
<path d="M216 4.504L218.032 0H219.072L217.04 4.504H216Z" fill="white"/>
<path d="M218 4.504L220.032 0H221.072L219.04 4.504H218Z" fill="white"/>
<path d="M220 4.504L222.032 0H223.072L221.04 4.504H220Z" fill="white"/>
<path d="M222 4.504L224.032 0H225.072L223.04 4.504H222Z" fill="white"/>
<path d="M224 4.504L226.032 0H227.072L225.04 4.504H224Z" fill="white"/>
<path d="M226 4.504L228.032 0H229.072L227.04 4.504H226Z" fill="white"/>
<path d="M228 4.504L230.032 0H231.072L229.04 4.504H228Z" fill="white"/>
<path d="M230 4.504L232.032 0H233.072L231.04 4.504H230Z" fill="white"/>
<path d="M232 4.504L234.032 0H235.072L233.04 4.504H232Z" fill="white"/>
<path d="M234 4.504L236.032 0H237.072L235.04 4.504H234Z" fill="white"/>
<path d="M236 4.504L238.032 0H239.072L237.04 4.504H236Z" fill="white"/>
<path d="M238 4.504L240.032 0H241.072L239.04 4.504H238Z" fill="white"/>
<path d="M240 4.504L242.032 0H243.072L241.04 4.504H240Z" fill="white"/>
<path d="M242 4.504L244.032 0H245.072L243.04 4.504H242Z" fill="white"/>
<path d="M244 4.504L246.032 0H247.072L245.04 4.504H244Z" fill="white"/>
<path d="M246 4.504L248.032 0H249.072L247.04 4.504H246Z" fill="white"/>
<path d="M248 4.504L250.032 0H251.072L249.04 4.504H248Z" fill="white"/>
<path d="M250 4.504L252.032 0H253.072L251.04 4.504H250Z" fill="white"/>
<path d="M252 4.504L254.032 0H255.072L253.04 4.504H252Z" fill="white"/>
<path d="M254 4.504L256.032 0H257.072L255.04 4.504H254Z" fill="white"/>
<path d="M0 14.504L2.032 10H3.072L1.04 14.504H0Z" fill="white"/>
<path d="M2 14.504L4.032 10H5.072L3.04 14.504H2Z" fill="white"/>
<path d="M4 14.504L6.032 10H7.072L5.04 14.504H4Z" fill="white"/>
<path d="M6 14.504L8.032 10H9.072L7.04 14.504H6Z" fill="white"/>
<path d="M8 14.504L10.032 10H11.072L9.04 14.504H8Z" fill="white"/>
<path d="M10 14.504L12.032 10H13.072L11.04 14.504H10Z" fill="white"/>
<path d="M12 14.504L14.032 10H15.072L13.04 14.504H12Z" fill="white"/>
<path d="M14 14.504L16.032 10H17.072L15.04 14.504H14Z" fill="white"/>
<path d="M16 14.504L18.032 10H19.072L17.04 14.504H16Z" fill="white"/>
<path d="M18 14.504L20.032 10H21.072L19.04 14.504H18Z" fill="white"/>
<path d="M20 14.504L22.032 10H23.072L21.04 14.504H20Z" fill="white"/>
<path d="M22 14.504L24.032 10H25.072L23.04 14.504H22Z" fill="white"/>
<path d="M24 14.504L26.032 10H27.072L25.04 14.504H24Z" fill="white"/>
<path d="M26 14.504L28.032 10H29.072L27.04 14.504H26Z" fill="white"/>
<path d="M28 14.504L30.032 10H31.072L29.04 14.504H28Z" fill="white"/>
<path d="M30 14.504L32.032 10H33.072L31.04 14.504H30Z" fill="white"/>
<path d="M32 14.504L34.032 10H35.072L33.04 14.504H32Z" fill="white"/>
<path d="M34 14.504L36.032 10H37.072L35.04 14.504H34Z" fill="white"/>
<path d="M36 14.504L38.032 10H39.072L37.04 14.504H36Z" fill="white"/>
<path d="M38 14.504L40.032 10H41.072L39.04 14.504H38Z" fill="white"/>
<path d="M40 14.504L42.032 10H43.072L41.04 14.504H40Z" fill="white"/>
<path d="M42 14.504L44.032 10H45.072L43.04 14.504H42Z" fill="white"/>
<path d="M44 14.504L46.032 10H47.072L45.04 14.504H44Z" fill="white"/>
<path d="M46 14.504L48.032 10H49.072L47.04 14.504H46Z" fill="white"/>
<path d="M48 14.504L50.032 10H51.072L49.04 14.504H48Z" fill="white"/>
<path d="M50 14.504L52.032 10H53.072L51.04 14.504H50Z" fill="white"/>
<path d="M52 14.504L54.032 10H55.072L53.04 14.504H52Z" fill="white"/>
<path d="M54 14.504L56.032 10H57.072L55.04 14.504H54Z" fill="white"/>
<path d="M56 14.504L58.032 10H59.072L57.04 14.504H56Z" fill="white"/>
<path d="M58 14.504L60.032 10H61.072L59.04 14.504H58Z" fill="white"/>
<path d="M60 14.504L62.032 10H63.072L61.04 14.504H60Z" fill="white"/>
<path d="M62 14.504L64.032 10H65.072L63.04 14.504H62Z" fill="white"/>
<path d="M64 14.504L66.032 10H67.072L65.04 14.504H64Z" fill="white"/>
<path d="M66 14.504L68.032 10H69.072L67.04 14.504H66Z" fill="white"/>
<path d="M68 14.504L70.032 10H71.072L69.04 14.504H68Z" fill="white"/>
<path d="M70 14.504L72.032 10H73.072L71.04 14.504H70Z" fill="white"/>
<path d="M72 14.504L74.032 10H75.072L73.04 14.504H72Z" fill="white"/>
<path d="M74 14.504L76.032 10H77.072L75.04 14.504H74Z" fill="white"/>
<path d="M76 14.504L78.032 10H79.072L77.04 14.504H76Z" fill="white"/>
<path d="M78 14.504L80.032 10H81.072L79.04 14.504H78Z" fill="white"/>
<path d="M80 14.504L82.032 10H83.072L81.04 14.504H80Z" fill="white"/>
<path d="M82 14.504L84.032 10H85.072L83.04 14.504H82Z" fill="white"/>
<path d="M84 14.504L86.032 10H87.072L85.04 14.504H84Z" fill="white"/>
<path d="M86 14.504L88.032 10H89.072L87.04 14.504H86Z" fill="white"/>
<path d="M88 14.504L90.032 10H91.072L89.04 14.504H88Z" fill="white"/>
<path d="M90 14.504L92.032 10H93.072L91.04 14.504H90Z" fill="white"/>
<path d="M92 14.504L94.032 10H95.072L93.04 14.504H92Z" fill="white"/>
<path d="M94 14.504L96.032 10H97.072L95.04 14.504H94Z" fill="white"/>
<path d="M96 14.504L98.032 10H99.072L97.04 14.504H96Z" fill="white"/>
<path d="M98 14.504L100.032 10H101.072L99.04 14.504H98Z" fill="white"/>
<path d="M100 14.504L102.032 10H103.072L101.04 14.504H100Z" fill="white"/>
<path d="M102 14.504L104.032 10H105.072L103.04 14.504H102Z" fill="white"/>
<path d="M104 14.504L106.032 10H107.072L105.04 14.504H104Z" fill="white"/>
<path d="M106 14.504L108.032 10H109.072L107.04 14.504H106Z" fill="white"/>
<path d="M108 14.504L110.032 10H111.072L109.04 14.504H108Z" fill="white"/>
<path d="M110 14.504L112.032 10H113.072L111.04 14.504H110Z" fill="white"/>
<path d="M112 14.504L114.032 10H115.072L113.04 14.504H112Z" fill="white"/>
<path d="M114 14.504L116.032 10H117.072L115.04 14.504H114Z" fill="white"/>
<path d="M116 14.504L118.032 10H119.072L117.04 14.504H116Z" fill="white"/>
<path d="M118 14.504L120.032 10H121.072L119.04 14.504H118Z" fill="white"/>
<path d="M120 14.504L122.032 10H123.072L121.04 14.504H120Z" fill="white"/>
<path d="M122 14.504L124.032 10H125.072L123.04 14.504H122Z" fill="white"/>
<path d="M124 14.504L126.032 10H127.072L125.04 14.504H124Z" fill="white"/>
<path d="M126 14.504L128.032 10H129.072L127.04 14.504H126Z" fill="white"/>
<path d="M128 14.504L130.032 10H131.072L129.04 14.504H128Z" fill="white"/>
<path d="M130 14.504L132.032 10H133.072L131.04 14.504H130Z" fill="white"/>
<path d="M132 14.504L134.032 10H135.072L133.04 14.504H132Z" fill="white"/>
<path d="M134 14.504L136.032 10H137.072L135.04 14.504H134Z" fill="white"/>
<path d="M136 14.504L138.032 10H139.072L137.04 14.504H136Z" fill="white"/>
<path d="M138 14.504L140.032 10H141.072L139.04 14.504H138Z" fill="white"/>
<path d="M140 14.504L142.032 10H143.072L141.04 14.504H140Z" fill="white"/>
<path d="M142 14.504L144.032 10H145.072L143.04 14.504H142Z" fill="white"/>
<path d="M144 14.504L146.032 10H147.072L145.04 14.504H144Z" fill="white"/>
<path d="M146 14.504L148.032 10H149.072L147.04 14.504H146Z" fill="white"/>
<path d="M148 14.504L150.032 10H151.072L149.04 14.504H148Z" fill="white"/>
<path d="M150 14.504L152.032 10H153.072L151.04 14.504H150Z" fill="white"/>
<path d="M152 14.504L154.032 10H155.072L153.04 14.504H152Z" fill="white"/>
<path d="M154 14.504L156.032 10H157.072L155.04 14.504H154Z" fill="white"/>
<path d="M156 14.504L158.032 10H159.072L157.04 14.504H156Z" fill="white"/>
<path d="M158 14.504L160.032 10H161.072L159.04 14.504H158Z" fill="white"/>
<path d="M160 14.504L162.032 10H163.072L161.04 14.504H160Z" fill="white"/>
<path d="M162 14.504L164.032 10H165.072L163.04 14.504H162Z" fill="white"/>
<path d="M164 14.504L166.032 10H167.072L165.04 14.504H164Z" fill="white"/>
<path d="M166 14.504L168.032 10H169.072L167.04 14.504H166Z" fill="white"/>
<path d="M168 14.504L170.032 10H171.072L169.04 14.504H168Z" fill="white"/>
<path d="M170 14.504L172.032 10H173.072L171.04 14.504H170Z" fill="white"/>
<path d="M172 14.504L174.032 10H175.072L173.04 14.504H172Z" fill="white"/>
<path d="M174 14.504L176.032 10H177.072L175.04 14.504H174Z" fill="white"/>
<path d="M176 14.504L178.032 10H179.072L177.04 14.504H176Z" fill="white"/>
<path d="M178 14.504L180.032 10H181.072L179.04 14.504H178Z" fill="white"/>
<path d="M180 14.504L182.032 10H183.072L181.04 14.504H180Z" fill="white"/>
<path d="M182 14.504L184.032 10H185.072L183.04 14.504H182Z" fill="white"/>
<path d="M184 14.504L186.032 10H187.072L185.04 14.504H184Z" fill="white"/>
<path d="M186 14.504L188.032 10H189.072L187.04 14.504H186Z" fill="white"/>
<path d="M188 14.504L190.032 10H191.072L189.04 14.504H188Z" fill="white"/>
<path d="M190 14.504L192.032 10H193.072L191.04 14.504H190Z" fill="white"/>
<path d="M192 14.504L194.032 10H195.072L193.04 14.504H192Z" fill="white"/>
<path d="M194 14.504L196.032 10H197.072L195.04 14.504H194Z" fill="white"/>
<path d="M196 14.504L198.032 10H199.072L197.04 14.504H196Z" fill="white"/>
<path d="M198 14.504L200.032 10H201.072L199.04 14.504H198Z" fill="white"/>
<path d="M200 14.504L202.032 10H203.072L201.04 14.504H200Z" fill="white"/>
<path d="M202 14.504L204.032 10H205.072L203.04 14.504H202Z" fill="white"/>
<path d="M204 14.504L206.032 10H207.072L205.04 14.504H204Z" fill="white"/>
<path d="M206 14.504L208.032 10H209.072L207.04 14.504H206Z" fill="white"/>
<path d="M208 14.504L210.032 10H211.072L209.04 14.504H208Z" fill="white"/>
<path d="M210 14.504L212.032 10H213.072L211.04 14.504H210Z" fill="white"/>
<path d="M212 14.504L214.032 10H215.072L213.04 14.504H212Z" fill="white"/>
<path d="M214 14.504L216.032 10H217.072L215.04 14.504H214Z" fill="white"/>
<path d="M216 14.504L218.032 10H219.072L217.04 14.504H216Z" fill="white"/>
<path d="M218 14.504L220.032 10H221.072L219.04 14.504H218Z" fill="white"/>
<path d="M220 14.504L222.032 10H223.072L221.04 14.504H220Z" fill="white"/>
<path d="M222 14.504L224.032 10H225.072L223.04 14.504H222Z" fill="white"/>
<path d="M224 14.504L226.032 10H227.072L225.04 14.504H224Z" fill="white"/>
<path d="M226 14.504L228.032 10H229.072L227.04 14.504H226Z" fill="white"/>
<path d="M228 14.504L230.032 10H231.072L229.04 14.504H228Z" fill="white"/>
<path d="M230 14.504L232.032 10H233.072L231.04 14.504H230Z" fill="white"/>
<path d="M232 14.504L234.032 10H235.072L233.04 14.504H232Z" fill="white"/>
<path d="M234 14.504L236.032 10H237.072L235.04 14.504H234Z" fill="white"/>
<path d="M236 14.504L238.032 10H239.072L237.04 14.504H236Z" fill="white"/>
<path d="M238 14.504L240.032 10H241.072L239.04 14.504H238Z" fill="white"/>
<path d="M240 14.504L242.032 10H243.072L241.04 14.504H240Z" fill="white"/>
<path d="M242 14.504L244.032 10H245.072L243.04 14.504H242Z" fill="white"/>
<path d="M244 14.504L246.032 10H247.072L245.04 14.504H244Z" fill="white"/>
<path d="M246 14.504L248.032 10H249.072L247.04 14.504H246Z" fill="white"/>
<path d="M248 14.504L250.032 10H251.072L249.04 14.504H248Z" fill="white"/>
<path d="M250 14.504L252.032 10H253.072L251.04 14.504H250Z" fill="white"/>
<path d="M252 14.504L254.032 10H255.072L253.04 14.504H252Z" fill="white"/>
<path d="M254 14.504L256.032 10H257.072L255.04 14.504H254Z" fill="white"/>
<path d="M0 24.504L2.032 20H3.072L1.04 24.504H0Z" fill="white"/>
<path d="M2 24.504L4.032 20H5.072L3.04 24.504H2Z" fill="white"/>
<path d="M4 24.504L6.032 20H7.072L5.04 24.504H4Z" fill="white"/>
<path d="M6 24.504L8.032 20H9.072L7.04 24.504H6Z" fill="white"/>
<path d="M8 24.504L10.032 20H11.072L9.04 24.504H8Z" fill="white"/>
<path d="M10 24.504L12.032 20H13.072L11.04 24.504H10Z" fill="white"/>
<path d="M12 24.504L14.032 20H15.072L13.04 24.504H12Z" fill="white"/>
<path d="M14 24.504L16.032 20H17.072L15.04 24.504H14Z" fill="white"/>
<path d="M16 24.504L18.032 20H19.072L17.04 24.504H16Z" fill="white"/>
<path d="M18 24.504L20.032 20H21.072L19.04 24.504H18Z" fill="white"/>
<path d="M20 24.504L22.032 20H23.072L21.04 24.504H20Z" fill="white"/>
<path d="M22 24.504L24.032 20H25.072L23.04 24.504H22Z" fill="white"/>
<path d="M24 24.504L26.032 20H27.072L25.04 24.504H24Z" fill="white"/>
<path d="M26 24.504L28.032 20H29.072L27.04 24.504H26Z" fill="white"/>
<path d="M28 24.504L30.032 20H31.072L29.04 24.504H28Z" fill="white"/>
<path d="M30 24.504L32.032 20H33.072L31.04 24.504H30Z" fill="white"/>
<path d="M32 24.504L34.032 20H35.072L33.04 24.504H32Z" fill="white"/>
<path d="M34 24.504L36.032 20H37.072L35.04 24.504H34Z" fill="white"/>
<path d="M36 24.504L38.032 20H39.072L37.04 24.504H36Z" fill="white"/>
<path d="M38 24.504L40.032 20H41.072L39.04 24.504H38Z" fill="white"/>
<path d="M40 24.504L42.032 20H43.072L41.04 24.504H40Z" fill="white"/>
<path d="M42 24.504L44.032 20H45.072L43.04 24.504H42Z" fill="white"/>
<path d="M44 24.504L46.032 20H47.072L45.04 24.504H44Z" fill="white"/>
<path d="M46 24.504L48.032 20H49.072L47.04 24.504H46Z" fill="white"/>
<path d="M48 24.504L50.032 20H51.072L49.04 24.504H48Z" fill="white"/>
<path d="M50 24.504L52.032 20H53.072L51.04 24.504H50Z" fill="white"/>
<path d="M52 24.504L54.032 20H55.072L53.04 24.504H52Z" fill="white"/>
<path d="M54 24.504L56.032 20H57.072L55.04 24.504H54Z" fill="white"/>
<path d="M56 24.504L58.032 20H59.072L57.04 24.504H56Z" fill="white"/>
<path d="M58 24.504L60.032 20H61.072L59.04 24.504H58Z" fill="white"/>
<path d="M60 24.504L62.032 20H63.072L61.04 24.504H60Z" fill="white"/>
<path d="M62 24.504L64.032 20H65.072L63.04 24.504H62Z" fill="white"/>
<path d="M64 24.504L66.032 20H67.072L65.04 24.504H64Z" fill="white"/>
<path d="M66 24.504L68.032 20H69.072L67.04 24.504H66Z" fill="white"/>
<path d="M68 24.504L70.032 20H71.072L69.04 24.504H68Z" fill="white"/>
<path d="M70 24.504L72.032 20H73.072L71.04 24.504H70Z" fill="white"/>
<path d="M72 24.504L74.032 20H75.072L73.04 24.504H72Z" fill="white"/>
<path d="M74 24.504L76.032 20H77.072L75.04 24.504H74Z" fill="white"/>
<path d="M76 24.504L78.032 20H79.072L77.04 24.504H76Z" fill="white"/>
<path d="M78 24.504L80.032 20H81.072L79.04 24.504H78Z" fill="white"/>
<path d="M80 24.504L82.032 20H83.072L81.04 24.504H80Z" fill="white"/>
<path d="M82 24.504L84.032 20H85.072L83.04 24.504H82Z" fill="white"/>
<path d="M84 24.504L86.032 20H87.072L85.04 24.504H84Z" fill="white"/>
<path d="M86 24.504L88.032 20H89.072L87.04 24.504H86Z" fill="white"/>
<path d="M88 24.504L90.032 20H91.072L89.04 24.504H88Z" fill="white"/>
<path d="M90 24.504L92.032 20H93.072L91.04 24.504H90Z" fill="white"/>
<path d="M92 24.504L94.032 20H95.072L93.04 24.504H92Z" fill="white"/>
<path d="M94 24.504L96.032 20H97.072L95.04 24.504H94Z" fill="white"/>
<path d="M96 24.504L98.032 20H99.072L97.04 24.504H96Z" fill="white"/>
<path d="M98 24.504L100.032 20H101.072L99.04 24.504H98Z" fill="white"/>
<path d="M100 24.504L102.032 20H103.072L101.04 24.504H100Z" fill="white"/>
<path d="M102 24.504L104.032 20H105.072L103.04 24.504H102Z" fill="white"/>
<path d="M104 24.504L106.032 20H107.072L105.04 24.504H104Z" fill="white"/>
<path d="M106 24.504L108.032 20H109.072L107.04 24.504H106Z" fill="white"/>
<path d="M108 24.504L110.032 20H111.072L109.04 24.504H108Z" fill="white"/>
<path d="M110 24.504L112.032 20H113.072L111.04 24.504H110Z" fill="white"/>
<path d="M112 24.504L114.032 20H115.072L113.04 24.504H112Z" fill="white"/>
<path d="M114 24.504L116.032 20H117.072L115.04 24.504H114Z" fill="white"/>
<path d="M116 24.504L118.032 20H119.072L117.04 24.504H116Z" fill="white"/>
<path d="M118 24.504L120.032 20H121.072L119.04 24.504H118Z" fill="white"/>
<path d="M120 24.504L122.032 20H123.072L121.04 24.504H120Z" fill="white"/>
<path d="M122 24.504L124.032 20H125.072L123.04 24.504H122Z" fill="white"/>
<path d="M124 24.504L126.032 20H127.072L125.04 24.504H124Z" fill="white"/>
<path d="M126 24.504L128.032 20H129.072L127.04 24.504H126Z" fill="white"/>
<path d="M128 24.504L130.032 20H131.072L129.04 24.504H128Z" fill="white"/>
<path d="M130 24.504L132.032 20H133.072L131.04 24.504H130Z" fill="white"/>
<path d="M132 24.504L134.032 20H135.072L133.04 24.504H132Z" fill="white"/>
<path d="M134 24.504L136.032 20H137.072L135.04 24.504H134Z" fill="white"/>
<path d="M136 24.504L138.032 20H139.072L137.04 24.504H136Z" fill="white"/>
<path d="M138 24.504L140.032 20H141.072L139.04 24.504H138Z" fill="white"/>
<path d="M140 24.504L142.032 20H143.072L141.04 24.504H140Z" fill="white"/>
<path d="M142 24.504L144.032 20H145.072L143.04 24.504H142Z" fill="white"/>
<path d="M144 24.504L146.032 20H147.072L145.04 24.504H144Z" fill="white"/>
<path d="M146 24.504L148.032 20H149.072L147.04 24.504H146Z" fill="white"/>
<path d="M148 24.504L150.032 20H151.072L149.04 24.504H148Z" fill="white"/>
<path d="M150 24.504L152.032 20H153.072L151.04 24.504H150Z" fill="white"/>
<path d="M152 24.504L154.032 20H155.072L153.04 24.504H152Z" fill="white"/>
<path d="M154 24.504L156.032 20H157.072L155.04 24.504H154Z" fill="white"/>
<path d="M156 24.504L158.032 20H159.072L157.04 24.504H156Z" fill="white"/>
<path d="M158 24.504L160.032 20H161.072L159.04 24.504H158Z" fill="white"/>
<path d="M160 24.504L162.032 20H163.072L161.04 24.504H160Z" fill="white"/>
<path d="M162 24.504L164.032 20H165.072L163.04 24.504H162Z" fill="white"/>
<path d="M164 24.504L166.032 20H167.072L165.04 24.504H164Z" fill="white"/>
<path d="M166 24.504L168.032 20H169.072L167.04 24.504H166Z" fill="white"/>
<path d="M168 24.504L170.032 20H171.072L169.04 24.504H168Z" fill="white"/>
<path d="M170 24.504L172.032 20H173.072L171.04 24.504H170Z" fill="white"/>
<path d="M172 24.504L174.032 20H175.072L173.04 24.504H172Z" fill="white"/>
<path d="M174 24.504L176.032 20H177.072L175.04 24.504H174Z" fill="white"/>
<path d="M176 24.504L178.032 20H179.072L177.04 24.504H176Z" fill="white"/>
<path d="M178 24.504L180.032 20H181.072L179.04 24.504H178Z" fill="white"/>
<path d="M180 24.504L182.032 20H183.072L181.04 24.504H180Z" fill="white"/>
<path d="M182 24.504L184.032 20H185.072L183.04 24.504H182Z" fill="white"/>
<path d="M184 24.504L186.032 20H187.072L185.04 24.504H184Z" fill="white"/>
<path d="M186 24.504L188.032 20H189.072L187.04 24.504H186Z" fill="white"/>
<path d="M188 24.504L190.032 20H191.072L189.04 24.504H188Z" fill="white"/>
<path d="M190 24.504L192.032 20H193.072L191.04 24.504H190Z" fill="white"/>
<path d="M192 24.504L194.032 20H195.072L193.04 24.504H192Z" fill="white"/>
<path d="M194 24.504L196.032 20H197.072L195.04 24.504H194Z" fill="white"/>
<path d="M196 24.504L198.032 20H199.072L197.04 24.504H196Z" fill="white"/>
<path d="M198 24.504L200.032 20H201.072L199.04 24.504H198Z" fill="white"/>
<path d="M200 24.504L202.032 20H203.072L201.04 24.504H200Z" fill="white"/>
<path d="M202 24.504L204.032 20H205.072L203.04 24.504H202Z" fill="white"/>
<path d="M204 24.504L206.032 20H207.072L205.04 24.504H204Z" fill="white"/>
<path d="M206 24.504L208.032 20H209.072L207.04 24.504H206Z" fill="white"/>
<path d="M208 24.504L210.032 20H211.072L209.04 24.504H208Z" fill="white"/>
<path d="M210 24.504L212.032 20H213.072L211.04 24.504H210Z" fill="white"/>
<path d="M212 24.504L214.032 20H215.072L213.04 24.504H212Z" fill="white"/>
<path d="M214 24.504L216.032 20H217.072L215.04 24.504H214Z" fill="white"/>
<path d="M216 24.504L218.032 20H219.072L217.04 24.504H216Z" fill="white"/>
<path d="M218 24.504L220.032 20H221.072L219.04 24.504H218Z" fill="white"/>
<path d="M220 24.504L222.032 20H223.072L221.04 24.504H220Z" fill="white"/>
<path d="M222 24.504L224.032 20H225.072L223.04 24.504H222Z" fill="white"/>
<path d="M224 24.504L226.032 20H227.072L225.04 24.504H224Z" fill="white"/>
<path d="M226 24.504L228.032 20H229.072L227.04 24.504H226Z" fill="white"/>
<path d="M228 24.504L230.032 20H231.072L229.04 24.504H228Z" fill="white"/>
<path d="M230 24.504L232.032 20H233.072L231.04 24.504H230Z" fill="white"/>
<path d="M232 24.504L234.032 20H235.072L233.04 24.504H232Z" fill="white"/>
<path d="M234 24.504L236.032 20H237.072L235.04 24.504H234Z" fill="white"/>
<path d="M236 24.504L238.032 20H239.072L237.04 24.504H236Z" fill="white"/>
<path d="M238 24.504L240.032 20H241.072L239.04 24.504H238Z" fill="white"/>
<path d="M240 24.504L242.032 20H243.072L241.04 24.504H240Z" fill="white"/>
<path d="M242 24.504L244.032 20H245.072L243.04 24.504H242Z" fill="white"/>
<path d="M244 24.504L246.032 20H247.072L245.04 24.504H244Z" fill="white"/>
<path d="M246 24.504L248.032 20H249.072L247.04 24.504H246Z" fill="white"/>
<path d="M248 24.504L250.032 20H251.072L249.04 24.504H248Z" fill="white"/>
<path d="M250 24.504L252.032 20H253.072L251.04 24.504H250Z" fill="white"/>
<path d="M252 24.504L254.032 20H255.072L253.04 24.504H252Z" fill="white"/>
<path d="M254 24.504L256.032 20H257.072L255.04 24.504H254Z" fill="white"/>
<path d="M0 34.504L2.032 30H3.072L1.04 34.504H0Z" fill="white"/>
<path d="M2 34.504L4.032 30H5.072L3.04 34.504H2Z" fill="white"/>
<path d="M4 34.504L6.032 30H7.072L5.04 34.504H4Z" fill="white"/>
<path d="M6 34.504L8.032 30H9.072L7.04 34.504H6Z" fill="white"/>
<path d="M8 34.504L10.032 30H11.072L9.04 34.504H8Z" fill="white"/>
<path d="M10 34.504L12.032 30H13.072L11.04 34.504H10Z" fill="white"/>
<path d="M12 34.504L14.032 30H15.072L13.04 34.504H12Z" fill="white"/>
<path d="M14 34.504L16.032 30H17.072L15.04 34.504H14Z" fill="white"/>
<path d="M16 34.504L18.032 30H19.072L17.04 34.504H16Z" fill="white"/>
<path d="M18 34.504L20.032 30H21.072L19.04 34.504H18Z" fill="white"/>
<path d="M20 34.504L22.032 30H23.072L21.04 34.504H20Z" fill="white"/>
<path d="M22 34.504L24.032 30H25.072L23.04 34.504H22Z" fill="white"/>
<path d="M24 34.504L26.032 30H27.072L25.04 34.504H24Z" fill="white"/>
<path d="M26 34.504L28.032 30H29.072L27.04 34.504H26Z" fill="white"/>
<path d="M28 34.504L30.032 30H31.072L29.04 34.504H28Z" fill="white"/>
<path d="M30 34.504L32.032 30H33.072L31.04 34.504H30Z" fill="white"/>
<path d="M32 34.504L34.032 30H35.072L33.04 34.504H32Z" fill="white"/>
<path d="M34 34.504L36.032 30H37.072L35.04 34.504H34Z" fill="white"/>
<path d="M36 34.504L38.032 30H39.072L37.04 34.504H36Z" fill="white"/>
<path d="M38 34.504L40.032 30H41.072L39.04 34.504H38Z" fill="white"/>
<path d="M40 34.504L42.032 30H43.072L41.04 34.504H40Z" fill="white"/>
<path d="M42 34.504L44.032 30H45.072L43.04 34.504H42Z" fill="white"/>
<path d="M44 34.504L46.032 30H47.072L45.04 34.504H44Z" fill="white"/>
<path d="M46 34.504L48.032 30H49.072L47.04 34.504H46Z" fill="white"/>
<path d="M48 34.504L50.032 30H51.072L49.04 34.504H48Z" fill="white"/>
<path d="M50 34.504L52.032 30H53.072L51.04 34.504H50Z" fill="white"/>
<path d="M52 34.504L54.032 30H55.072L53.04 34.504H52Z" fill="white"/>
<path d="M54 34.504L56.032 30H57.072L55.04 34.504H54Z" fill="white"/>
<path d="M56 34.504L58.032 30H59.072L57.04 34.504H56Z" fill="white"/>
<path d="M58 34.504L60.032 30H61.072L59.04 34.504H58Z" fill="white"/>
<path d="M60 34.504L62.032 30H63.072L61.04 34.504H60Z" fill="white"/>
<path d="M62 34.504L64.032 30H65.072L63.04 34.504H62Z" fill="white"/>
<path d="M64 34.504L66.032 30H67.072L65.04 34.504H64Z" fill="white"/>
<path d="M66 34.504L68.032 30H69.072L67.04 34.504H66Z" fill="white"/>
<path d="M68 34.504L70.032 30H71.072L69.04 34.504H68Z" fill="white"/>
<path d="M70 34.504L72.032 30H73.072L71.04 34.504H70Z" fill="white"/>
<path d="M72 34.504L74.032 30H75.072L73.04 34.504H72Z" fill="white"/>
<path d="M74 34.504L76.032 30H77.072L75.04 34.504H74Z" fill="white"/>
<path d="M76 34.504L78.032 30H79.072L77.04 34.504H76Z" fill="white"/>
<path d="M78 34.504L80.032 30H81.072L79.04 34.504H78Z" fill="white"/>
<path d="M80 34.504L82.032 30H83.072L81.04 34.504H80Z" fill="white"/>
<path d="M82 34.504L84.032 30H85.072L83.04 34.504H82Z" fill="white"/>
<path d="M84 34.504L86.032 30H87.072L85.04 34.504H84Z" fill="white"/>
<path d="M86 34.504L88.032 30H89.072L87.04 34.504H86Z" fill="white"/>
<path d="M88 34.504L90.032 30H91.072L89.04 34.504H88Z" fill="white"/>
<path d="M90 34.504L92.032 30H93.072L91.04 34.504H90Z" fill="white"/>
<path d="M92 34.504L94.032 30H95.072L93.04 34.504H92Z" fill="white"/>
<path d="M94 34.504L96.032 30H97.072L95.04 34.504H94Z" fill="white"/>
<path d="M96 34.504L98.032 30H99.072L97.04 34.504H96Z" fill="white"/>
<path d="M98 34.504L100.032 30H101.072L99.04 34.504H98Z" fill="white"/>
<path d="M100 34.504L102.032 30H103.072L101.04 34.504H100Z" fill="white"/>
<path d="M102 34.504L104.032 30H105.072L103.04 34.504H102Z" fill="white"/>
<path d="M104 34.504L106.032 30H107.072L105.04 34.504H104Z" fill="white"/>
<path d="M106 34.504L108.032 30H109.072L107.04 34.504H106Z" fill="white"/>
<path d="M108 34.504L110.032 30H111.072L109.04 34.504H108Z" fill="white"/>
<path d="M110 34.504L112.032 30H113.072L111.04 34.504H110Z" fill="white"/>
<path d="M112 34.504L114.032 30H115.072L113.04 34.504H112Z" fill="white"/>
<path d="M114 34.504L116.032 30H117.072L115.04 34.504H114Z" fill="white"/>
<path d="M116 34.504L118.032 30H119.072L117.04 34.504H116Z" fill="white"/>
<path d="M118 34.504L120.032 30H121.072L119.04 34.504H118Z" fill="white"/>
<path d="M120 34.504L122.032 30H123.072L121.04 34.504H120Z" fill="white"/>
<path d="M122 34.504L124.032 30H125.072L123.04 34.504H122Z" fill="white"/>
<path d="M124 34.504L126.032 30H127.072L125.04 34.504H124Z" fill="white"/>
<path d="M126 34.504L128.032 30H129.072L127.04 34.504H126Z" fill="white"/>
<path d="M128 34.504L130.032 30H131.072L129.04 34.504H128Z" fill="white"/>
<path d="M130 34.504L132.032 30H133.072L131.04 34.504H130Z" fill="white"/>
<path d="M132 34.504L134.032 30H135.072L133.04 34.504H132Z" fill="white"/>
<path d="M134 34.504L136.032 30H137.072L135.04 34.504H134Z" fill="white"/>
<path d="M136 34.504L138.032 30H139.072L137.04 34.504H136Z" fill="white"/>
<path d="M138 34.504L140.032 30H141.072L139.04 34.504H138Z" fill="white"/>
<path d="M140 34.504L142.032 30H143.072L141.04 34.504H140Z" fill="white"/>
<path d="M142 34.504L144.032 30H145.072L143.04 34.504H142Z" fill="white"/>
<path d="M144 34.504L146.032 30H147.072L145.04 34.504H144Z" fill="white"/>
<path d="M146 34.504L148.032 30H149.072L147.04 34.504H146Z" fill="white"/>
<path d="M148 34.504L150.032 30H151.072L149.04 34.504H148Z" fill="white"/>
<path d="M150 34.504L152.032 30H153.072L151.04 34.504H150Z" fill="white"/>
<path d="M152 34.504L154.032 30H155.072L153.04 34.504H152Z" fill="white"/>
<path d="M154 34.504L156.032 30H157.072L155.04 34.504H154Z" fill="white"/>
<path d="M156 34.504L158.032 30H159.072L157.04 34.504H156Z" fill="white"/>
<path d="M158 34.504L160.032 30H161.072L159.04 34.504H158Z" fill="white"/>
<path d="M160 34.504L162.032 30H163.072L161.04 34.504H160Z" fill="white"/>
<path d="M162 34.504L164.032 30H165.072L163.04 34.504H162Z" fill="white"/>
<path d="M164 34.504L166.032 30H167.072L165.04 34.504H164Z" fill="white"/>
<path d="M166 34.504L168.032 30H169.072L167.04 34.504H166Z" fill="white"/>
<path d="M168 34.504L170.032 30H171.072L169.04 34.504H168Z" fill="white"/>
<path d="M170 34.504L172.032 30H173.072L171.04 34.504H170Z" fill="white"/>
<path d="M172 34.504L174.032 30H175.072L173.04 34.504H172Z" fill="white"/>
<path d="M174 34.504L176.032 30H177.072L175.04 34.504H174Z" fill="white"/>
<path d="M176 34.504L178.032 30H179.072L177.04 34.504H176Z" fill="white"/>
<path d="M178 34.504L180.032 30H181.072L179.04 34.504H178Z" fill="white"/>
<path d="M180 34.504L182.032 30H183.072L181.04 34.504H180Z" fill="white"/>
<path d="M182 34.504L184.032 30H185.072L183.04 34.504H182Z" fill="white"/>
<path d="M184 34.504L186.032 30H187.072L185.04 34.504H184Z" fill="white"/>
<path d="M186 34.504L188.032 30H189.072L187.04 34.504H186Z" fill="white"/>
<path d="M188 34.504L190.032 30H191.072L189.04 34.504H188Z" fill="white"/>
<path d="M190 34.504L192.032 30H193.072L191.04 34.504H190Z" fill="white"/>
<path d="M192 34.504L194.032 30H195.072L193.04 34.504H192Z" fill="white"/>
<path d="M194 34.504L196.032 30H197.072L195.04 34.504H194Z" fill="white"/>
<path d="M196 34.504L198.032 30H199.072L197.04 34.504H196Z" fill="white"/>
<path d="M198 34.504L200.032 30H201.072L199.04 34.504H198Z" fill="white"/>
<path d="M200 34.504L202.032 30H203.072L201.04 34.504H200Z" fill="white"/>
<path d="M202 34.504L204.032 30H205.072L203.04 34.504H202Z" fill="white"/>
<path d="M204 34.504L206.032 30H207.072L205.04 34.504H204Z" fill="white"/>
<path d="M206 34.504L208.032 30H209.072L207.04 34.504H206Z" fill="white"/>
<path d="M208 34.504L210.032 30H211.072L209.04 34.504H208Z" fill="white"/>
<path d="M210 34.504L212.032 30H213.072L211.04 34.504H210Z" fill="white"/>
<path d="M212 34.504L214.032 30H215.072L213.04 34.504H212Z" fill="white"/>
<path d="M214 34.504L216.032 30H217.072L215.04 34.504H214Z" fill="white"/>
<path d="M216 34.504L218.032 30H219.072L217.04 34.504H216Z" fill="white"/>
<path d="M218 34.504L220.032 30H221.072L219.04 34.504H218Z" fill="white"/>
<path d="M220 34.504L222.032 30H223.072L221.04 34.504H220Z" fill="white"/>
<path d="M222 34.504L224.032 30H225.072L223.04 34.504H222Z" fill="white"/>
<path d="M224 34.504L226.032 30H227.072L225.04 34.504H224Z" fill="white"/>
<path d="M226 34.504L228.032 30H229.072L227.04 34.504H226Z" fill="white"/>
<path d="M228 34.504L230.032 30H231.072L229.04 34.504H228Z" fill="white"/>
<path d="M230 34.504L232.032 30H233.072L231.04 34.504H230Z" fill="white"/>
<path d="M232 34.504L234.032 30H235.072L233.04 34.504H232Z" fill="white"/>
<path d="M234 34.504L236.032 30H237.072L235.04 34.504H234Z" fill="white"/>
<path d="M236 34.504L238.032 30H239.072L237.04 34.504H236Z" fill="white"/>
<path d="M238 34.504L240.032 30H241.072L239.04 34.504H238Z" fill="white"/>
<path d="M240 34.504L242.032 30H243.072L241.04 34.504H240Z" fill="white"/>
<path d="M242 34.504L244.032 30H245.072L243.04 34.504H242Z" fill="white"/>
<path d="M244 34.504L246.032 30H247.072L245.04 34.504H244Z" fill="white"/>
<path d="M246 34.504L248.032 30H249.072L247.04 34.504H246Z" fill="white"/>
<path d="M248 34.504L250.032 30H251.072L249.04 34.504H248Z" fill="white"/>
<path d="M250 34.504L252.032 30H253.072L251.04 34.504H250Z" fill="white"/>
<path d="M252 34.504L254.032 30H255.072L253.04 34.504H252Z" fill="white"/>
<path d="M254 34.504L256.032 30H257.072L255.04 34.504H254Z" fill="white"/>
<path d="M257.072 9.504L255.04 5H254L256.032 9.504H257.072Z" fill="white"/>
<path d="M255.072 9.504L253.04 5H252L254.032 9.504H255.072Z" fill="white"/>
<path d="M253.072 9.504L251.04 5H250L252.032 9.504H253.072Z" fill="white"/>
<path d="M251.072 9.504L249.04 5H248L250.032 9.504H251.072Z" fill="white"/>
<path d="M249.072 9.504L247.04 5H246L248.032 9.504H249.072Z" fill="white"/>
<path d="M247.072 9.504L245.04 5H244L246.032 9.504H247.072Z" fill="white"/>
<path d="M245.072 9.504L243.04 5H242L244.032 9.504H245.072Z" fill="white"/>
<path d="M243.072 9.504L241.04 5H240L242.032 9.504H243.072Z" fill="white"/>
<path d="M241.072 9.504L239.04 5H238L240.032 9.504H241.072Z" fill="white"/>
<path d="M239.072 9.504L237.04 5H236L238.032 9.504H239.072Z" fill="white"/>
<path d="M237.072 9.504L235.04 5H234L236.032 9.504H237.072Z" fill="white"/>
<path d="M235.072 9.504L233.04 5H232L234.032 9.504H235.072Z" fill="white"/>
<path d="M233.072 9.504L231.04 5H230L232.032 9.504H233.072Z" fill="white"/>
<path d="M231.072 9.504L229.04 5H228L230.032 9.504H231.072Z" fill="white"/>
<path d="M229.072 9.504L227.04 5H226L228.032 9.504H229.072Z" fill="white"/>
<path d="M227.072 9.504L225.04 5H224L226.032 9.504H227.072Z" fill="white"/>
<path d="M225.072 9.504L223.04 5H222L224.032 9.504H225.072Z" fill="white"/>
<path d="M223.072 9.504L221.04 5H220L222.032 9.504H223.072Z" fill="white"/>
<path d="M221.072 9.504L219.04 5H218L220.032 9.504H221.072Z" fill="white"/>
<path d="M219.072 9.504L217.04 5H216L218.032 9.504H219.072Z" fill="white"/>
<path d="M217.072 9.504L215.04 5H214L216.032 9.504H217.072Z" fill="white"/>
<path d="M215.072 9.504L213.04 5H212L214.032 9.504H215.072Z" fill="white"/>
<path d="M213.072 9.504L211.04 5H210L212.032 9.504H213.072Z" fill="white"/>
<path d="M211.072 9.504L209.04 5H208L210.032 9.504H211.072Z" fill="white"/>
<path d="M209.072 9.504L207.04 5H206L208.032 9.504H209.072Z" fill="white"/>
<path d="M207.072 9.504L205.04 5H204L206.032 9.504H207.072Z" fill="white"/>
<path d="M205.072 9.504L203.04 5H202L204.032 9.504H205.072Z" fill="white"/>
<path d="M203.072 9.504L201.04 5H200L202.032 9.504H203.072Z" fill="white"/>
<path d="M201.072 9.504L199.04 5H198L200.032 9.504H201.072Z" fill="white"/>
<path d="M199.072 9.504L197.04 5H196L198.032 9.504H199.072Z" fill="white"/>
<path d="M197.072 9.504L195.04 5H194L196.032 9.504H197.072Z" fill="white"/>
<path d="M195.072 9.504L193.04 5H192L194.032 9.504H195.072Z" fill="white"/>
<path d="M193.072 9.504L191.04 5H190L192.032 9.504H193.072Z" fill="white"/>
<path d="M191.072 9.504L189.04 5H188L190.032 9.504H191.072Z" fill="white"/>
<path d="M189.072 9.504L187.04 5H186L188.032 9.504H189.072Z" fill="white"/>
<path d="M187.072 9.504L185.04 5H184L186.032 9.504H187.072Z" fill="white"/>
<path d="M185.072 9.504L183.04 5H182L184.032 9.504H185.072Z" fill="white"/>
<path d="M183.072 9.504L181.04 5H180L182.032 9.504H183.072Z" fill="white"/>
<path d="M181.072 9.504L179.04 5H178L180.032 9.504H181.072Z" fill="white"/>
<path d="M179.072 9.504L177.04 5H176L178.032 9.504H179.072Z" fill="white"/>
<path d="M177.072 9.504L175.04 5H174L176.032 9.504H177.072Z" fill="white"/>
<path d="M175.072 9.504L173.04 5H172L174.032 9.504H175.072Z" fill="white"/>
<path d="M173.072 9.504L171.04 5H170L172.032 9.504H173.072Z" fill="white"/>
<path d="M171.072 9.504L169.04 5H168L170.032 9.504H171.072Z" fill="white"/>
<path d="M169.072 9.504L167.04 5H166L168.032 9.504H169.072Z" fill="white"/>
<path d="M167.072 9.504L165.04 5H164L166.032 9.504H167.072Z" fill="white"/>
<path d="M165.072 9.504L163.04 5H162L164.032 9.504H165.072Z" fill="white"/>
<path d="M163.072 9.504L161.04 5H160L162.032 9.504H163.072Z" fill="white"/>
<path d="M161.072 9.504L159.04 5H158L160.032 9.504H161.072Z" fill="white"/>
<path d="M159.072 9.504L157.04 5H156L158.032 9.504H159.072Z" fill="white"/>
<path d="M157.072 9.504L155.04 5H154L156.032 9.504H157.072Z" fill="white"/>
<path d="M155.072 9.504L153.04 5H152L154.032 9.504H155.072Z" fill="white"/>
<path d="M153.072 9.504L151.04 5H150L152.032 9.504H153.072Z" fill="white"/>
<path d="M151.072 9.504L149.04 5H148L150.032 9.504H151.072Z" fill="white"/>
<path d="M149.072 9.504L147.04 5H146L148.032 9.504H149.072Z" fill="white"/>
<path d="M147.072 9.504L145.04 5H144L146.032 9.504H147.072Z" fill="white"/>
<path d="M145.072 9.504L143.04 5H142L144.032 9.504H145.072Z" fill="white"/>
<path d="M143.072 9.504L141.04 5H140L142.032 9.504H143.072Z" fill="white"/>
<path d="M141.072 9.504L139.04 5H138L140.032 9.504H141.072Z" fill="white"/>
<path d="M139.072 9.504L137.04 5H136L138.032 9.504H139.072Z" fill="white"/>
<path d="M137.072 9.504L135.04 5H134L136.032 9.504H137.072Z" fill="white"/>
<path d="M135.072 9.504L133.04 5H132L134.032 9.504H135.072Z" fill="white"/>
<path d="M133.072 9.504L131.04 5H130L132.032 9.504H133.072Z" fill="white"/>
<path d="M131.072 9.504L129.04 5H128L130.032 9.504H131.072Z" fill="white"/>
<path d="M129.072 9.504L127.04 5H126L128.032 9.504H129.072Z" fill="white"/>
<path d="M127.072 9.504L125.04 5H124L126.032 9.504H127.072Z" fill="white"/>
<path d="M125.072 9.504L123.04 5H122L124.032 9.504H125.072Z" fill="white"/>
<path d="M123.072 9.504L121.04 5H120L122.032 9.504H123.072Z" fill="white"/>
<path d="M121.072 9.504L119.04 5H118L120.032 9.504H121.072Z" fill="white"/>
<path d="M119.072 9.504L117.04 5H116L118.032 9.504H119.072Z" fill="white"/>
<path d="M117.072 9.504L115.04 5H114L116.032 9.504H117.072Z" fill="white"/>
<path d="M115.072 9.504L113.04 5H112L114.032 9.504H115.072Z" fill="white"/>
<path d="M113.072 9.504L111.04 5H110L112.032 9.504H113.072Z" fill="white"/>
<path d="M111.072 9.504L109.04 5H108L110.032 9.504H111.072Z" fill="white"/>
<path d="M109.072 9.504L107.04 5H106L108.032 9.504H109.072Z" fill="white"/>
<path d="M107.072 9.504L105.04 5H104L106.032 9.504H107.072Z" fill="white"/>
<path d="M105.072 9.504L103.04 5H102L104.032 9.504H105.072Z" fill="white"/>
<path d="M103.072 9.504L101.04 5H100L102.032 9.504H103.072Z" fill="white"/>
<path d="M101.072 9.504L99.04 5H98L100.032 9.504H101.072Z" fill="white"/>
<path d="M99.072 9.504L97.04 5H96L98.032 9.504H99.072Z" fill="white"/>
<path d="M97.072 9.504L95.04 5H94L96.032 9.504H97.072Z" fill="white"/>
<path d="M95.072 9.504L93.04 5H92L94.032 9.504H95.072Z" fill="white"/>
<path d="M93.072 9.504L91.04 5H90L92.032 9.504H93.072Z" fill="white"/>
<path d="M91.072 9.504L89.04 5H88L90.032 9.504H91.072Z" fill="white"/>
<path d="M89.072 9.504L87.04 5H86L88.032 9.504H89.072Z" fill="white"/>
<path d="M87.072 9.504L85.04 5H84L86.032 9.504H87.072Z" fill="white"/>
<path d="M85.072 9.504L83.04 5H82L84.032 9.504H85.072Z" fill="white"/>
<path d="M83.072 9.504L81.04 5H80L82.032 9.504H83.072Z" fill="white"/>
<path d="M81.072 9.504L79.04 5H78L80.032 9.504H81.072Z" fill="white"/>
<path d="M79.072 9.504L77.04 5H76L78.032 9.504H79.072Z" fill="white"/>
<path d="M77.072 9.504L75.04 5H74L76.032 9.504H77.072Z" fill="white"/>
<path d="M75.072 9.504L73.04 5H72L74.032 9.504H75.072Z" fill="white"/>
<path d="M73.072 9.504L71.04 5H70L72.032 9.504H73.072Z" fill="white"/>
<path d="M71.072 9.504L69.04 5H68L70.032 9.504H71.072Z" fill="white"/>
<path d="M69.072 9.504L67.04 5H66L68.032 9.504H69.072Z" fill="white"/>
<path d="M67.072 9.504L65.04 5H64L66.032 9.504H67.072Z" fill="white"/>
<path d="M65.072 9.504L63.04 5H62L64.032 9.504H65.072Z" fill="white"/>
<path d="M63.072 9.504L61.04 5H60L62.032 9.504H63.072Z" fill="white"/>
<path d="M61.072 9.504L59.04 5H58L60.032 9.504H61.072Z" fill="white"/>
<path d="M59.072 9.504L57.04 5H56L58.032 9.504H59.072Z" fill="white"/>
<path d="M57.072 9.504L55.04 5H54L56.032 9.504H57.072Z" fill="white"/>
<path d="M55.072 9.504L53.04 5H52L54.032 9.504H55.072Z" fill="white"/>
<path d="M53.072 9.504L51.04 5H50L52.032 9.504H53.072Z" fill="white"/>
<path d="M51.072 9.504L49.04 5H48L50.032 9.504H51.072Z" fill="white"/>
<path d="M49.072 9.504L47.04 5H46L48.032 9.504H49.072Z" fill="white"/>
<path d="M47.072 9.504L45.04 5H44L46.032 9.504H47.072Z" fill="white"/>
<path d="M45.072 9.504L43.04 5H42L44.032 9.504H45.072Z" fill="white"/>
<path d="M43.072 9.504L41.04 5H40L42.032 9.504H43.072Z" fill="white"/>
<path d="M41.072 9.504L39.04 5H38L40.032 9.504H41.072Z" fill="white"/>
<path d="M39.072 9.504L37.04 5H36L38.032 9.504H39.072Z" fill="white"/>
<path d="M37.072 9.504L35.04 5H34L36.032 9.504H37.072Z" fill="white"/>
<path d="M35.072 9.504L33.04 5H32L34.032 9.504H35.072Z" fill="white"/>
<path d="M33.072 9.504L31.04 5H30L32.032 9.504H33.072Z" fill="white"/>
<path d="M31.072 9.504L29.04 5H28L30.032 9.504H31.072Z" fill="white"/>
<path d="M29.072 9.504L27.04 5H26L28.032 9.504H29.072Z" fill="white"/>
<path d="M27.072 9.504L25.04 5H24L26.032 9.504H27.072Z" fill="white"/>
<path d="M25.072 9.504L23.04 5H22L24.032 9.504H25.072Z" fill="white"/>
<path d="M23.072 9.504L21.04 5H20L22.032 9.504H23.072Z" fill="white"/>
<path d="M21.072 9.504L19.04 5H18L20.032 9.504H21.072Z" fill="white"/>
<path d="M19.072 9.504L17.04 5H16L18.032 9.504H19.072Z" fill="white"/>
<path d="M17.072 9.504L15.04 5H14L16.032 9.504H17.072Z" fill="white"/>
<path d="M15.072 9.504L13.04 5H12L14.032 9.504H15.072Z" fill="white"/>
<path d="M13.072 9.504L11.04 5H10L12.032 9.504H13.072Z" fill="white"/>
<path d="M11.072 9.504L9.04002 5H8.00002L10.032 9.504H11.072Z" fill="white"/>
<path d="M9.07202 9.504L7.04002 5H6.00002L8.03202 9.504H9.07202Z" fill="white"/>
<path d="M7.07202 9.504L5.04002 5H4.00002L6.03202 9.504H7.07202Z" fill="white"/>
<path d="M5.07202 9.504L3.04002 5H2.00002L4.03202 9.504H5.07202Z" fill="white"/>
<path d="M3.07202 9.504L1.04002 5H2.14577e-05L2.03202 9.504H3.07202Z" fill="white"/>
<path d="M257.072 19.504L255.04 15H254L256.032 19.504H257.072Z" fill="white"/>
<path d="M255.072 19.504L253.04 15H252L254.032 19.504H255.072Z" fill="white"/>
<path d="M253.072 19.504L251.04 15H250L252.032 19.504H253.072Z" fill="white"/>
<path d="M251.072 19.504L249.04 15H248L250.032 19.504H251.072Z" fill="white"/>
<path d="M249.072 19.504L247.04 15H246L248.032 19.504H249.072Z" fill="white"/>
<path d="M247.072 19.504L245.04 15H244L246.032 19.504H247.072Z" fill="white"/>
<path d="M245.072 19.504L243.04 15H242L244.032 19.504H245.072Z" fill="white"/>
<path d="M243.072 19.504L241.04 15H240L242.032 19.504H243.072Z" fill="white"/>
<path d="M241.072 19.504L239.04 15H238L240.032 19.504H241.072Z" fill="white"/>
<path d="M239.072 19.504L237.04 15H236L238.032 19.504H239.072Z" fill="white"/>
<path d="M237.072 19.504L235.04 15H234L236.032 19.504H237.072Z" fill="white"/>
<path d="M235.072 19.504L233.04 15H232L234.032 19.504H235.072Z" fill="white"/>
<path d="M233.072 19.504L231.04 15H230L232.032 19.504H233.072Z" fill="white"/>
<path d="M231.072 19.504L229.04 15H228L230.032 19.504H231.072Z" fill="white"/>
<path d="M229.072 19.504L227.04 15H226L228.032 19.504H229.072Z" fill="white"/>
<path d="M227.072 19.504L225.04 15H224L226.032 19.504H227.072Z" fill="white"/>
<path d="M225.072 19.504L223.04 15H222L224.032 19.504H225.072Z" fill="white"/>
<path d="M223.072 19.504L221.04 15H220L222.032 19.504H223.072Z" fill="white"/>
<path d="M221.072 19.504L219.04 15H218L220.032 19.504H221.072Z" fill="white"/>
<path d="M219.072 19.504L217.04 15H216L218.032 19.504H219.072Z" fill="white"/>
<path d="M217.072 19.504L215.04 15H214L216.032 19.504H217.072Z" fill="white"/>
<path d="M215.072 19.504L213.04 15H212L214.032 19.504H215.072Z" fill="white"/>
<path d="M213.072 19.504L211.04 15H210L212.032 19.504H213.072Z" fill="white"/>
<path d="M211.072 19.504L209.04 15H208L210.032 19.504H211.072Z" fill="white"/>
<path d="M209.072 19.504L207.04 15H206L208.032 19.504H209.072Z" fill="white"/>
<path d="M207.072 19.504L205.04 15H204L206.032 19.504H207.072Z" fill="white"/>
<path d="M205.072 19.504L203.04 15H202L204.032 19.504H205.072Z" fill="white"/>
<path d="M203.072 19.504L201.04 15H200L202.032 19.504H203.072Z" fill="white"/>
<path d="M201.072 19.504L199.04 15H198L200.032 19.504H201.072Z" fill="white"/>
<path d="M199.072 19.504L197.04 15H196L198.032 19.504H199.072Z" fill="white"/>
<path d="M197.072 19.504L195.04 15H194L196.032 19.504H197.072Z" fill="white"/>
<path d="M195.072 19.504L193.04 15H192L194.032 19.504H195.072Z" fill="white"/>
<path d="M193.072 19.504L191.04 15H190L192.032 19.504H193.072Z" fill="white"/>
<path d="M191.072 19.504L189.04 15H188L190.032 19.504H191.072Z" fill="white"/>
<path d="M189.072 19.504L187.04 15H186L188.032 19.504H189.072Z" fill="white"/>
<path d="M187.072 19.504L185.04 15H184L186.032 19.504H187.072Z" fill="white"/>
<path d="M185.072 19.504L183.04 15H182L184.032 19.504H185.072Z" fill="white"/>
<path d="M183.072 19.504L181.04 15H180L182.032 19.504H183.072Z" fill="white"/>
<path d="M181.072 19.504L179.04 15H178L180.032 19.504H181.072Z" fill="white"/>
<path d="M179.072 19.504L177.04 15H176L178.032 19.504H179.072Z" fill="white"/>
<path d="M177.072 19.504L175.04 15H174L176.032 19.504H177.072Z" fill="white"/>
<path d="M175.072 19.504L173.04 15H172L174.032 19.504H175.072Z" fill="white"/>
<path d="M173.072 19.504L171.04 15H170L172.032 19.504H173.072Z" fill="white"/>
<path d="M171.072 19.504L169.04 15H168L170.032 19.504H171.072Z" fill="white"/>
<path d="M169.072 19.504L167.04 15H166L168.032 19.504H169.072Z" fill="white"/>
<path d="M167.072 19.504L165.04 15H164L166.032 19.504H167.072Z" fill="white"/>
<path d="M165.072 19.504L163.04 15H162L164.032 19.504H165.072Z" fill="white"/>
<path d="M163.072 19.504L161.04 15H160L162.032 19.504H163.072Z" fill="white"/>
<path d="M161.072 19.504L159.04 15H158L160.032 19.504H161.072Z" fill="white"/>
<path d="M159.072 19.504L157.04 15H156L158.032 19.504H159.072Z" fill="white"/>
<path d="M157.072 19.504L155.04 15H154L156.032 19.504H157.072Z" fill="white"/>
<path d="M155.072 19.504L153.04 15H152L154.032 19.504H155.072Z" fill="white"/>
<path d="M153.072 19.504L151.04 15H150L152.032 19.504H153.072Z" fill="white"/>
<path d="M151.072 19.504L149.04 15H148L150.032 19.504H151.072Z" fill="white"/>
<path d="M149.072 19.504L147.04 15H146L148.032 19.504H149.072Z" fill="white"/>
<path d="M147.072 19.504L145.04 15H144L146.032 19.504H147.072Z" fill="white"/>
<path d="M145.072 19.504L143.04 15H142L144.032 19.504H145.072Z" fill="white"/>
<path d="M143.072 19.504L141.04 15H140L142.032 19.504H143.072Z" fill="white"/>
<path d="M141.072 19.504L139.04 15H138L140.032 19.504H141.072Z" fill="white"/>
<path d="M139.072 19.504L137.04 15H136L138.032 19.504H139.072Z" fill="white"/>
<path d="M137.072 19.504L135.04 15H134L136.032 19.504H137.072Z" fill="white"/>
<path d="M135.072 19.504L133.04 15H132L134.032 19.504H135.072Z" fill="white"/>
<path d="M133.072 19.504L131.04 15H130L132.032 19.504H133.072Z" fill="white"/>
<path d="M131.072 19.504L129.04 15H128L130.032 19.504H131.072Z" fill="white"/>
<path d="M129.072 19.504L127.04 15H126L128.032 19.504H129.072Z" fill="white"/>
<path d="M127.072 19.504L125.04 15H124L126.032 19.504H127.072Z" fill="white"/>
<path d="M125.072 19.504L123.04 15H122L124.032 19.504H125.072Z" fill="white"/>
<path d="M123.072 19.504L121.04 15H120L122.032 19.504H123.072Z" fill="white"/>
<path d="M121.072 19.504L119.04 15H118L120.032 19.504H121.072Z" fill="white"/>
<path d="M119.072 19.504L117.04 15H116L118.032 19.504H119.072Z" fill="white"/>
<path d="M117.072 19.504L115.04 15H114L116.032 19.504H117.072Z" fill="white"/>
<path d="M115.072 19.504L113.04 15H112L114.032 19.504H115.072Z" fill="white"/>
<path d="M113.072 19.504L111.04 15H110L112.032 19.504H113.072Z" fill="white"/>
<path d="M111.072 19.504L109.04 15H108L110.032 19.504H111.072Z" fill="white"/>
<path d="M109.072 19.504L107.04 15H106L108.032 19.504H109.072Z" fill="white"/>
<path d="M107.072 19.504L105.04 15H104L106.032 19.504H107.072Z" fill="white"/>
<path d="M105.072 19.504L103.04 15H102L104.032 19.504H105.072Z" fill="white"/>
<path d="M103.072 19.504L101.04 15H100L102.032 19.504H103.072Z" fill="white"/>
<path d="M101.072 19.504L99.04 15H98L100.032 19.504H101.072Z" fill="white"/>
<path d="M99.072 19.504L97.04 15H96L98.032 19.504H99.072Z" fill="white"/>
<path d="M97.072 19.504L95.04 15H94L96.032 19.504H97.072Z" fill="white"/>
<path d="M95.072 19.504L93.04 15H92L94.032 19.504H95.072Z" fill="white"/>
<path d="M93.072 19.504L91.04 15H90L92.032 19.504H93.072Z" fill="white"/>
<path d="M91.072 19.504L89.04 15H88L90.032 19.504H91.072Z" fill="white"/>
<path d="M89.072 19.504L87.04 15H86L88.032 19.504H89.072Z" fill="white"/>
<path d="M87.072 19.504L85.04 15H84L86.032 19.504H87.072Z" fill="white"/>
<path d="M85.072 19.504L83.04 15H82L84.032 19.504H85.072Z" fill="white"/>
<path d="M83.072 19.504L81.04 15H80L82.032 19.504H83.072Z" fill="white"/>
<path d="M81.072 19.504L79.04 15H78L80.032 19.504H81.072Z" fill="white"/>
<path d="M79.072 19.504L77.04 15H76L78.032 19.504H79.072Z" fill="white"/>
<path d="M77.072 19.504L75.04 15H74L76.032 19.504H77.072Z" fill="white"/>
<path d="M75.072 19.504L73.04 15H72L74.032 19.504H75.072Z" fill="white"/>
<path d="M73.072 19.504L71.04 15H70L72.032 19.504H73.072Z" fill="white"/>
<path d="M71.072 19.504L69.04 15H68L70.032 19.504H71.072Z" fill="white"/>
<path d="M69.072 19.504L67.04 15H66L68.032 19.504H69.072Z" fill="white"/>
<path d="M67.072 19.504L65.04 15H64L66.032 19.504H67.072Z" fill="white"/>
<path d="M65.072 19.504L63.04 15H62L64.032 19.504H65.072Z" fill="white"/>
<path d="M63.072 19.504L61.04 15H60L62.032 19.504H63.072Z" fill="white"/>
<path d="M61.072 19.504L59.04 15H58L60.032 19.504H61.072Z" fill="white"/>
<path d="M59.072 19.504L57.04 15H56L58.032 19.504H59.072Z" fill="white"/>
<path d="M57.072 19.504L55.04 15H54L56.032 19.504H57.072Z" fill="white"/>
<path d="M55.072 19.504L53.04 15H52L54.032 19.504H55.072Z" fill="white"/>
<path d="M53.072 19.504L51.04 15H50L52.032 19.504H53.072Z" fill="white"/>
<path d="M51.072 19.504L49.04 15H48L50.032 19.504H51.072Z" fill="white"/>
<path d="M49.072 19.504L47.04 15H46L48.032 19.504H49.072Z" fill="white"/>
<path d="M47.072 19.504L45.04 15H44L46.032 19.504H47.072Z" fill="white"/>
<path d="M45.072 19.504L43.04 15H42L44.032 19.504H45.072Z" fill="white"/>
<path d="M43.072 19.504L41.04 15H40L42.032 19.504H43.072Z" fill="white"/>
<path d="M41.072 19.504L39.04 15H38L40.032 19.504H41.072Z" fill="white"/>
<path d="M39.072 19.504L37.04 15H36L38.032 19.504H39.072Z" fill="white"/>
<path d="M37.072 19.504L35.04 15H34L36.032 19.504H37.072Z" fill="white"/>
<path d="M35.072 19.504L33.04 15H32L34.032 19.504H35.072Z" fill="white"/>
<path d="M33.072 19.504L31.04 15H30L32.032 19.504H33.072Z" fill="white"/>
<path d="M31.072 19.504L29.04 15H28L30.032 19.504H31.072Z" fill="white"/>
<path d="M29.072 19.504L27.04 15H26L28.032 19.504H29.072Z" fill="white"/>
<path d="M27.072 19.504L25.04 15H24L26.032 19.504H27.072Z" fill="white"/>
<path d="M25.072 19.504L23.04 15H22L24.032 19.504H25.072Z" fill="white"/>
<path d="M23.072 19.504L21.04 15H20L22.032 19.504H23.072Z" fill="white"/>
<path d="M21.072 19.504L19.04 15H18L20.032 19.504H21.072Z" fill="white"/>
<path d="M19.072 19.504L17.04 15H16L18.032 19.504H19.072Z" fill="white"/>
<path d="M17.072 19.504L15.04 15H14L16.032 19.504H17.072Z" fill="white"/>
<path d="M15.072 19.504L13.04 15H12L14.032 19.504H15.072Z" fill="white"/>
<path d="M13.072 19.504L11.04 15H10L12.032 19.504H13.072Z" fill="white"/>
<path d="M11.072 19.504L9.04002 15H8.00002L10.032 19.504H11.072Z" fill="white"/>
<path d="M9.07202 19.504L7.04002 15H6.00002L8.03202 19.504H9.07202Z" fill="white"/>
<path d="M7.07202 19.504L5.04002 15H4.00002L6.03202 19.504H7.07202Z" fill="white"/>
<path d="M5.07202 19.504L3.04002 15H2.00002L4.03202 19.504H5.07202Z" fill="white"/>
<path d="M3.07202 19.504L1.04002 15H2.14577e-05L2.03202 19.504H3.07202Z" fill="white"/>
<path d="M257.072 29.504L255.04 25H254L256.032 29.504H257.072Z" fill="white"/>
<path d="M255.072 29.504L253.04 25H252L254.032 29.504H255.072Z" fill="white"/>
<path d="M253.072 29.504L251.04 25H250L252.032 29.504H253.072Z" fill="white"/>
<path d="M251.072 29.504L249.04 25H248L250.032 29.504H251.072Z" fill="white"/>
<path d="M249.072 29.504L247.04 25H246L248.032 29.504H249.072Z" fill="white"/>
<path d="M247.072 29.504L245.04 25H244L246.032 29.504H247.072Z" fill="white"/>
<path d="M245.072 29.504L243.04 25H242L244.032 29.504H245.072Z" fill="white"/>
<path d="M243.072 29.504L241.04 25H240L242.032 29.504H243.072Z" fill="white"/>
<path d="M241.072 29.504L239.04 25H238L240.032 29.504H241.072Z" fill="white"/>
<path d="M239.072 29.504L237.04 25H236L238.032 29.504H239.072Z" fill="white"/>
<path d="M237.072 29.504L235.04 25H234L236.032 29.504H237.072Z" fill="white"/>
<path d="M235.072 29.504L233.04 25H232L234.032 29.504H235.072Z" fill="white"/>
<path d="M233.072 29.504L231.04 25H230L232.032 29.504H233.072Z" fill="white"/>
<path d="M231.072 29.504L229.04 25H228L230.032 29.504H231.072Z" fill="white"/>
<path d="M229.072 29.504L227.04 25H226L228.032 29.504H229.072Z" fill="white"/>
<path d="M227.072 29.504L225.04 25H224L226.032 29.504H227.072Z" fill="white"/>
<path d="M225.072 29.504L223.04 25H222L224.032 29.504H225.072Z" fill="white"/>
<path d="M223.072 29.504L221.04 25H220L222.032 29.504H223.072Z" fill="white"/>
<path d="M221.072 29.504L219.04 25H218L220.032 29.504H221.072Z" fill="white"/>
<path d="M219.072 29.504L217.04 25H216L218.032 29.504H219.072Z" fill="white"/>
<path d="M217.072 29.504L215.04 25H214L216.032 29.504H217.072Z" fill="white"/>
<path d="M215.072 29.504L213.04 25H212L214.032 29.504H215.072Z" fill="white"/>
<path d="M213.072 29.504L211.04 25H210L212.032 29.504H213.072Z" fill="white"/>
<path d="M211.072 29.504L209.04 25H208L210.032 29.504H211.072Z" fill="white"/>
<path d="M209.072 29.504L207.04 25H206L208.032 29.504H209.072Z" fill="white"/>
<path d="M207.072 29.504L205.04 25H204L206.032 29.504H207.072Z" fill="white"/>
<path d="M205.072 29.504L203.04 25H202L204.032 29.504H205.072Z" fill="white"/>
<path d="M203.072 29.504L201.04 25H200L202.032 29.504H203.072Z" fill="white"/>
<path d="M201.072 29.504L199.04 25H198L200.032 29.504H201.072Z" fill="white"/>
<path d="M199.072 29.504L197.04 25H196L198.032 29.504H199.072Z" fill="white"/>
<path d="M197.072 29.504L195.04 25H194L196.032 29.504H197.072Z" fill="white"/>
<path d="M195.072 29.504L193.04 25H192L194.032 29.504H195.072Z" fill="white"/>
<path d="M193.072 29.504L191.04 25H190L192.032 29.504H193.072Z" fill="white"/>
<path d="M191.072 29.504L189.04 25H188L190.032 29.504H191.072Z" fill="white"/>
<path d="M189.072 29.504L187.04 25H186L188.032 29.504H189.072Z" fill="white"/>
<path d="M187.072 29.504L185.04 25H184L186.032 29.504H187.072Z" fill="white"/>
<path d="M185.072 29.504L183.04 25H182L184.032 29.504H185.072Z" fill="white"/>
<path d="M183.072 29.504L181.04 25H180L182.032 29.504H183.072Z" fill="white"/>
<path d="M181.072 29.504L179.04 25H178L180.032 29.504H181.072Z" fill="white"/>
<path d="M179.072 29.504L177.04 25H176L178.032 29.504H179.072Z" fill="white"/>
<path d="M177.072 29.504L175.04 25H174L176.032 29.504H177.072Z" fill="white"/>
<path d="M175.072 29.504L173.04 25H172L174.032 29.504H175.072Z" fill="white"/>
<path d="M173.072 29.504L171.04 25H170L172.032 29.504H173.072Z" fill="white"/>
<path d="M171.072 29.504L169.04 25H168L170.032 29.504H171.072Z" fill="white"/>
<path d="M169.072 29.504L167.04 25H166L168.032 29.504H169.072Z" fill="white"/>
<path d="M167.072 29.504L165.04 25H164L166.032 29.504H167.072Z" fill="white"/>
<path d="M165.072 29.504L163.04 25H162L164.032 29.504H165.072Z" fill="white"/>
<path d="M163.072 29.504L161.04 25H160L162.032 29.504H163.072Z" fill="white"/>
<path d="M161.072 29.504L159.04 25H158L160.032 29.504H161.072Z" fill="white"/>
<path d="M159.072 29.504L157.04 25H156L158.032 29.504H159.072Z" fill="white"/>
<path d="M157.072 29.504L155.04 25H154L156.032 29.504H157.072Z" fill="white"/>
<path d="M155.072 29.504L153.04 25H152L154.032 29.504H155.072Z" fill="white"/>
<path d="M153.072 29.504L151.04 25H150L152.032 29.504H153.072Z" fill="white"/>
<path d="M151.072 29.504L149.04 25H148L150.032 29.504H151.072Z" fill="white"/>
<path d="M149.072 29.504L147.04 25H146L148.032 29.504H149.072Z" fill="white"/>
<path d="M147.072 29.504L145.04 25H144L146.032 29.504H147.072Z" fill="white"/>
<path d="M145.072 29.504L143.04 25H142L144.032 29.504H145.072Z" fill="white"/>
<path d="M143.072 29.504L141.04 25H140L142.032 29.504H143.072Z" fill="white"/>
<path d="M141.072 29.504L139.04 25H138L140.032 29.504H141.072Z" fill="white"/>
<path d="M139.072 29.504L137.04 25H136L138.032 29.504H139.072Z" fill="white"/>
<path d="M137.072 29.504L135.04 25H134L136.032 29.504H137.072Z" fill="white"/>
<path d="M135.072 29.504L133.04 25H132L134.032 29.504H135.072Z" fill="white"/>
<path d="M133.072 29.504L131.04 25H130L132.032 29.504H133.072Z" fill="white"/>
<path d="M131.072 29.504L129.04 25H128L130.032 29.504H131.072Z" fill="white"/>
<path d="M129.072 29.504L127.04 25H126L128.032 29.504H129.072Z" fill="white"/>
<path d="M127.072 29.504L125.04 25H124L126.032 29.504H127.072Z" fill="white"/>
<path d="M125.072 29.504L123.04 25H122L124.032 29.504H125.072Z" fill="white"/>
<path d="M123.072 29.504L121.04 25H120L122.032 29.504H123.072Z" fill="white"/>
<path d="M121.072 29.504L119.04 25H118L120.032 29.504H121.072Z" fill="white"/>
<path d="M119.072 29.504L117.04 25H116L118.032 29.504H119.072Z" fill="white"/>
<path d="M117.072 29.504L115.04 25H114L116.032 29.504H117.072Z" fill="white"/>
<path d="M115.072 29.504L113.04 25H112L114.032 29.504H115.072Z" fill="white"/>
<path d="M113.072 29.504L111.04 25H110L112.032 29.504H113.072Z" fill="white"/>
<path d="M111.072 29.504L109.04 25H108L110.032 29.504H111.072Z" fill="white"/>
<path d="M109.072 29.504L107.04 25H106L108.032 29.504H109.072Z" fill="white"/>
<path d="M107.072 29.504L105.04 25H104L106.032 29.504H107.072Z" fill="white"/>
<path d="M105.072 29.504L103.04 25H102L104.032 29.504H105.072Z" fill="white"/>
<path d="M103.072 29.504L101.04 25H100L102.032 29.504H103.072Z" fill="white"/>
<path d="M101.072 29.504L99.04 25H98L100.032 29.504H101.072Z" fill="white"/>
<path d="M99.072 29.504L97.04 25H96L98.032 29.504H99.072Z" fill="white"/>
<path d="M97.072 29.504L95.04 25H94L96.032 29.504H97.072Z" fill="white"/>
<path d="M95.072 29.504L93.04 25H92L94.032 29.504H95.072Z" fill="white"/>
<path d="M93.072 29.504L91.04 25H90L92.032 29.504H93.072Z" fill="white"/>
<path d="M91.072 29.504L89.04 25H88L90.032 29.504H91.072Z" fill="white"/>
<path d="M89.072 29.504L87.04 25H86L88.032 29.504H89.072Z" fill="white"/>
<path d="M87.072 29.504L85.04 25H84L86.032 29.504H87.072Z" fill="white"/>
<path d="M85.072 29.504L83.04 25H82L84.032 29.504H85.072Z" fill="white"/>
<path d="M83.072 29.504L81.04 25H80L82.032 29.504H83.072Z" fill="white"/>
<path d="M81.072 29.504L79.04 25H78L80.032 29.504H81.072Z" fill="white"/>
<path d="M79.072 29.504L77.04 25H76L78.032 29.504H79.072Z" fill="white"/>
<path d="M77.072 29.504L75.04 25H74L76.032 29.504H77.072Z" fill="white"/>
<path d="M75.072 29.504L73.04 25H72L74.032 29.504H75.072Z" fill="white"/>
<path d="M73.072 29.504L71.04 25H70L72.032 29.504H73.072Z" fill="white"/>
<path d="M71.072 29.504L69.04 25H68L70.032 29.504H71.072Z" fill="white"/>
<path d="M69.072 29.504L67.04 25H66L68.032 29.504H69.072Z" fill="white"/>
<path d="M67.072 29.504L65.04 25H64L66.032 29.504H67.072Z" fill="white"/>
<path d="M65.072 29.504L63.04 25H62L64.032 29.504H65.072Z" fill="white"/>
<path d="M63.072 29.504L61.04 25H60L62.032 29.504H63.072Z" fill="white"/>
<path d="M61.072 29.504L59.04 25H58L60.032 29.504H61.072Z" fill="white"/>
<path d="M59.072 29.504L57.04 25H56L58.032 29.504H59.072Z" fill="white"/>
<path d="M57.072 29.504L55.04 25H54L56.032 29.504H57.072Z" fill="white"/>
<path d="M55.072 29.504L53.04 25H52L54.032 29.504H55.072Z" fill="white"/>
<path d="M53.072 29.504L51.04 25H50L52.032 29.504H53.072Z" fill="white"/>
<path d="M51.072 29.504L49.04 25H48L50.032 29.504H51.072Z" fill="white"/>
<path d="M49.072 29.504L47.04 25H46L48.032 29.504H49.072Z" fill="white"/>
<path d="M47.072 29.504L45.04 25H44L46.032 29.504H47.072Z" fill="white"/>
<path d="M45.072 29.504L43.04 25H42L44.032 29.504H45.072Z" fill="white"/>
<path d="M43.072 29.504L41.04 25H40L42.032 29.504H43.072Z" fill="white"/>
<path d="M41.072 29.504L39.04 25H38L40.032 29.504H41.072Z" fill="white"/>
<path d="M39.072 29.504L37.04 25H36L38.032 29.504H39.072Z" fill="white"/>
<path d="M37.072 29.504L35.04 25H34L36.032 29.504H37.072Z" fill="white"/>
<path d="M35.072 29.504L33.04 25H32L34.032 29.504H35.072Z" fill="white"/>
<path d="M33.072 29.504L31.04 25H30L32.032 29.504H33.072Z" fill="white"/>
<path d="M31.072 29.504L29.04 25H28L30.032 29.504H31.072Z" fill="white"/>
<path d="M29.072 29.504L27.04 25H26L28.032 29.504H29.072Z" fill="white"/>
<path d="M27.072 29.504L25.04 25H24L26.032 29.504H27.072Z" fill="white"/>
<path d="M25.072 29.504L23.04 25H22L24.032 29.504H25.072Z" fill="white"/>
<path d="M23.072 29.504L21.04 25H20L22.032 29.504H23.072Z" fill="white"/>
<path d="M21.072 29.504L19.04 25H18L20.032 29.504H21.072Z" fill="white"/>
<path d="M19.072 29.504L17.04 25H16L18.032 29.504H19.072Z" fill="white"/>
<path d="M17.072 29.504L15.04 25H14L16.032 29.504H17.072Z" fill="white"/>
<path d="M15.072 29.504L13.04 25H12L14.032 29.504H15.072Z" fill="white"/>
<path d="M13.072 29.504L11.04 25H10L12.032 29.504H13.072Z" fill="white"/>
<path d="M11.072 29.504L9.04002 25H8.00002L10.032 29.504H11.072Z" fill="white"/>
<path d="M9.07202 29.504L7.04002 25H6.00002L8.03202 29.504H9.07202Z" fill="white"/>
<path d="M7.07202 29.504L5.04002 25H4.00002L6.03202 29.504H7.07202Z" fill="white"/>
<path d="M5.07202 29.504L3.04002 25H2.00002L4.03202 29.504H5.07202Z" fill="white"/>
<path d="M3.07202 29.504L1.04002 25H2.14577e-05L2.03202 29.504H3.07202Z" fill="white"/>
<path d="M257.072 39.504L255.04 35H254L256.032 39.504H257.072Z" fill="white"/>
<path d="M255.072 39.504L253.04 35H252L254.032 39.504H255.072Z" fill="white"/>
<path d="M253.072 39.504L251.04 35H250L252.032 39.504H253.072Z" fill="white"/>
<path d="M251.072 39.504L249.04 35H248L250.032 39.504H251.072Z" fill="white"/>
<path d="M249.072 39.504L247.04 35H246L248.032 39.504H249.072Z" fill="white"/>
<path d="M247.072 39.504L245.04 35H244L246.032 39.504H247.072Z" fill="white"/>
<path d="M245.072 39.504L243.04 35H242L244.032 39.504H245.072Z" fill="white"/>
<path d="M243.072 39.504L241.04 35H240L242.032 39.504H243.072Z" fill="white"/>
<path d="M241.072 39.504L239.04 35H238L240.032 39.504H241.072Z" fill="white"/>
<path d="M239.072 39.504L237.04 35H236L238.032 39.504H239.072Z" fill="white"/>
<path d="M237.072 39.504L235.04 35H234L236.032 39.504H237.072Z" fill="white"/>
<path d="M235.072 39.504L233.04 35H232L234.032 39.504H235.072Z" fill="white"/>
<path d="M233.072 39.504L231.04 35H230L232.032 39.504H233.072Z" fill="white"/>
<path d="M231.072 39.504L229.04 35H228L230.032 39.504H231.072Z" fill="white"/>
<path d="M229.072 39.504L227.04 35H226L228.032 39.504H229.072Z" fill="white"/>
<path d="M227.072 39.504L225.04 35H224L226.032 39.504H227.072Z" fill="white"/>
<path d="M225.072 39.504L223.04 35H222L224.032 39.504H225.072Z" fill="white"/>
<path d="M223.072 39.504L221.04 35H220L222.032 39.504H223.072Z" fill="white"/>
<path d="M221.072 39.504L219.04 35H218L220.032 39.504H221.072Z" fill="white"/>
<path d="M219.072 39.504L217.04 35H216L218.032 39.504H219.072Z" fill="white"/>
<path d="M217.072 39.504L215.04 35H214L216.032 39.504H217.072Z" fill="white"/>
<path d="M215.072 39.504L213.04 35H212L214.032 39.504H215.072Z" fill="white"/>
<path d="M213.072 39.504L211.04 35H210L212.032 39.504H213.072Z" fill="white"/>
<path d="M211.072 39.504L209.04 35H208L210.032 39.504H211.072Z" fill="white"/>
<path d="M209.072 39.504L207.04 35H206L208.032 39.504H209.072Z" fill="white"/>
<path d="M207.072 39.504L205.04 35H204L206.032 39.504H207.072Z" fill="white"/>
<path d="M205.072 39.504L203.04 35H202L204.032 39.504H205.072Z" fill="white"/>
<path d="M203.072 39.504L201.04 35H200L202.032 39.504H203.072Z" fill="white"/>
<path d="M201.072 39.504L199.04 35H198L200.032 39.504H201.072Z" fill="white"/>
<path d="M199.072 39.504L197.04 35H196L198.032 39.504H199.072Z" fill="white"/>
<path d="M197.072 39.504L195.04 35H194L196.032 39.504H197.072Z" fill="white"/>
<path d="M195.072 39.504L193.04 35H192L194.032 39.504H195.072Z" fill="white"/>
<path d="M193.072 39.504L191.04 35H190L192.032 39.504H193.072Z" fill="white"/>
<path d="M191.072 39.504L189.04 35H188L190.032 39.504H191.072Z" fill="white"/>
<path d="M189.072 39.504L187.04 35H186L188.032 39.504H189.072Z" fill="white"/>
<path d="M187.072 39.504L185.04 35H184L186.032 39.504H187.072Z" fill="white"/>
<path d="M185.072 39.504L183.04 35H182L184.032 39.504H185.072Z" fill="white"/>
<path d="M183.072 39.504L181.04 35H180L182.032 39.504H183.072Z" fill="white"/>
<path d="M181.072 39.504L179.04 35H178L180.032 39.504H181.072Z" fill="white"/>
<path d="M179.072 39.504L177.04 35H176L178.032 39.504H179.072Z" fill="white"/>
<path d="M177.072 39.504L175.04 35H174L176.032 39.504H177.072Z" fill="white"/>
<path d="M175.072 39.504L173.04 35H172L174.032 39.504H175.072Z" fill="white"/>
<path d="M173.072 39.504L171.04 35H170L172.032 39.504H173.072Z" fill="white"/>
<path d="M171.072 39.504L169.04 35H168L170.032 39.504H171.072Z" fill="white"/>
<path d="M169.072 39.504L167.04 35H166L168.032 39.504H169.072Z" fill="white"/>
<path d="M167.072 39.504L165.04 35H164L166.032 39.504H167.072Z" fill="white"/>
<path d="M165.072 39.504L163.04 35H162L164.032 39.504H165.072Z" fill="white"/>
<path d="M163.072 39.504L161.04 35H160L162.032 39.504H163.072Z" fill="white"/>
<path d="M161.072 39.504L159.04 35H158L160.032 39.504H161.072Z" fill="white"/>
<path d="M159.072 39.504L157.04 35H156L158.032 39.504H159.072Z" fill="white"/>
<path d="M157.072 39.504L155.04 35H154L156.032 39.504H157.072Z" fill="white"/>
<path d="M155.072 39.504L153.04 35H152L154.032 39.504H155.072Z" fill="white"/>
<path d="M153.072 39.504L151.04 35H150L152.032 39.504H153.072Z" fill="white"/>
<path d="M151.072 39.504L149.04 35H148L150.032 39.504H151.072Z" fill="white"/>
<path d="M149.072 39.504L147.04 35H146L148.032 39.504H149.072Z" fill="white"/>
<path d="M147.072 39.504L145.04 35H144L146.032 39.504H147.072Z" fill="white"/>
<path d="M145.072 39.504L143.04 35H142L144.032 39.504H145.072Z" fill="white"/>
<path d="M143.072 39.504L141.04 35H140L142.032 39.504H143.072Z" fill="white"/>
<path d="M141.072 39.504L139.04 35H138L140.032 39.504H141.072Z" fill="white"/>
<path d="M139.072 39.504L137.04 35H136L138.032 39.504H139.072Z" fill="white"/>
<path d="M137.072 39.504L135.04 35H134L136.032 39.504H137.072Z" fill="white"/>
<path d="M135.072 39.504L133.04 35H132L134.032 39.504H135.072Z" fill="white"/>
<path d="M133.072 39.504L131.04 35H130L132.032 39.504H133.072Z" fill="white"/>
<path d="M131.072 39.504L129.04 35H128L130.032 39.504H131.072Z" fill="white"/>
<path d="M129.072 39.504L127.04 35H126L128.032 39.504H129.072Z" fill="white"/>
<path d="M127.072 39.504L125.04 35H124L126.032 39.504H127.072Z" fill="white"/>
<path d="M125.072 39.504L123.04 35H122L124.032 39.504H125.072Z" fill="white"/>
<path d="M123.072 39.504L121.04 35H120L122.032 39.504H123.072Z" fill="white"/>
<path d="M121.072 39.504L119.04 35H118L120.032 39.504H121.072Z" fill="white"/>
<path d="M119.072 39.504L117.04 35H116L118.032 39.504H119.072Z" fill="white"/>
<path d="M117.072 39.504L115.04 35H114L116.032 39.504H117.072Z" fill="white"/>
<path d="M115.072 39.504L113.04 35H112L114.032 39.504H115.072Z" fill="white"/>
<path d="M113.072 39.504L111.04 35H110L112.032 39.504H113.072Z" fill="white"/>
<path d="M111.072 39.504L109.04 35H108L110.032 39.504H111.072Z" fill="white"/>
<path d="M109.072 39.504L107.04 35H106L108.032 39.504H109.072Z" fill="white"/>
<path d="M107.072 39.504L105.04 35H104L106.032 39.504H107.072Z" fill="white"/>
<path d="M105.072 39.504L103.04 35H102L104.032 39.504H105.072Z" fill="white"/>
<path d="M103.072 39.504L101.04 35H100L102.032 39.504H103.072Z" fill="white"/>
<path d="M101.072 39.504L99.04 35H98L100.032 39.504H101.072Z" fill="white"/>
<path d="M99.072 39.504L97.04 35H96L98.032 39.504H99.072Z" fill="white"/>
<path d="M97.072 39.504L95.04 35H94L96.032 39.504H97.072Z" fill="white"/>
<path d="M95.072 39.504L93.04 35H92L94.032 39.504H95.072Z" fill="white"/>
<path d="M93.072 39.504L91.04 35H90L92.032 39.504H93.072Z" fill="white"/>
<path d="M91.072 39.504L89.04 35H88L90.032 39.504H91.072Z" fill="white"/>
<path d="M89.072 39.504L87.04 35H86L88.032 39.504H89.072Z" fill="white"/>
<path d="M87.072 39.504L85.04 35H84L86.032 39.504H87.072Z" fill="white"/>
<path d="M85.072 39.504L83.04 35H82L84.032 39.504H85.072Z" fill="white"/>
<path d="M83.072 39.504L81.04 35H80L82.032 39.504H83.072Z" fill="white"/>
<path d="M81.072 39.504L79.04 35H78L80.032 39.504H81.072Z" fill="white"/>
<path d="M79.072 39.504L77.04 35H76L78.032 39.504H79.072Z" fill="white"/>
<path d="M77.072 39.504L75.04 35H74L76.032 39.504H77.072Z" fill="white"/>
<path d="M75.072 39.504L73.04 35H72L74.032 39.504H75.072Z" fill="white"/>
<path d="M73.072 39.504L71.04 35H70L72.032 39.504H73.072Z" fill="white"/>
<path d="M71.072 39.504L69.04 35H68L70.032 39.504H71.072Z" fill="white"/>
<path d="M69.072 39.504L67.04 35H66L68.032 39.504H69.072Z" fill="white"/>
<path d="M67.072 39.504L65.04 35H64L66.032 39.504H67.072Z" fill="white"/>
<path d="M65.072 39.504L63.04 35H62L64.032 39.504H65.072Z" fill="white"/>
<path d="M63.072 39.504L61.04 35H60L62.032 39.504H63.072Z" fill="white"/>
<path d="M61.072 39.504L59.04 35H58L60.032 39.504H61.072Z" fill="white"/>
<path d="M59.072 39.504L57.04 35H56L58.032 39.504H59.072Z" fill="white"/>
<path d="M57.072 39.504L55.04 35H54L56.032 39.504H57.072Z" fill="white"/>
<path d="M55.072 39.504L53.04 35H52L54.032 39.504H55.072Z" fill="white"/>
<path d="M53.072 39.504L51.04 35H50L52.032 39.504H53.072Z" fill="white"/>
<path d="M51.072 39.504L49.04 35H48L50.032 39.504H51.072Z" fill="white"/>
<path d="M49.072 39.504L47.04 35H46L48.032 39.504H49.072Z" fill="white"/>
<path d="M47.072 39.504L45.04 35H44L46.032 39.504H47.072Z" fill="white"/>
<path d="M45.072 39.504L43.04 35H42L44.032 39.504H45.072Z" fill="white"/>
<path d="M43.072 39.504L41.04 35H40L42.032 39.504H43.072Z" fill="white"/>
<path d="M41.072 39.504L39.04 35H38L40.032 39.504H41.072Z" fill="white"/>
<path d="M39.072 39.504L37.04 35H36L38.032 39.504H39.072Z" fill="white"/>
<path d="M37.072 39.504L35.04 35H34L36.032 39.504H37.072Z" fill="white"/>
<path d="M35.072 39.504L33.04 35H32L34.032 39.504H35.072Z" fill="white"/>
<path d="M33.072 39.504L31.04 35H30L32.032 39.504H33.072Z" fill="white"/>
<path d="M31.072 39.504L29.04 35H28L30.032 39.504H31.072Z" fill="white"/>
<path d="M29.072 39.504L27.04 35H26L28.032 39.504H29.072Z" fill="white"/>
<path d="M27.072 39.504L25.04 35H24L26.032 39.504H27.072Z" fill="white"/>
<path d="M25.072 39.504L23.04 35H22L24.032 39.504H25.072Z" fill="white"/>
<path d="M23.072 39.504L21.04 35H20L22.032 39.504H23.072Z" fill="white"/>
<path d="M21.072 39.504L19.04 35H18L20.032 39.504H21.072Z" fill="white"/>
<path d="M19.072 39.504L17.04 35H16L18.032 39.504H19.072Z" fill="white"/>
<path d="M17.072 39.504L15.04 35H14L16.032 39.504H17.072Z" fill="white"/>
<path d="M15.072 39.504L13.04 35H12L14.032 39.504H15.072Z" fill="white"/>
<path d="M13.072 39.504L11.04 35H10L12.032 39.504H13.072Z" fill="white"/>
<path d="M11.072 39.504L9.04002 35H8.00002L10.032 39.504H11.072Z" fill="white"/>
<path d="M9.07202 39.504L7.04002 35H6.00002L8.03202 39.504H9.07202Z" fill="white"/>
<path d="M7.07202 39.504L5.04002 35H4.00002L6.03202 39.504H7.07202Z" fill="white"/>
<path d="M5.07202 39.504L3.04002 35H2.00002L4.03202 39.504H5.07202Z" fill="white"/>
<path d="M3.07202 39.504L1.04002 35H2.14577e-05L2.03202 39.504H3.07202Z" fill="white"/>
</svg>
