<svg width="345" height="40" viewBox="0 0 345 40" fill="none" xmlns="http://www.w3.org/2000/svg">
<path d="M0.0576172 4.504L2.7767 0H4.16835L1.44927 4.504H0.0576172Z" fill="white"/>
<path d="M2.73389 4.504L5.45297 0H6.84462L4.12554 4.504H2.73389Z" fill="white"/>
<path d="M5.41016 4.504L8.12924 0H9.52089L6.80181 4.504H5.41016Z" fill="white"/>
<path d="M8.0863 4.504L10.8054 0H12.197L9.47796 4.504H8.0863Z" fill="white"/>
<path d="M10.7626 4.504L13.4817 0H14.8733L12.1542 4.504H10.7626Z" fill="white"/>
<path d="M13.4388 4.504L16.1579 0H17.5496L14.8305 4.504H13.4388Z" fill="white"/>
<path d="M16.1151 4.504L18.8342 0H20.2258L17.5068 4.504H16.1151Z" fill="white"/>
<path d="M18.7914 4.504L21.5105 0H22.9021L20.183 4.504H18.7914Z" fill="white"/>
<path d="M21.4675 4.504L24.1866 0H25.5783L22.8592 4.504H21.4675Z" fill="white"/>
<path d="M24.1438 4.504L26.8629 0H28.2545L25.5355 4.504H24.1438Z" fill="white"/>
<path d="M26.8201 4.504L29.5391 0H30.9308L28.2117 4.504H26.8201Z" fill="white"/>
<path d="M29.4965 4.504L32.2155 0H33.6072L30.8881 4.504H29.4965Z" fill="white"/>
<path d="M32.1727 4.504L34.8918 0H36.2835L33.5644 4.504H32.1727Z" fill="white"/>
<path d="M34.849 4.504L37.5681 0H38.9597L36.2407 4.504H34.849Z" fill="white"/>
<path d="M37.5251 4.504L40.2442 0H41.6359L38.9168 4.504H37.5251Z" fill="white"/>
<path d="M40.2014 4.504L42.9205 0H44.3121L41.5931 4.504H40.2014Z" fill="white"/>
<path d="M42.8777 4.504L45.5968 0H46.9884L44.2693 4.504H42.8777Z" fill="white"/>
<path d="M45.554 4.504L48.273 0H49.6647L46.9456 4.504H45.554Z" fill="white"/>
<path d="M48.2302 4.504L50.9493 0H52.341L49.6219 4.504H48.2302Z" fill="white"/>
<path d="M50.9064 4.504L53.6255 0H55.0171L52.298 4.504H50.9064Z" fill="white"/>
<path d="M53.5826 4.504L56.3017 0H57.6934L54.9743 4.504H53.5826Z" fill="white"/>
<path d="M56.259 4.504L58.9781 0H60.3698L57.6507 4.504H56.259Z" fill="white"/>
<path d="M58.9353 4.504L61.6544 0H63.046L60.327 4.504H58.9353Z" fill="white"/>
<path d="M61.6116 4.504L64.3307 0H65.7223L63.0032 4.504H61.6116Z" fill="white"/>
<path d="M64.2878 4.504L67.0069 0H68.3986L65.6795 4.504H64.2878Z" fill="white"/>
<path d="M66.964 4.504L69.6831 0H71.0747L68.3556 4.504H66.964Z" fill="white"/>
<path d="M69.6403 4.504L72.3593 0H73.751L71.0319 4.504H69.6403Z" fill="white"/>
<path d="M72.3165 4.504L75.0356 0H76.4273L73.7082 4.504H72.3165Z" fill="white"/>
<path d="M74.9928 4.504L77.7119 0H79.1035L76.3845 4.504H74.9928Z" fill="white"/>
<path d="M77.6691 4.504L80.3881 0H81.7798L79.0607 4.504H77.6691Z" fill="white"/>
<path d="M80.3453 4.504L83.0644 0H84.4561L81.737 4.504H80.3453Z" fill="white"/>
<path d="M83.0215 4.504L85.7406 0H87.1322L84.4131 4.504H83.0215Z" fill="white"/>
<path d="M85.6979 4.504L88.417 0H89.8086L87.0895 4.504H85.6979Z" fill="white"/>
<path d="M88.3741 4.504L91.0932 0H92.4849L89.7658 4.504H88.3741Z" fill="white"/>
<path d="M91.0504 4.504L93.7695 0H95.1611L92.4421 4.504H91.0504Z" fill="white"/>
<path d="M93.7267 4.504L96.4458 0H97.8374L95.1183 4.504H93.7267Z" fill="white"/>
<path d="M96.4028 4.504L99.1219 0H100.514L97.7945 4.504H96.4028Z" fill="white"/>
<path d="M99.0791 4.504L101.798 0H103.19L100.471 4.504H99.0791Z" fill="white"/>
<path d="M101.755 4.504L104.474 0H105.866L103.147 4.504H101.755Z" fill="white"/>
<path d="M104.432 4.504L107.151 0H108.542L105.823 4.504H104.432Z" fill="white"/>
<path d="M107.108 4.504L109.827 0H111.219L108.5 4.504H107.108Z" fill="white"/>
<path d="M109.784 4.504L112.503 0H113.895L111.176 4.504H109.784Z" fill="white"/>
<path d="M112.46 4.504L115.18 0H116.571L113.852 4.504H112.46Z" fill="white"/>
<path d="M115.137 4.504L117.856 0H119.247L116.528 4.504H115.137Z" fill="white"/>
<path d="M117.813 4.504L120.532 0H121.923L119.204 4.504H117.813Z" fill="white"/>
<path d="M120.489 4.504L123.208 0H124.6L121.881 4.504H120.489Z" fill="white"/>
<path d="M123.165 4.504L125.884 0H127.276L124.557 4.504H123.165Z" fill="white"/>
<path d="M125.842 4.504L128.561 0H129.953L127.233 4.504H125.842Z" fill="white"/>
<path d="M128.518 4.504L131.237 0H132.629L129.91 4.504H128.518Z" fill="white"/>
<path d="M131.194 4.504L133.913 0H135.305L132.586 4.504H131.194Z" fill="white"/>
<path d="M133.871 4.504L136.59 0H137.981L135.262 4.504H133.871Z" fill="white"/>
<path d="M136.547 4.504L139.266 0H140.657L137.938 4.504H136.547Z" fill="white"/>
<path d="M139.223 4.504L141.942 0H143.334L140.615 4.504H139.223Z" fill="white"/>
<path d="M141.899 4.504L144.618 0H146.01L143.291 4.504H141.899Z" fill="white"/>
<path d="M144.576 4.504L147.295 0H148.686L145.967 4.504H144.576Z" fill="white"/>
<path d="M147.252 4.504L149.971 0H151.362L148.643 4.504H147.252Z" fill="white"/>
<path d="M149.928 4.504L152.647 0H154.039L151.32 4.504H149.928Z" fill="white"/>
<path d="M152.604 4.504L155.323 0H156.715L153.996 4.504H152.604Z" fill="white"/>
<path d="M155.281 4.504L158 0H159.391L156.672 4.504H155.281Z" fill="white"/>
<path d="M157.957 4.504L160.676 0H162.068L159.349 4.504H157.957Z" fill="white"/>
<path d="M160.633 4.504L163.352 0H164.744L162.025 4.504H160.633Z" fill="white"/>
<path d="M163.309 4.504L166.028 0H167.42L164.701 4.504H163.309Z" fill="white"/>
<path d="M165.986 4.504L168.705 0H170.096L167.377 4.504H165.986Z" fill="white"/>
<path d="M168.662 4.504L171.381 0H172.773L170.054 4.504H168.662Z" fill="white"/>
<path d="M171.338 4.504L174.057 0H175.449L172.73 4.504H171.338Z" fill="white"/>
<path d="M174.014 4.504L176.733 0H178.125L175.406 4.504H174.014Z" fill="white"/>
<path d="M176.691 4.504L179.41 0H180.801L178.082 4.504H176.691Z" fill="white"/>
<path d="M179.367 4.504L182.086 0H183.478L180.759 4.504H179.367Z" fill="white"/>
<path d="M182.043 4.504L184.762 0H186.154L183.435 4.504H182.043Z" fill="white"/>
<path d="M184.719 4.504L187.439 0H188.83L186.111 4.504H184.719Z" fill="white"/>
<path d="M187.396 4.504L190.115 0H191.506L188.787 4.504H187.396Z" fill="white"/>
<path d="M190.072 4.504L192.791 0H194.183L191.464 4.504H190.072Z" fill="white"/>
<path d="M192.748 4.504L195.467 0H196.859L194.14 4.504H192.748Z" fill="white"/>
<path d="M195.424 4.504L198.143 0H199.535L196.816 4.504H195.424Z" fill="white"/>
<path d="M198.101 4.504L200.82 0H202.212L199.492 4.504H198.101Z" fill="white"/>
<path d="M200.777 4.504L203.496 0H204.888L202.169 4.504H200.777Z" fill="white"/>
<path d="M203.453 4.504L206.172 0H207.564L204.845 4.504H203.453Z" fill="white"/>
<path d="M206.129 4.504L208.848 0H210.24L207.521 4.504H206.129Z" fill="white"/>
<path d="M208.806 4.504L211.525 0H212.916L210.197 4.504H208.806Z" fill="white"/>
<path d="M211.482 4.504L214.201 0H215.593L212.874 4.504H211.482Z" fill="white"/>
<path d="M214.158 4.504L216.877 0H218.269L215.55 4.504H214.158Z" fill="white"/>
<path d="M216.835 4.504L219.554 0H220.945L218.226 4.504H216.835Z" fill="white"/>
<path d="M219.511 4.504L222.23 0H223.621L220.902 4.504H219.511Z" fill="white"/>
<path d="M222.187 4.504L224.906 0H226.298L223.579 4.504H222.187Z" fill="white"/>
<path d="M224.863 4.504L227.582 0H228.974L226.255 4.504H224.863Z" fill="white"/>
<path d="M227.54 4.504L230.259 0H231.65L228.931 4.504H227.54Z" fill="white"/>
<path d="M230.216 4.504L232.935 0H234.327L231.607 4.504H230.216Z" fill="white"/>
<path d="M232.892 4.504L235.611 0H237.003L234.284 4.504H232.892Z" fill="white"/>
<path d="M235.568 4.504L238.287 0H239.679L236.96 4.504H235.568Z" fill="white"/>
<path d="M238.245 4.504L240.964 0H242.355L239.636 4.504H238.245Z" fill="white"/>
<path d="M240.921 4.504L243.64 0H245.032L242.313 4.504H240.921Z" fill="white"/>
<path d="M243.597 4.504L246.316 0H247.708L244.989 4.504H243.597Z" fill="white"/>
<path d="M246.273 4.504L248.993 0H250.384L247.665 4.504H246.273Z" fill="white"/>
<path d="M248.95 4.504L251.669 0H253.06L250.341 4.504H248.95Z" fill="white"/>
<path d="M251.626 4.504L254.345 0H255.737L253.018 4.504H251.626Z" fill="white"/>
<path d="M254.302 4.504L257.021 0H258.413L255.694 4.504H254.302Z" fill="white"/>
<path d="M256.979 4.504L259.698 0H261.089L258.37 4.504H256.979Z" fill="white"/>
<path d="M259.655 4.504L262.374 0H263.765L261.046 4.504H259.655Z" fill="white"/>
<path d="M262.331 4.504L265.05 0H266.442L263.723 4.504H262.331Z" fill="white"/>
<path d="M265.007 4.504L267.726 0H269.118L266.399 4.504H265.007Z" fill="white"/>
<path d="M267.684 4.504L270.403 0H271.794L269.075 4.504H267.684Z" fill="white"/>
<path d="M270.36 4.504L273.079 0H274.471L271.752 4.504H270.36Z" fill="white"/>
<path d="M273.036 4.504L275.755 0H277.147L274.428 4.504H273.036Z" fill="white"/>
<path d="M275.712 4.504L278.431 0H279.823L277.104 4.504H275.712Z" fill="white"/>
<path d="M278.388 4.504L281.108 0H282.499L279.78 4.504H278.388Z" fill="white"/>
<path d="M281.065 4.504L283.784 0H285.175L282.456 4.504H281.065Z" fill="white"/>
<path d="M283.741 4.504L286.46 0H287.852L285.133 4.504H283.741Z" fill="white"/>
<path d="M286.417 4.504L289.136 0H290.528L287.809 4.504H286.417Z" fill="white"/>
<path d="M289.094 4.504L291.813 0H293.204L290.485 4.504H289.094Z" fill="white"/>
<path d="M291.77 4.504L294.489 0H295.881L293.161 4.504H291.77Z" fill="white"/>
<path d="M294.446 4.504L297.165 0H298.557L295.838 4.504H294.446Z" fill="white"/>
<path d="M297.122 4.504L299.841 0H301.233L298.514 4.504H297.122Z" fill="white"/>
<path d="M299.798 4.504L302.517 0H303.909L301.19 4.504H299.798Z" fill="white"/>
<path d="M302.475 4.504L305.194 0H306.586L303.867 4.504H302.475Z" fill="white"/>
<path d="M305.151 4.504L307.87 0H309.262L306.543 4.504H305.151Z" fill="white"/>
<path d="M307.827 4.504L310.546 0H311.938L309.219 4.504H307.827Z" fill="white"/>
<path d="M310.504 4.504L313.223 0H314.614L311.895 4.504H310.504Z" fill="white"/>
<path d="M313.18 4.504L315.899 0H317.291L314.572 4.504H313.18Z" fill="white"/>
<path d="M315.856 4.504L318.575 0H319.967L317.248 4.504H315.856Z" fill="white"/>
<path d="M318.532 4.504L321.251 0H322.643L319.924 4.504H318.532Z" fill="white"/>
<path d="M321.209 4.504L323.928 0H325.319L322.6 4.504H321.209Z" fill="white"/>
<path d="M323.885 4.504L326.604 0H327.995L325.276 4.504H323.885Z" fill="white"/>
<path d="M326.561 4.504L329.28 0H330.672L327.953 4.504H326.561Z" fill="white"/>
<path d="M329.237 4.504L331.956 0H333.348L330.629 4.504H329.237Z" fill="white"/>
<path d="M331.914 4.504L334.633 0H336.024L333.305 4.504H331.914Z" fill="white"/>
<path d="M334.59 4.504L337.309 0H338.701L335.982 4.504H334.59Z" fill="white"/>
<path d="M337.266 4.504L339.985 0H341.377L338.658 4.504H337.266Z" fill="white"/>
<path d="M339.943 4.504L342.662 0H344.053L341.334 4.504H339.943Z" fill="white"/>
<path d="M0.0576172 14.504L2.7767 10H4.16835L1.44927 14.504H0.0576172Z" fill="white"/>
<path d="M2.73389 14.504L5.45297 10H6.84462L4.12554 14.504H2.73389Z" fill="white"/>
<path d="M5.41016 14.504L8.12924 10H9.52089L6.80181 14.504H5.41016Z" fill="white"/>
<path d="M8.0863 14.504L10.8054 10H12.197L9.47796 14.504H8.0863Z" fill="white"/>
<path d="M10.7626 14.504L13.4817 10H14.8733L12.1542 14.504H10.7626Z" fill="white"/>
<path d="M13.4388 14.504L16.1579 10H17.5496L14.8305 14.504H13.4388Z" fill="white"/>
<path d="M16.1151 14.504L18.8342 10H20.2258L17.5068 14.504H16.1151Z" fill="white"/>
<path d="M18.7914 14.504L21.5105 10H22.9021L20.183 14.504H18.7914Z" fill="white"/>
<path d="M21.4675 14.504L24.1866 10H25.5783L22.8592 14.504H21.4675Z" fill="white"/>
<path d="M24.1438 14.504L26.8629 10H28.2545L25.5355 14.504H24.1438Z" fill="white"/>
<path d="M26.8201 14.504L29.5391 10H30.9308L28.2117 14.504H26.8201Z" fill="white"/>
<path d="M29.4965 14.504L32.2155 10H33.6072L30.8881 14.504H29.4965Z" fill="white"/>
<path d="M32.1727 14.504L34.8918 10H36.2835L33.5644 14.504H32.1727Z" fill="white"/>
<path d="M34.849 14.504L37.5681 10H38.9597L36.2407 14.504H34.849Z" fill="white"/>
<path d="M37.5251 14.504L40.2442 10H41.6359L38.9168 14.504H37.5251Z" fill="white"/>
<path d="M40.2014 14.504L42.9205 10H44.3121L41.5931 14.504H40.2014Z" fill="white"/>
<path d="M42.8777 14.504L45.5968 10H46.9884L44.2693 14.504H42.8777Z" fill="white"/>
<path d="M45.554 14.504L48.273 10H49.6647L46.9456 14.504H45.554Z" fill="white"/>
<path d="M48.2302 14.504L50.9493 10H52.341L49.6219 14.504H48.2302Z" fill="white"/>
<path d="M50.9064 14.504L53.6255 10H55.0171L52.298 14.504H50.9064Z" fill="white"/>
<path d="M53.5826 14.504L56.3017 10H57.6934L54.9743 14.504H53.5826Z" fill="white"/>
<path d="M56.259 14.504L58.9781 10H60.3698L57.6507 14.504H56.259Z" fill="white"/>
<path d="M58.9353 14.504L61.6544 10H63.046L60.327 14.504H58.9353Z" fill="white"/>
<path d="M61.6116 14.504L64.3307 10H65.7223L63.0032 14.504H61.6116Z" fill="white"/>
<path d="M64.2878 14.504L67.0069 10H68.3986L65.6795 14.504H64.2878Z" fill="white"/>
<path d="M66.964 14.504L69.6831 10H71.0747L68.3556 14.504H66.964Z" fill="white"/>
<path d="M69.6403 14.504L72.3593 10H73.751L71.0319 14.504H69.6403Z" fill="white"/>
<path d="M72.3165 14.504L75.0356 10H76.4273L73.7082 14.504H72.3165Z" fill="white"/>
<path d="M74.9928 14.504L77.7119 10H79.1035L76.3845 14.504H74.9928Z" fill="white"/>
<path d="M77.6691 14.504L80.3881 10H81.7798L79.0607 14.504H77.6691Z" fill="white"/>
<path d="M80.3453 14.504L83.0644 10H84.4561L81.737 14.504H80.3453Z" fill="white"/>
<path d="M83.0215 14.504L85.7406 10H87.1322L84.4131 14.504H83.0215Z" fill="white"/>
<path d="M85.6979 14.504L88.417 10H89.8086L87.0895 14.504H85.6979Z" fill="white"/>
<path d="M88.3741 14.504L91.0932 10H92.4849L89.7658 14.504H88.3741Z" fill="white"/>
<path d="M91.0504 14.504L93.7695 10H95.1611L92.4421 14.504H91.0504Z" fill="white"/>
<path d="M93.7267 14.504L96.4458 10H97.8374L95.1183 14.504H93.7267Z" fill="white"/>
<path d="M96.4028 14.504L99.1219 10H100.514L97.7945 14.504H96.4028Z" fill="white"/>
<path d="M99.0791 14.504L101.798 10H103.19L100.471 14.504H99.0791Z" fill="white"/>
<path d="M101.755 14.504L104.474 10H105.866L103.147 14.504H101.755Z" fill="white"/>
<path d="M104.432 14.504L107.151 10H108.542L105.823 14.504H104.432Z" fill="white"/>
<path d="M107.108 14.504L109.827 10H111.219L108.5 14.504H107.108Z" fill="white"/>
<path d="M109.784 14.504L112.503 10H113.895L111.176 14.504H109.784Z" fill="white"/>
<path d="M112.46 14.504L115.18 10H116.571L113.852 14.504H112.46Z" fill="white"/>
<path d="M115.137 14.504L117.856 10H119.247L116.528 14.504H115.137Z" fill="white"/>
<path d="M117.813 14.504L120.532 10H121.923L119.204 14.504H117.813Z" fill="white"/>
<path d="M120.489 14.504L123.208 10H124.6L121.881 14.504H120.489Z" fill="white"/>
<path d="M123.165 14.504L125.884 10H127.276L124.557 14.504H123.165Z" fill="white"/>
<path d="M125.842 14.504L128.561 10H129.953L127.233 14.504H125.842Z" fill="white"/>
<path d="M128.518 14.504L131.237 10H132.629L129.91 14.504H128.518Z" fill="white"/>
<path d="M131.194 14.504L133.913 10H135.305L132.586 14.504H131.194Z" fill="white"/>
<path d="M133.871 14.504L136.59 10H137.981L135.262 14.504H133.871Z" fill="white"/>
<path d="M136.547 14.504L139.266 10H140.657L137.938 14.504H136.547Z" fill="white"/>
<path d="M139.223 14.504L141.942 10H143.334L140.615 14.504H139.223Z" fill="white"/>
<path d="M141.899 14.504L144.618 10H146.01L143.291 14.504H141.899Z" fill="white"/>
<path d="M144.576 14.504L147.295 10H148.686L145.967 14.504H144.576Z" fill="white"/>
<path d="M147.252 14.504L149.971 10H151.362L148.643 14.504H147.252Z" fill="white"/>
<path d="M149.928 14.504L152.647 10H154.039L151.32 14.504H149.928Z" fill="white"/>
<path d="M152.604 14.504L155.323 10H156.715L153.996 14.504H152.604Z" fill="white"/>
<path d="M155.281 14.504L158 10H159.391L156.672 14.504H155.281Z" fill="white"/>
<path d="M157.957 14.504L160.676 10H162.068L159.349 14.504H157.957Z" fill="white"/>
<path d="M160.633 14.504L163.352 10H164.744L162.025 14.504H160.633Z" fill="white"/>
<path d="M163.309 14.504L166.028 10H167.42L164.701 14.504H163.309Z" fill="white"/>
<path d="M165.986 14.504L168.705 10H170.096L167.377 14.504H165.986Z" fill="white"/>
<path d="M168.662 14.504L171.381 10H172.773L170.054 14.504H168.662Z" fill="white"/>
<path d="M171.338 14.504L174.057 10H175.449L172.73 14.504H171.338Z" fill="white"/>
<path d="M174.014 14.504L176.733 10H178.125L175.406 14.504H174.014Z" fill="white"/>
<path d="M176.691 14.504L179.41 10H180.801L178.082 14.504H176.691Z" fill="white"/>
<path d="M179.367 14.504L182.086 10H183.478L180.759 14.504H179.367Z" fill="white"/>
<path d="M182.043 14.504L184.762 10H186.154L183.435 14.504H182.043Z" fill="white"/>
<path d="M184.719 14.504L187.439 10H188.83L186.111 14.504H184.719Z" fill="white"/>
<path d="M187.396 14.504L190.115 10H191.506L188.787 14.504H187.396Z" fill="white"/>
<path d="M190.072 14.504L192.791 10H194.183L191.464 14.504H190.072Z" fill="white"/>
<path d="M192.748 14.504L195.467 10H196.859L194.14 14.504H192.748Z" fill="white"/>
<path d="M195.424 14.504L198.143 10H199.535L196.816 14.504H195.424Z" fill="white"/>
<path d="M198.101 14.504L200.82 10H202.212L199.492 14.504H198.101Z" fill="white"/>
<path d="M200.777 14.504L203.496 10H204.888L202.169 14.504H200.777Z" fill="white"/>
<path d="M203.453 14.504L206.172 10H207.564L204.845 14.504H203.453Z" fill="white"/>
<path d="M206.129 14.504L208.848 10H210.24L207.521 14.504H206.129Z" fill="white"/>
<path d="M208.806 14.504L211.525 10H212.916L210.197 14.504H208.806Z" fill="white"/>
<path d="M211.482 14.504L214.201 10H215.593L212.874 14.504H211.482Z" fill="white"/>
<path d="M214.158 14.504L216.877 10H218.269L215.55 14.504H214.158Z" fill="white"/>
<path d="M216.835 14.504L219.554 10H220.945L218.226 14.504H216.835Z" fill="white"/>
<path d="M219.511 14.504L222.23 10H223.621L220.902 14.504H219.511Z" fill="white"/>
<path d="M222.187 14.504L224.906 10H226.298L223.579 14.504H222.187Z" fill="white"/>
<path d="M224.863 14.504L227.582 10H228.974L226.255 14.504H224.863Z" fill="white"/>
<path d="M227.54 14.504L230.259 10H231.65L228.931 14.504H227.54Z" fill="white"/>
<path d="M230.216 14.504L232.935 10H234.327L231.607 14.504H230.216Z" fill="white"/>
<path d="M232.892 14.504L235.611 10H237.003L234.284 14.504H232.892Z" fill="white"/>
<path d="M235.568 14.504L238.287 10H239.679L236.96 14.504H235.568Z" fill="white"/>
<path d="M238.245 14.504L240.964 10H242.355L239.636 14.504H238.245Z" fill="white"/>
<path d="M240.921 14.504L243.64 10H245.032L242.313 14.504H240.921Z" fill="white"/>
<path d="M243.597 14.504L246.316 10H247.708L244.989 14.504H243.597Z" fill="white"/>
<path d="M246.273 14.504L248.993 10H250.384L247.665 14.504H246.273Z" fill="white"/>
<path d="M248.95 14.504L251.669 10H253.06L250.341 14.504H248.95Z" fill="white"/>
<path d="M251.626 14.504L254.345 10H255.737L253.018 14.504H251.626Z" fill="white"/>
<path d="M254.302 14.504L257.021 10H258.413L255.694 14.504H254.302Z" fill="white"/>
<path d="M256.979 14.504L259.698 10H261.089L258.37 14.504H256.979Z" fill="white"/>
<path d="M259.655 14.504L262.374 10H263.765L261.046 14.504H259.655Z" fill="white"/>
<path d="M262.331 14.504L265.05 10H266.442L263.723 14.504H262.331Z" fill="white"/>
<path d="M265.007 14.504L267.726 10H269.118L266.399 14.504H265.007Z" fill="white"/>
<path d="M267.684 14.504L270.403 10H271.794L269.075 14.504H267.684Z" fill="white"/>
<path d="M270.36 14.504L273.079 10H274.471L271.752 14.504H270.36Z" fill="white"/>
<path d="M273.036 14.504L275.755 10H277.147L274.428 14.504H273.036Z" fill="white"/>
<path d="M275.712 14.504L278.431 10H279.823L277.104 14.504H275.712Z" fill="white"/>
<path d="M278.388 14.504L281.108 10H282.499L279.78 14.504H278.388Z" fill="white"/>
<path d="M281.065 14.504L283.784 10H285.175L282.456 14.504H281.065Z" fill="white"/>
<path d="M283.741 14.504L286.46 10H287.852L285.133 14.504H283.741Z" fill="white"/>
<path d="M286.417 14.504L289.136 10H290.528L287.809 14.504H286.417Z" fill="white"/>
<path d="M289.094 14.504L291.813 10H293.204L290.485 14.504H289.094Z" fill="white"/>
<path d="M291.77 14.504L294.489 10H295.881L293.161 14.504H291.77Z" fill="white"/>
<path d="M294.446 14.504L297.165 10H298.557L295.838 14.504H294.446Z" fill="white"/>
<path d="M297.122 14.504L299.841 10H301.233L298.514 14.504H297.122Z" fill="white"/>
<path d="M299.798 14.504L302.517 10H303.909L301.19 14.504H299.798Z" fill="white"/>
<path d="M302.475 14.504L305.194 10H306.586L303.867 14.504H302.475Z" fill="white"/>
<path d="M305.151 14.504L307.87 10H309.262L306.543 14.504H305.151Z" fill="white"/>
<path d="M307.827 14.504L310.546 10H311.938L309.219 14.504H307.827Z" fill="white"/>
<path d="M310.504 14.504L313.223 10H314.614L311.895 14.504H310.504Z" fill="white"/>
<path d="M313.18 14.504L315.899 10H317.291L314.572 14.504H313.18Z" fill="white"/>
<path d="M315.856 14.504L318.575 10H319.967L317.248 14.504H315.856Z" fill="white"/>
<path d="M318.532 14.504L321.251 10H322.643L319.924 14.504H318.532Z" fill="white"/>
<path d="M321.209 14.504L323.928 10H325.319L322.6 14.504H321.209Z" fill="white"/>
<path d="M323.885 14.504L326.604 10H327.995L325.276 14.504H323.885Z" fill="white"/>
<path d="M326.561 14.504L329.28 10H330.672L327.953 14.504H326.561Z" fill="white"/>
<path d="M329.237 14.504L331.956 10H333.348L330.629 14.504H329.237Z" fill="white"/>
<path d="M331.914 14.504L334.633 10H336.024L333.305 14.504H331.914Z" fill="white"/>
<path d="M334.59 14.504L337.309 10H338.701L335.982 14.504H334.59Z" fill="white"/>
<path d="M337.266 14.504L339.985 10H341.377L338.658 14.504H337.266Z" fill="white"/>
<path d="M339.943 14.504L342.662 10H344.053L341.334 14.504H339.943Z" fill="white"/>
<path d="M0.0576172 24.504L2.7767 20H4.16835L1.44927 24.504H0.0576172Z" fill="white"/>
<path d="M2.73389 24.504L5.45297 20H6.84462L4.12554 24.504H2.73389Z" fill="white"/>
<path d="M5.41016 24.504L8.12924 20H9.52089L6.80181 24.504H5.41016Z" fill="white"/>
<path d="M8.0863 24.504L10.8054 20H12.197L9.47796 24.504H8.0863Z" fill="white"/>
<path d="M10.7626 24.504L13.4817 20H14.8733L12.1542 24.504H10.7626Z" fill="white"/>
<path d="M13.4388 24.504L16.1579 20H17.5496L14.8305 24.504H13.4388Z" fill="white"/>
<path d="M16.1151 24.504L18.8342 20H20.2258L17.5068 24.504H16.1151Z" fill="white"/>
<path d="M18.7914 24.504L21.5105 20H22.9021L20.183 24.504H18.7914Z" fill="white"/>
<path d="M21.4675 24.504L24.1866 20H25.5783L22.8592 24.504H21.4675Z" fill="white"/>
<path d="M24.1438 24.504L26.8629 20H28.2545L25.5355 24.504H24.1438Z" fill="white"/>
<path d="M26.8201 24.504L29.5391 20H30.9308L28.2117 24.504H26.8201Z" fill="white"/>
<path d="M29.4965 24.504L32.2155 20H33.6072L30.8881 24.504H29.4965Z" fill="white"/>
<path d="M32.1727 24.504L34.8918 20H36.2835L33.5644 24.504H32.1727Z" fill="white"/>
<path d="M34.849 24.504L37.5681 20H38.9597L36.2407 24.504H34.849Z" fill="white"/>
<path d="M37.5251 24.504L40.2442 20H41.6359L38.9168 24.504H37.5251Z" fill="white"/>
<path d="M40.2014 24.504L42.9205 20H44.3121L41.5931 24.504H40.2014Z" fill="white"/>
<path d="M42.8777 24.504L45.5968 20H46.9884L44.2693 24.504H42.8777Z" fill="white"/>
<path d="M45.554 24.504L48.273 20H49.6647L46.9456 24.504H45.554Z" fill="white"/>
<path d="M48.2302 24.504L50.9493 20H52.341L49.6219 24.504H48.2302Z" fill="white"/>
<path d="M50.9064 24.504L53.6255 20H55.0171L52.298 24.504H50.9064Z" fill="white"/>
<path d="M53.5826 24.504L56.3017 20H57.6934L54.9743 24.504H53.5826Z" fill="white"/>
<path d="M56.259 24.504L58.9781 20H60.3698L57.6507 24.504H56.259Z" fill="white"/>
<path d="M58.9353 24.504L61.6544 20H63.046L60.327 24.504H58.9353Z" fill="white"/>
<path d="M61.6116 24.504L64.3307 20H65.7223L63.0032 24.504H61.6116Z" fill="white"/>
<path d="M64.2878 24.504L67.0069 20H68.3986L65.6795 24.504H64.2878Z" fill="white"/>
<path d="M66.964 24.504L69.6831 20H71.0747L68.3556 24.504H66.964Z" fill="white"/>
<path d="M69.6403 24.504L72.3593 20H73.751L71.0319 24.504H69.6403Z" fill="white"/>
<path d="M72.3165 24.504L75.0356 20H76.4273L73.7082 24.504H72.3165Z" fill="white"/>
<path d="M74.9928 24.504L77.7119 20H79.1035L76.3845 24.504H74.9928Z" fill="white"/>
<path d="M77.6691 24.504L80.3881 20H81.7798L79.0607 24.504H77.6691Z" fill="white"/>
<path d="M80.3453 24.504L83.0644 20H84.4561L81.737 24.504H80.3453Z" fill="white"/>
<path d="M83.0215 24.504L85.7406 20H87.1322L84.4131 24.504H83.0215Z" fill="white"/>
<path d="M85.6979 24.504L88.417 20H89.8086L87.0895 24.504H85.6979Z" fill="white"/>
<path d="M88.3741 24.504L91.0932 20H92.4849L89.7658 24.504H88.3741Z" fill="white"/>
<path d="M91.0504 24.504L93.7695 20H95.1611L92.4421 24.504H91.0504Z" fill="white"/>
<path d="M93.7267 24.504L96.4458 20H97.8374L95.1183 24.504H93.7267Z" fill="white"/>
<path d="M96.4028 24.504L99.1219 20H100.514L97.7945 24.504H96.4028Z" fill="white"/>
<path d="M99.0791 24.504L101.798 20H103.19L100.471 24.504H99.0791Z" fill="white"/>
<path d="M101.755 24.504L104.474 20H105.866L103.147 24.504H101.755Z" fill="white"/>
<path d="M104.432 24.504L107.151 20H108.542L105.823 24.504H104.432Z" fill="white"/>
<path d="M107.108 24.504L109.827 20H111.219L108.5 24.504H107.108Z" fill="white"/>
<path d="M109.784 24.504L112.503 20H113.895L111.176 24.504H109.784Z" fill="white"/>
<path d="M112.46 24.504L115.18 20H116.571L113.852 24.504H112.46Z" fill="white"/>
<path d="M115.137 24.504L117.856 20H119.247L116.528 24.504H115.137Z" fill="white"/>
<path d="M117.813 24.504L120.532 20H121.923L119.204 24.504H117.813Z" fill="white"/>
<path d="M120.489 24.504L123.208 20H124.6L121.881 24.504H120.489Z" fill="white"/>
<path d="M123.165 24.504L125.884 20H127.276L124.557 24.504H123.165Z" fill="white"/>
<path d="M125.842 24.504L128.561 20H129.953L127.233 24.504H125.842Z" fill="white"/>
<path d="M128.518 24.504L131.237 20H132.629L129.91 24.504H128.518Z" fill="white"/>
<path d="M131.194 24.504L133.913 20H135.305L132.586 24.504H131.194Z" fill="white"/>
<path d="M133.871 24.504L136.59 20H137.981L135.262 24.504H133.871Z" fill="white"/>
<path d="M136.547 24.504L139.266 20H140.657L137.938 24.504H136.547Z" fill="white"/>
<path d="M139.223 24.504L141.942 20H143.334L140.615 24.504H139.223Z" fill="white"/>
<path d="M141.899 24.504L144.618 20H146.01L143.291 24.504H141.899Z" fill="white"/>
<path d="M144.576 24.504L147.295 20H148.686L145.967 24.504H144.576Z" fill="white"/>
<path d="M147.252 24.504L149.971 20H151.362L148.643 24.504H147.252Z" fill="white"/>
<path d="M149.928 24.504L152.647 20H154.039L151.32 24.504H149.928Z" fill="white"/>
<path d="M152.604 24.504L155.323 20H156.715L153.996 24.504H152.604Z" fill="white"/>
<path d="M155.281 24.504L158 20H159.391L156.672 24.504H155.281Z" fill="white"/>
<path d="M157.957 24.504L160.676 20H162.068L159.349 24.504H157.957Z" fill="white"/>
<path d="M160.633 24.504L163.352 20H164.744L162.025 24.504H160.633Z" fill="white"/>
<path d="M163.309 24.504L166.028 20H167.42L164.701 24.504H163.309Z" fill="white"/>
<path d="M165.986 24.504L168.705 20H170.096L167.377 24.504H165.986Z" fill="white"/>
<path d="M168.662 24.504L171.381 20H172.773L170.054 24.504H168.662Z" fill="white"/>
<path d="M171.338 24.504L174.057 20H175.449L172.73 24.504H171.338Z" fill="white"/>
<path d="M174.014 24.504L176.733 20H178.125L175.406 24.504H174.014Z" fill="white"/>
<path d="M176.691 24.504L179.41 20H180.801L178.082 24.504H176.691Z" fill="white"/>
<path d="M179.367 24.504L182.086 20H183.478L180.759 24.504H179.367Z" fill="white"/>
<path d="M182.043 24.504L184.762 20H186.154L183.435 24.504H182.043Z" fill="white"/>
<path d="M184.719 24.504L187.439 20H188.83L186.111 24.504H184.719Z" fill="white"/>
<path d="M187.396 24.504L190.115 20H191.506L188.787 24.504H187.396Z" fill="white"/>
<path d="M190.072 24.504L192.791 20H194.183L191.464 24.504H190.072Z" fill="white"/>
<path d="M192.748 24.504L195.467 20H196.859L194.14 24.504H192.748Z" fill="white"/>
<path d="M195.424 24.504L198.143 20H199.535L196.816 24.504H195.424Z" fill="white"/>
<path d="M198.101 24.504L200.82 20H202.212L199.492 24.504H198.101Z" fill="white"/>
<path d="M200.777 24.504L203.496 20H204.888L202.169 24.504H200.777Z" fill="white"/>
<path d="M203.453 24.504L206.172 20H207.564L204.845 24.504H203.453Z" fill="white"/>
<path d="M206.129 24.504L208.848 20H210.24L207.521 24.504H206.129Z" fill="white"/>
<path d="M208.806 24.504L211.525 20H212.916L210.197 24.504H208.806Z" fill="white"/>
<path d="M211.482 24.504L214.201 20H215.593L212.874 24.504H211.482Z" fill="white"/>
<path d="M214.158 24.504L216.877 20H218.269L215.55 24.504H214.158Z" fill="white"/>
<path d="M216.835 24.504L219.554 20H220.945L218.226 24.504H216.835Z" fill="white"/>
<path d="M219.511 24.504L222.23 20H223.621L220.902 24.504H219.511Z" fill="white"/>
<path d="M222.187 24.504L224.906 20H226.298L223.579 24.504H222.187Z" fill="white"/>
<path d="M224.863 24.504L227.582 20H228.974L226.255 24.504H224.863Z" fill="white"/>
<path d="M227.54 24.504L230.259 20H231.65L228.931 24.504H227.54Z" fill="white"/>
<path d="M230.216 24.504L232.935 20H234.327L231.607 24.504H230.216Z" fill="white"/>
<path d="M232.892 24.504L235.611 20H237.003L234.284 24.504H232.892Z" fill="white"/>
<path d="M235.568 24.504L238.287 20H239.679L236.96 24.504H235.568Z" fill="white"/>
<path d="M238.245 24.504L240.964 20H242.355L239.636 24.504H238.245Z" fill="white"/>
<path d="M240.921 24.504L243.64 20H245.032L242.313 24.504H240.921Z" fill="white"/>
<path d="M243.597 24.504L246.316 20H247.708L244.989 24.504H243.597Z" fill="white"/>
<path d="M246.273 24.504L248.993 20H250.384L247.665 24.504H246.273Z" fill="white"/>
<path d="M248.95 24.504L251.669 20H253.06L250.341 24.504H248.95Z" fill="white"/>
<path d="M251.626 24.504L254.345 20H255.737L253.018 24.504H251.626Z" fill="white"/>
<path d="M254.302 24.504L257.021 20H258.413L255.694 24.504H254.302Z" fill="white"/>
<path d="M256.979 24.504L259.698 20H261.089L258.37 24.504H256.979Z" fill="white"/>
<path d="M259.655 24.504L262.374 20H263.765L261.046 24.504H259.655Z" fill="white"/>
<path d="M262.331 24.504L265.05 20H266.442L263.723 24.504H262.331Z" fill="white"/>
<path d="M265.007 24.504L267.726 20H269.118L266.399 24.504H265.007Z" fill="white"/>
<path d="M267.684 24.504L270.403 20H271.794L269.075 24.504H267.684Z" fill="white"/>
<path d="M270.36 24.504L273.079 20H274.471L271.752 24.504H270.36Z" fill="white"/>
<path d="M273.036 24.504L275.755 20H277.147L274.428 24.504H273.036Z" fill="white"/>
<path d="M275.712 24.504L278.431 20H279.823L277.104 24.504H275.712Z" fill="white"/>
<path d="M278.388 24.504L281.108 20H282.499L279.78 24.504H278.388Z" fill="white"/>
<path d="M281.065 24.504L283.784 20H285.175L282.456 24.504H281.065Z" fill="white"/>
<path d="M283.741 24.504L286.46 20H287.852L285.133 24.504H283.741Z" fill="white"/>
<path d="M286.417 24.504L289.136 20H290.528L287.809 24.504H286.417Z" fill="white"/>
<path d="M289.094 24.504L291.813 20H293.204L290.485 24.504H289.094Z" fill="white"/>
<path d="M291.77 24.504L294.489 20H295.881L293.161 24.504H291.77Z" fill="white"/>
<path d="M294.446 24.504L297.165 20H298.557L295.838 24.504H294.446Z" fill="white"/>
<path d="M297.122 24.504L299.841 20H301.233L298.514 24.504H297.122Z" fill="white"/>
<path d="M299.798 24.504L302.517 20H303.909L301.19 24.504H299.798Z" fill="white"/>
<path d="M302.475 24.504L305.194 20H306.586L303.867 24.504H302.475Z" fill="white"/>
<path d="M305.151 24.504L307.87 20H309.262L306.543 24.504H305.151Z" fill="white"/>
<path d="M307.827 24.504L310.546 20H311.938L309.219 24.504H307.827Z" fill="white"/>
<path d="M310.504 24.504L313.223 20H314.614L311.895 24.504H310.504Z" fill="white"/>
<path d="M313.18 24.504L315.899 20H317.291L314.572 24.504H313.18Z" fill="white"/>
<path d="M315.856 24.504L318.575 20H319.967L317.248 24.504H315.856Z" fill="white"/>
<path d="M318.532 24.504L321.251 20H322.643L319.924 24.504H318.532Z" fill="white"/>
<path d="M321.209 24.504L323.928 20H325.319L322.6 24.504H321.209Z" fill="white"/>
<path d="M323.885 24.504L326.604 20H327.995L325.276 24.504H323.885Z" fill="white"/>
<path d="M326.561 24.504L329.28 20H330.672L327.953 24.504H326.561Z" fill="white"/>
<path d="M329.237 24.504L331.956 20H333.348L330.629 24.504H329.237Z" fill="white"/>
<path d="M331.914 24.504L334.633 20H336.024L333.305 24.504H331.914Z" fill="white"/>
<path d="M334.59 24.504L337.309 20H338.701L335.982 24.504H334.59Z" fill="white"/>
<path d="M337.266 24.504L339.985 20H341.377L338.658 24.504H337.266Z" fill="white"/>
<path d="M339.943 24.504L342.662 20H344.053L341.334 24.504H339.943Z" fill="white"/>
<path d="M0.0576172 34.504L2.7767 30H4.16835L1.44927 34.504H0.0576172Z" fill="white"/>
<path d="M2.73389 34.504L5.45297 30H6.84462L4.12554 34.504H2.73389Z" fill="white"/>
<path d="M5.41016 34.504L8.12924 30H9.52089L6.80181 34.504H5.41016Z" fill="white"/>
<path d="M8.0863 34.504L10.8054 30H12.197L9.47796 34.504H8.0863Z" fill="white"/>
<path d="M10.7626 34.504L13.4817 30H14.8733L12.1542 34.504H10.7626Z" fill="white"/>
<path d="M13.4388 34.504L16.1579 30H17.5496L14.8305 34.504H13.4388Z" fill="white"/>
<path d="M16.1151 34.504L18.8342 30H20.2258L17.5068 34.504H16.1151Z" fill="white"/>
<path d="M18.7914 34.504L21.5105 30H22.9021L20.183 34.504H18.7914Z" fill="white"/>
<path d="M21.4675 34.504L24.1866 30H25.5783L22.8592 34.504H21.4675Z" fill="white"/>
<path d="M24.1438 34.504L26.8629 30H28.2545L25.5355 34.504H24.1438Z" fill="white"/>
<path d="M26.8201 34.504L29.5391 30H30.9308L28.2117 34.504H26.8201Z" fill="white"/>
<path d="M29.4965 34.504L32.2155 30H33.6072L30.8881 34.504H29.4965Z" fill="white"/>
<path d="M32.1727 34.504L34.8918 30H36.2835L33.5644 34.504H32.1727Z" fill="white"/>
<path d="M34.849 34.504L37.5681 30H38.9597L36.2407 34.504H34.849Z" fill="white"/>
<path d="M37.5251 34.504L40.2442 30H41.6359L38.9168 34.504H37.5251Z" fill="white"/>
<path d="M40.2014 34.504L42.9205 30H44.3121L41.5931 34.504H40.2014Z" fill="white"/>
<path d="M42.8777 34.504L45.5968 30H46.9884L44.2693 34.504H42.8777Z" fill="white"/>
<path d="M45.554 34.504L48.273 30H49.6647L46.9456 34.504H45.554Z" fill="white"/>
<path d="M48.2302 34.504L50.9493 30H52.341L49.6219 34.504H48.2302Z" fill="white"/>
<path d="M50.9064 34.504L53.6255 30H55.0171L52.298 34.504H50.9064Z" fill="white"/>
<path d="M53.5826 34.504L56.3017 30H57.6934L54.9743 34.504H53.5826Z" fill="white"/>
<path d="M56.259 34.504L58.9781 30H60.3698L57.6507 34.504H56.259Z" fill="white"/>
<path d="M58.9353 34.504L61.6544 30H63.046L60.327 34.504H58.9353Z" fill="white"/>
<path d="M61.6116 34.504L64.3307 30H65.7223L63.0032 34.504H61.6116Z" fill="white"/>
<path d="M64.2878 34.504L67.0069 30H68.3986L65.6795 34.504H64.2878Z" fill="white"/>
<path d="M66.964 34.504L69.6831 30H71.0747L68.3556 34.504H66.964Z" fill="white"/>
<path d="M69.6403 34.504L72.3593 30H73.751L71.0319 34.504H69.6403Z" fill="white"/>
<path d="M72.3165 34.504L75.0356 30H76.4273L73.7082 34.504H72.3165Z" fill="white"/>
<path d="M74.9928 34.504L77.7119 30H79.1035L76.3845 34.504H74.9928Z" fill="white"/>
<path d="M77.6691 34.504L80.3881 30H81.7798L79.0607 34.504H77.6691Z" fill="white"/>
<path d="M80.3453 34.504L83.0644 30H84.4561L81.737 34.504H80.3453Z" fill="white"/>
<path d="M83.0215 34.504L85.7406 30H87.1322L84.4131 34.504H83.0215Z" fill="white"/>
<path d="M85.6979 34.504L88.417 30H89.8086L87.0895 34.504H85.6979Z" fill="white"/>
<path d="M88.3741 34.504L91.0932 30H92.4849L89.7658 34.504H88.3741Z" fill="white"/>
<path d="M91.0504 34.504L93.7695 30H95.1611L92.4421 34.504H91.0504Z" fill="white"/>
<path d="M93.7267 34.504L96.4458 30H97.8374L95.1183 34.504H93.7267Z" fill="white"/>
<path d="M96.4028 34.504L99.1219 30H100.514L97.7945 34.504H96.4028Z" fill="white"/>
<path d="M99.0791 34.504L101.798 30H103.19L100.471 34.504H99.0791Z" fill="white"/>
<path d="M101.755 34.504L104.474 30H105.866L103.147 34.504H101.755Z" fill="white"/>
<path d="M104.432 34.504L107.151 30H108.542L105.823 34.504H104.432Z" fill="white"/>
<path d="M107.108 34.504L109.827 30H111.219L108.5 34.504H107.108Z" fill="white"/>
<path d="M109.784 34.504L112.503 30H113.895L111.176 34.504H109.784Z" fill="white"/>
<path d="M112.46 34.504L115.18 30H116.571L113.852 34.504H112.46Z" fill="white"/>
<path d="M115.137 34.504L117.856 30H119.247L116.528 34.504H115.137Z" fill="white"/>
<path d="M117.813 34.504L120.532 30H121.923L119.204 34.504H117.813Z" fill="white"/>
<path d="M120.489 34.504L123.208 30H124.6L121.881 34.504H120.489Z" fill="white"/>
<path d="M123.165 34.504L125.884 30H127.276L124.557 34.504H123.165Z" fill="white"/>
<path d="M125.842 34.504L128.561 30H129.953L127.233 34.504H125.842Z" fill="white"/>
<path d="M128.518 34.504L131.237 30H132.629L129.91 34.504H128.518Z" fill="white"/>
<path d="M131.194 34.504L133.913 30H135.305L132.586 34.504H131.194Z" fill="white"/>
<path d="M133.871 34.504L136.59 30H137.981L135.262 34.504H133.871Z" fill="white"/>
<path d="M136.547 34.504L139.266 30H140.657L137.938 34.504H136.547Z" fill="white"/>
<path d="M139.223 34.504L141.942 30H143.334L140.615 34.504H139.223Z" fill="white"/>
<path d="M141.899 34.504L144.618 30H146.01L143.291 34.504H141.899Z" fill="white"/>
<path d="M144.576 34.504L147.295 30H148.686L145.967 34.504H144.576Z" fill="white"/>
<path d="M147.252 34.504L149.971 30H151.362L148.643 34.504H147.252Z" fill="white"/>
<path d="M149.928 34.504L152.647 30H154.039L151.32 34.504H149.928Z" fill="white"/>
<path d="M152.604 34.504L155.323 30H156.715L153.996 34.504H152.604Z" fill="white"/>
<path d="M155.281 34.504L158 30H159.391L156.672 34.504H155.281Z" fill="white"/>
<path d="M157.957 34.504L160.676 30H162.068L159.349 34.504H157.957Z" fill="white"/>
<path d="M160.633 34.504L163.352 30H164.744L162.025 34.504H160.633Z" fill="white"/>
<path d="M163.309 34.504L166.028 30H167.42L164.701 34.504H163.309Z" fill="white"/>
<path d="M165.986 34.504L168.705 30H170.096L167.377 34.504H165.986Z" fill="white"/>
<path d="M168.662 34.504L171.381 30H172.773L170.054 34.504H168.662Z" fill="white"/>
<path d="M171.338 34.504L174.057 30H175.449L172.73 34.504H171.338Z" fill="white"/>
<path d="M174.014 34.504L176.733 30H178.125L175.406 34.504H174.014Z" fill="white"/>
<path d="M176.691 34.504L179.41 30H180.801L178.082 34.504H176.691Z" fill="white"/>
<path d="M179.367 34.504L182.086 30H183.478L180.759 34.504H179.367Z" fill="white"/>
<path d="M182.043 34.504L184.762 30H186.154L183.435 34.504H182.043Z" fill="white"/>
<path d="M184.719 34.504L187.439 30H188.83L186.111 34.504H184.719Z" fill="white"/>
<path d="M187.396 34.504L190.115 30H191.506L188.787 34.504H187.396Z" fill="white"/>
<path d="M190.072 34.504L192.791 30H194.183L191.464 34.504H190.072Z" fill="white"/>
<path d="M192.748 34.504L195.467 30H196.859L194.14 34.504H192.748Z" fill="white"/>
<path d="M195.424 34.504L198.143 30H199.535L196.816 34.504H195.424Z" fill="white"/>
<path d="M198.101 34.504L200.82 30H202.212L199.492 34.504H198.101Z" fill="white"/>
<path d="M200.777 34.504L203.496 30H204.888L202.169 34.504H200.777Z" fill="white"/>
<path d="M203.453 34.504L206.172 30H207.564L204.845 34.504H203.453Z" fill="white"/>
<path d="M206.129 34.504L208.848 30H210.24L207.521 34.504H206.129Z" fill="white"/>
<path d="M208.806 34.504L211.525 30H212.916L210.197 34.504H208.806Z" fill="white"/>
<path d="M211.482 34.504L214.201 30H215.593L212.874 34.504H211.482Z" fill="white"/>
<path d="M214.158 34.504L216.877 30H218.269L215.55 34.504H214.158Z" fill="white"/>
<path d="M216.835 34.504L219.554 30H220.945L218.226 34.504H216.835Z" fill="white"/>
<path d="M219.511 34.504L222.23 30H223.621L220.902 34.504H219.511Z" fill="white"/>
<path d="M222.187 34.504L224.906 30H226.298L223.579 34.504H222.187Z" fill="white"/>
<path d="M224.863 34.504L227.582 30H228.974L226.255 34.504H224.863Z" fill="white"/>
<path d="M227.54 34.504L230.259 30H231.65L228.931 34.504H227.54Z" fill="white"/>
<path d="M230.216 34.504L232.935 30H234.327L231.607 34.504H230.216Z" fill="white"/>
<path d="M232.892 34.504L235.611 30H237.003L234.284 34.504H232.892Z" fill="white"/>
<path d="M235.568 34.504L238.287 30H239.679L236.96 34.504H235.568Z" fill="white"/>
<path d="M238.245 34.504L240.964 30H242.355L239.636 34.504H238.245Z" fill="white"/>
<path d="M240.921 34.504L243.64 30H245.032L242.313 34.504H240.921Z" fill="white"/>
<path d="M243.597 34.504L246.316 30H247.708L244.989 34.504H243.597Z" fill="white"/>
<path d="M246.273 34.504L248.993 30H250.384L247.665 34.504H246.273Z" fill="white"/>
<path d="M248.95 34.504L251.669 30H253.06L250.341 34.504H248.95Z" fill="white"/>
<path d="M251.626 34.504L254.345 30H255.737L253.018 34.504H251.626Z" fill="white"/>
<path d="M254.302 34.504L257.021 30H258.413L255.694 34.504H254.302Z" fill="white"/>
<path d="M256.979 34.504L259.698 30H261.089L258.37 34.504H256.979Z" fill="white"/>
<path d="M259.655 34.504L262.374 30H263.765L261.046 34.504H259.655Z" fill="white"/>
<path d="M262.331 34.504L265.05 30H266.442L263.723 34.504H262.331Z" fill="white"/>
<path d="M265.007 34.504L267.726 30H269.118L266.399 34.504H265.007Z" fill="white"/>
<path d="M267.684 34.504L270.403 30H271.794L269.075 34.504H267.684Z" fill="white"/>
<path d="M270.36 34.504L273.079 30H274.471L271.752 34.504H270.36Z" fill="white"/>
<path d="M273.036 34.504L275.755 30H277.147L274.428 34.504H273.036Z" fill="white"/>
<path d="M275.712 34.504L278.431 30H279.823L277.104 34.504H275.712Z" fill="white"/>
<path d="M278.388 34.504L281.108 30H282.499L279.78 34.504H278.388Z" fill="white"/>
<path d="M281.065 34.504L283.784 30H285.175L282.456 34.504H281.065Z" fill="white"/>
<path d="M283.741 34.504L286.46 30H287.852L285.133 34.504H283.741Z" fill="white"/>
<path d="M286.417 34.504L289.136 30H290.528L287.809 34.504H286.417Z" fill="white"/>
<path d="M289.094 34.504L291.813 30H293.204L290.485 34.504H289.094Z" fill="white"/>
<path d="M291.77 34.504L294.489 30H295.881L293.161 34.504H291.77Z" fill="white"/>
<path d="M294.446 34.504L297.165 30H298.557L295.838 34.504H294.446Z" fill="white"/>
<path d="M297.122 34.504L299.841 30H301.233L298.514 34.504H297.122Z" fill="white"/>
<path d="M299.798 34.504L302.517 30H303.909L301.19 34.504H299.798Z" fill="white"/>
<path d="M302.475 34.504L305.194 30H306.586L303.867 34.504H302.475Z" fill="white"/>
<path d="M305.151 34.504L307.87 30H309.262L306.543 34.504H305.151Z" fill="white"/>
<path d="M307.827 34.504L310.546 30H311.938L309.219 34.504H307.827Z" fill="white"/>
<path d="M310.504 34.504L313.223 30H314.614L311.895 34.504H310.504Z" fill="white"/>
<path d="M313.18 34.504L315.899 30H317.291L314.572 34.504H313.18Z" fill="white"/>
<path d="M315.856 34.504L318.575 30H319.967L317.248 34.504H315.856Z" fill="white"/>
<path d="M318.532 34.504L321.251 30H322.643L319.924 34.504H318.532Z" fill="white"/>
<path d="M321.209 34.504L323.928 30H325.319L322.6 34.504H321.209Z" fill="white"/>
<path d="M323.885 34.504L326.604 30H327.995L325.276 34.504H323.885Z" fill="white"/>
<path d="M326.561 34.504L329.28 30H330.672L327.953 34.504H326.561Z" fill="white"/>
<path d="M329.237 34.504L331.956 30H333.348L330.629 34.504H329.237Z" fill="white"/>
<path d="M331.914 34.504L334.633 30H336.024L333.305 34.504H331.914Z" fill="white"/>
<path d="M334.59 34.504L337.309 30H338.701L335.982 34.504H334.59Z" fill="white"/>
<path d="M337.266 34.504L339.985 30H341.377L338.658 34.504H337.266Z" fill="white"/>
<path d="M339.943 34.504L342.662 30H344.053L341.334 34.504H339.943Z" fill="white"/>
<path d="M344.053 9.504L341.334 5H339.942L342.662 9.504H344.053Z" fill="white"/>
<path d="M341.377 9.504L338.658 5H337.266L339.985 9.504H341.377Z" fill="white"/>
<path d="M338.701 9.504L335.982 5H334.59L337.309 9.504H338.701Z" fill="white"/>
<path d="M336.024 9.504L333.305 5H331.914L334.633 9.504H336.024Z" fill="white"/>
<path d="M333.348 9.504L330.629 5H329.237L331.956 9.504H333.348Z" fill="white"/>
<path d="M330.672 9.504L327.953 5H326.561L329.28 9.504H330.672Z" fill="white"/>
<path d="M327.996 9.504L325.277 5H323.885L326.604 9.504H327.996Z" fill="white"/>
<path d="M325.32 9.504L322.601 5H321.209L323.928 9.504H325.32Z" fill="white"/>
<path d="M322.643 9.504L319.924 5H318.532L321.251 9.504H322.643Z" fill="white"/>
<path d="M319.967 9.504L317.248 5H315.856L318.575 9.504H319.967Z" fill="white"/>
<path d="M317.291 9.504L314.571 5H313.18L315.899 9.504H317.291Z" fill="white"/>
<path d="M314.614 9.504L311.895 5H310.504L313.223 9.504H314.614Z" fill="white"/>
<path d="M311.938 9.504L309.219 5H307.827L310.547 9.504H311.938Z" fill="white"/>
<path d="M309.262 9.504L306.543 5H305.151L307.87 9.504H309.262Z" fill="white"/>
<path d="M306.586 9.504L303.867 5H302.475L305.194 9.504H306.586Z" fill="white"/>
<path d="M303.909 9.504L301.19 5H299.798L302.518 9.504H303.909Z" fill="white"/>
<path d="M301.233 9.504L298.514 5H297.122L299.841 9.504H301.233Z" fill="white"/>
<path d="M298.557 9.504L295.838 5H294.446L297.165 9.504H298.557Z" fill="white"/>
<path d="M295.881 9.504L293.162 5H291.77L294.489 9.504H295.881Z" fill="white"/>
<path d="M293.204 9.504L290.485 5H289.094L291.813 9.504H293.204Z" fill="white"/>
<path d="M290.528 9.504L287.809 5H286.417L289.136 9.504H290.528Z" fill="white"/>
<path d="M287.852 9.504L285.133 5H283.741L286.46 9.504H287.852Z" fill="white"/>
<path d="M285.176 9.504L282.456 5H281.065L283.784 9.504H285.176Z" fill="white"/>
<path d="M282.499 9.504L279.78 5H278.389L281.108 9.504H282.499Z" fill="white"/>
<path d="M279.823 9.504L277.104 5H275.712L278.431 9.504H279.823Z" fill="white"/>
<path d="M277.147 9.504L274.428 5H273.036L275.755 9.504H277.147Z" fill="white"/>
<path d="M274.47 9.504L271.751 5H270.36L273.079 9.504H274.47Z" fill="white"/>
<path d="M271.794 9.504L269.075 5H267.683L270.403 9.504H271.794Z" fill="white"/>
<path d="M269.118 9.504L266.399 5H265.007L267.726 9.504H269.118Z" fill="white"/>
<path d="M266.442 9.504L263.723 5H262.331L265.05 9.504H266.442Z" fill="white"/>
<path d="M263.765 9.504L261.046 5H259.655L262.374 9.504H263.765Z" fill="white"/>
<path d="M261.089 9.504L258.37 5H256.978L259.697 9.504H261.089Z" fill="white"/>
<path d="M258.413 9.504L255.694 5H254.302L257.021 9.504H258.413Z" fill="white"/>
<path d="M255.737 9.504L253.017 5H251.626L254.345 9.504H255.737Z" fill="white"/>
<path d="M253.061 9.504L250.341 5H248.95L251.669 9.504H253.061Z" fill="white"/>
<path d="M250.384 9.504L247.665 5H246.273L248.992 9.504H250.384Z" fill="white"/>
<path d="M247.708 9.504L244.989 5H243.597L246.316 9.504H247.708Z" fill="white"/>
<path d="M245.031 9.504L242.312 5H240.921L243.64 9.504H245.031Z" fill="white"/>
<path d="M242.355 9.504L239.636 5H238.245L240.964 9.504H242.355Z" fill="white"/>
<path d="M239.679 9.504L236.96 5H235.568L238.288 9.504H239.679Z" fill="white"/>
<path d="M237.003 9.504L234.284 5H232.892L235.611 9.504H237.003Z" fill="white"/>
<path d="M234.327 9.504L231.608 5H230.216L232.935 9.504H234.327Z" fill="white"/>
<path d="M231.65 9.504L228.931 5H227.539L230.258 9.504H231.65Z" fill="white"/>
<path d="M228.974 9.504L226.255 5H224.863L227.582 9.504H228.974Z" fill="white"/>
<path d="M226.298 9.504L223.579 5H222.187L224.906 9.504H226.298Z" fill="white"/>
<path d="M223.622 9.504L220.903 5H219.511L222.23 9.504H223.622Z" fill="white"/>
<path d="M220.945 9.504L218.226 5H216.835L219.554 9.504H220.945Z" fill="white"/>
<path d="M218.269 9.504L215.55 5H214.158L216.877 9.504H218.269Z" fill="white"/>
<path d="M215.593 9.504L212.874 5H211.482L214.201 9.504H215.593Z" fill="white"/>
<path d="M212.917 9.504L210.197 5H208.806L211.525 9.504H212.917Z" fill="white"/>
<path d="M210.24 9.504L207.521 5H206.13L208.849 9.504H210.24Z" fill="white"/>
<path d="M207.564 9.504L204.845 5H203.453L206.172 9.504H207.564Z" fill="white"/>
<path d="M204.888 9.504L202.169 5H200.777L203.496 9.504H204.888Z" fill="white"/>
<path d="M202.211 9.504L199.492 5H198.101L200.82 9.504H202.211Z" fill="white"/>
<path d="M199.535 9.504L196.816 5H195.424L198.144 9.504H199.535Z" fill="white"/>
<path d="M196.859 9.504L194.14 5H192.748L195.467 9.504H196.859Z" fill="white"/>
<path d="M194.183 9.504L191.464 5H190.072L192.791 9.504H194.183Z" fill="white"/>
<path d="M191.506 9.504L188.787 5H187.396L190.115 9.504H191.506Z" fill="white"/>
<path d="M188.83 9.504L186.111 5H184.72L187.439 9.504H188.83Z" fill="white"/>
<path d="M186.154 9.504L183.435 5H182.043L184.762 9.504H186.154Z" fill="white"/>
<path d="M183.478 9.504L180.759 5H179.367L182.086 9.504H183.478Z" fill="white"/>
<path d="M180.802 9.504L178.082 5H176.691L179.41 9.504H180.802Z" fill="white"/>
<path d="M178.125 9.504L175.406 5H174.014L176.733 9.504H178.125Z" fill="white"/>
<path d="M175.449 9.504L172.73 5H171.338L174.057 9.504H175.449Z" fill="white"/>
<path d="M172.772 9.504L170.053 5H168.662L171.381 9.504H172.772Z" fill="white"/>
<path d="M170.096 9.504L167.377 5H165.986L168.705 9.504H170.096Z" fill="white"/>
<path d="M167.42 9.504L164.701 5H163.309L166.028 9.504H167.42Z" fill="white"/>
<path d="M164.744 9.504L162.025 5H160.633L163.352 9.504H164.744Z" fill="white"/>
<path d="M162.068 9.504L159.349 5H157.957L160.676 9.504H162.068Z" fill="white"/>
<path d="M159.391 9.504L156.672 5H155.281L158 9.504H159.391Z" fill="white"/>
<path d="M156.715 9.504L153.996 5H152.604L155.323 9.504H156.715Z" fill="white"/>
<path d="M154.039 9.504L151.32 5H149.928L152.647 9.504H154.039Z" fill="white"/>
<path d="M151.363 9.504L148.643 5H147.252L149.971 9.504H151.363Z" fill="white"/>
<path d="M148.687 9.504L145.967 5H144.576L147.295 9.504H148.687Z" fill="white"/>
<path d="M146.01 9.504L143.291 5H141.899L144.618 9.504H146.01Z" fill="white"/>
<path d="M143.334 9.504L140.615 5H139.223L141.942 9.504H143.334Z" fill="white"/>
<path d="M140.657 9.504L137.938 5H136.547L139.266 9.504H140.657Z" fill="white"/>
<path d="M137.981 9.504L135.262 5H133.87L136.59 9.504H137.981Z" fill="white"/>
<path d="M135.305 9.504L132.586 5H131.194L133.914 9.504H135.305Z" fill="white"/>
<path d="M132.629 9.504L129.91 5H128.518L131.237 9.504H132.629Z" fill="white"/>
<path d="M129.953 9.504L127.234 5H125.842L128.561 9.504H129.953Z" fill="white"/>
<path d="M127.276 9.504L124.557 5H123.165L125.884 9.504H127.276Z" fill="white"/>
<path d="M124.6 9.504L121.881 5H120.489L123.208 9.504H124.6Z" fill="white"/>
<path d="M121.924 9.504L119.205 5H117.813L120.532 9.504H121.924Z" fill="white"/>
<path d="M119.247 9.504L116.528 5H115.137L117.856 9.504H119.247Z" fill="white"/>
<path d="M116.571 9.504L113.852 5H112.461L115.18 9.504H116.571Z" fill="white"/>
<path d="M113.895 9.504L111.176 5H109.784L112.503 9.504H113.895Z" fill="white"/>
<path d="M111.219 9.504L108.5 5H107.108L109.827 9.504H111.219Z" fill="white"/>
<path d="M108.542 9.504L105.823 5H104.432L107.151 9.504H108.542Z" fill="white"/>
<path d="M105.866 9.504L103.147 5H101.755L104.475 9.504H105.866Z" fill="white"/>
<path d="M103.19 9.504L100.471 5H99.0792L101.798 9.504H103.19Z" fill="white"/>
<path d="M100.514 9.504L97.7946 5H96.4029L99.122 9.504H100.514Z" fill="white"/>
<path d="M97.8374 9.504L95.1183 5H93.7267L96.4457 9.504H97.8374Z" fill="white"/>
<path d="M95.1611 9.504L92.4421 5H91.0504L93.7695 9.504H95.1611Z" fill="white"/>
<path d="M92.4849 9.504L89.7658 5H88.3741L91.0932 9.504H92.4849Z" fill="white"/>
<path d="M89.8086 9.504L87.0895 5H85.6979L88.4169 9.504H89.8086Z" fill="white"/>
<path d="M87.1323 9.504L84.4132 5H83.0216L85.7407 9.504H87.1323Z" fill="white"/>
<path d="M84.4562 9.504L81.7371 5H80.3454L83.0645 9.504H84.4562Z" fill="white"/>
<path d="M81.7799 9.504L79.0608 5H77.6692L80.3883 9.504H81.7799Z" fill="white"/>
<path d="M79.1035 9.504L76.3844 5H74.9928L77.7119 9.504H79.1035Z" fill="white"/>
<path d="M76.4272 9.504L73.7082 5H72.3165L75.0356 9.504H76.4272Z" fill="white"/>
<path d="M73.751 9.504L71.0319 5H69.6402L72.3593 9.504H73.751Z" fill="white"/>
<path d="M71.0748 9.504L68.3558 5H66.9641L69.6832 9.504H71.0748Z" fill="white"/>
<path d="M68.3984 9.504L65.6794 5H64.2877L67.0068 9.504H68.3984Z" fill="white"/>
<path d="M65.7223 9.504L63.0032 5H61.6116L64.3306 9.504H65.7223Z" fill="white"/>
<path d="M63.046 9.504L60.3269 5H58.9353L61.6544 9.504H63.046Z" fill="white"/>
<path d="M60.3698 9.504L57.6507 5H56.259L58.9781 9.504H60.3698Z" fill="white"/>
<path d="M57.6935 9.504L54.9744 5H53.5827L56.3018 9.504H57.6935Z" fill="white"/>
<path d="M55.0172 9.504L52.2981 5H50.9065L53.6256 9.504H55.0172Z" fill="white"/>
<path d="M52.3411 9.504L49.622 5H48.2303L50.9494 9.504H52.3411Z" fill="white"/>
<path d="M49.6648 9.504L46.9457 5H45.5541L48.2731 9.504H49.6648Z" fill="white"/>
<path d="M46.9885 9.504L44.2694 5H42.8778L45.5969 9.504H46.9885Z" fill="white"/>
<path d="M44.3121 9.504L41.5931 5H40.2014L42.9205 9.504H44.3121Z" fill="white"/>
<path d="M41.6359 9.504L38.9168 5H37.5251L40.2442 9.504H41.6359Z" fill="white"/>
<path d="M38.9597 9.504L36.2406 5H34.849L37.5681 9.504H38.9597Z" fill="white"/>
<path d="M36.2834 9.504L33.5644 5H32.1727L34.8918 9.504H36.2834Z" fill="white"/>
<path d="M33.6072 9.504L30.8881 5H29.4964L32.2155 9.504H33.6072Z" fill="white"/>
<path d="M30.9309 9.504L28.2118 5H26.8202L29.5393 9.504H30.9309Z" fill="white"/>
<path d="M28.2546 9.504L25.5356 5H24.1439L26.863 9.504H28.2546Z" fill="white"/>
<path d="M25.5785 9.504L22.8594 5H21.4678L24.1868 9.504H25.5785Z" fill="white"/>
<path d="M22.9021 9.504L20.183 5H18.7914L21.5104 9.504H22.9021Z" fill="white"/>
<path d="M20.2258 9.504L17.5068 5H16.1151L18.8342 9.504H20.2258Z" fill="white"/>
<path d="M17.5496 9.504L14.8305 5H13.4388L16.1579 9.504H17.5496Z" fill="white"/>
<path d="M14.8733 9.504L12.1542 5H10.7626L13.4816 9.504H14.8733Z" fill="white"/>
<path d="M12.1971 9.504L9.47806 5H8.08641L10.8055 9.504H12.1971Z" fill="white"/>
<path d="M9.52075 9.504L6.80167 5H5.41002L8.1291 9.504H9.52075Z" fill="white"/>
<path d="M6.8446 9.504L4.12553 5H2.73387L5.45295 9.504H6.8446Z" fill="white"/>
<path d="M4.16833 9.504L1.44926 5H0.0576015L2.77668 9.504H4.16833Z" fill="white"/>
<path d="M344.053 19.504L341.334 15H339.942L342.662 19.504H344.053Z" fill="white"/>
<path d="M341.377 19.504L338.658 15H337.266L339.985 19.504H341.377Z" fill="white"/>
<path d="M338.701 19.504L335.982 15H334.59L337.309 19.504H338.701Z" fill="white"/>
<path d="M336.024 19.504L333.305 15H331.914L334.633 19.504H336.024Z" fill="white"/>
<path d="M333.348 19.504L330.629 15H329.237L331.956 19.504H333.348Z" fill="white"/>
<path d="M330.672 19.504L327.953 15H326.561L329.28 19.504H330.672Z" fill="white"/>
<path d="M327.996 19.504L325.277 15H323.885L326.604 19.504H327.996Z" fill="white"/>
<path d="M325.32 19.504L322.601 15H321.209L323.928 19.504H325.32Z" fill="white"/>
<path d="M322.643 19.504L319.924 15H318.532L321.251 19.504H322.643Z" fill="white"/>
<path d="M319.967 19.504L317.248 15H315.856L318.575 19.504H319.967Z" fill="white"/>
<path d="M317.291 19.504L314.571 15H313.18L315.899 19.504H317.291Z" fill="white"/>
<path d="M314.614 19.504L311.895 15H310.504L313.223 19.504H314.614Z" fill="white"/>
<path d="M311.938 19.504L309.219 15H307.827L310.547 19.504H311.938Z" fill="white"/>
<path d="M309.262 19.504L306.543 15H305.151L307.87 19.504H309.262Z" fill="white"/>
<path d="M306.586 19.504L303.867 15H302.475L305.194 19.504H306.586Z" fill="white"/>
<path d="M303.909 19.504L301.19 15H299.798L302.518 19.504H303.909Z" fill="white"/>
<path d="M301.233 19.504L298.514 15H297.122L299.841 19.504H301.233Z" fill="white"/>
<path d="M298.557 19.504L295.838 15H294.446L297.165 19.504H298.557Z" fill="white"/>
<path d="M295.881 19.504L293.162 15H291.77L294.489 19.504H295.881Z" fill="white"/>
<path d="M293.204 19.504L290.485 15H289.094L291.813 19.504H293.204Z" fill="white"/>
<path d="M290.528 19.504L287.809 15H286.417L289.136 19.504H290.528Z" fill="white"/>
<path d="M287.852 19.504L285.133 15H283.741L286.46 19.504H287.852Z" fill="white"/>
<path d="M285.176 19.504L282.456 15H281.065L283.784 19.504H285.176Z" fill="white"/>
<path d="M282.499 19.504L279.78 15H278.389L281.108 19.504H282.499Z" fill="white"/>
<path d="M279.823 19.504L277.104 15H275.712L278.431 19.504H279.823Z" fill="white"/>
<path d="M277.147 19.504L274.428 15H273.036L275.755 19.504H277.147Z" fill="white"/>
<path d="M274.47 19.504L271.751 15H270.36L273.079 19.504H274.47Z" fill="white"/>
<path d="M271.794 19.504L269.075 15H267.683L270.403 19.504H271.794Z" fill="white"/>
<path d="M269.118 19.504L266.399 15H265.007L267.726 19.504H269.118Z" fill="white"/>
<path d="M266.442 19.504L263.723 15H262.331L265.05 19.504H266.442Z" fill="white"/>
<path d="M263.765 19.504L261.046 15H259.655L262.374 19.504H263.765Z" fill="white"/>
<path d="M261.089 19.504L258.37 15H256.978L259.697 19.504H261.089Z" fill="white"/>
<path d="M258.413 19.504L255.694 15H254.302L257.021 19.504H258.413Z" fill="white"/>
<path d="M255.737 19.504L253.017 15H251.626L254.345 19.504H255.737Z" fill="white"/>
<path d="M253.061 19.504L250.341 15H248.95L251.669 19.504H253.061Z" fill="white"/>
<path d="M250.384 19.504L247.665 15H246.273L248.992 19.504H250.384Z" fill="white"/>
<path d="M247.708 19.504L244.989 15H243.597L246.316 19.504H247.708Z" fill="white"/>
<path d="M245.031 19.504L242.312 15H240.921L243.64 19.504H245.031Z" fill="white"/>
<path d="M242.355 19.504L239.636 15H238.245L240.964 19.504H242.355Z" fill="white"/>
<path d="M239.679 19.504L236.96 15H235.568L238.288 19.504H239.679Z" fill="white"/>
<path d="M237.003 19.504L234.284 15H232.892L235.611 19.504H237.003Z" fill="white"/>
<path d="M234.327 19.504L231.608 15H230.216L232.935 19.504H234.327Z" fill="white"/>
<path d="M231.65 19.504L228.931 15H227.539L230.258 19.504H231.65Z" fill="white"/>
<path d="M228.974 19.504L226.255 15H224.863L227.582 19.504H228.974Z" fill="white"/>
<path d="M226.298 19.504L223.579 15H222.187L224.906 19.504H226.298Z" fill="white"/>
<path d="M223.622 19.504L220.903 15H219.511L222.23 19.504H223.622Z" fill="white"/>
<path d="M220.945 19.504L218.226 15H216.835L219.554 19.504H220.945Z" fill="white"/>
<path d="M218.269 19.504L215.55 15H214.158L216.877 19.504H218.269Z" fill="white"/>
<path d="M215.593 19.504L212.874 15H211.482L214.201 19.504H215.593Z" fill="white"/>
<path d="M212.917 19.504L210.197 15H208.806L211.525 19.504H212.917Z" fill="white"/>
<path d="M210.24 19.504L207.521 15H206.13L208.849 19.504H210.24Z" fill="white"/>
<path d="M207.564 19.504L204.845 15H203.453L206.172 19.504H207.564Z" fill="white"/>
<path d="M204.888 19.504L202.169 15H200.777L203.496 19.504H204.888Z" fill="white"/>
<path d="M202.211 19.504L199.492 15H198.101L200.82 19.504H202.211Z" fill="white"/>
<path d="M199.535 19.504L196.816 15H195.424L198.144 19.504H199.535Z" fill="white"/>
<path d="M196.859 19.504L194.14 15H192.748L195.467 19.504H196.859Z" fill="white"/>
<path d="M194.183 19.504L191.464 15H190.072L192.791 19.504H194.183Z" fill="white"/>
<path d="M191.506 19.504L188.787 15H187.396L190.115 19.504H191.506Z" fill="white"/>
<path d="M188.83 19.504L186.111 15H184.72L187.439 19.504H188.83Z" fill="white"/>
<path d="M186.154 19.504L183.435 15H182.043L184.762 19.504H186.154Z" fill="white"/>
<path d="M183.478 19.504L180.759 15H179.367L182.086 19.504H183.478Z" fill="white"/>
<path d="M180.802 19.504L178.082 15H176.691L179.41 19.504H180.802Z" fill="white"/>
<path d="M178.125 19.504L175.406 15H174.014L176.733 19.504H178.125Z" fill="white"/>
<path d="M175.449 19.504L172.73 15H171.338L174.057 19.504H175.449Z" fill="white"/>
<path d="M172.772 19.504L170.053 15H168.662L171.381 19.504H172.772Z" fill="white"/>
<path d="M170.096 19.504L167.377 15H165.986L168.705 19.504H170.096Z" fill="white"/>
<path d="M167.42 19.504L164.701 15H163.309L166.028 19.504H167.42Z" fill="white"/>
<path d="M164.744 19.504L162.025 15H160.633L163.352 19.504H164.744Z" fill="white"/>
<path d="M162.068 19.504L159.349 15H157.957L160.676 19.504H162.068Z" fill="white"/>
<path d="M159.391 19.504L156.672 15H155.281L158 19.504H159.391Z" fill="white"/>
<path d="M156.715 19.504L153.996 15H152.604L155.323 19.504H156.715Z" fill="white"/>
<path d="M154.039 19.504L151.32 15H149.928L152.647 19.504H154.039Z" fill="white"/>
<path d="M151.363 19.504L148.643 15H147.252L149.971 19.504H151.363Z" fill="white"/>
<path d="M148.687 19.504L145.967 15H144.576L147.295 19.504H148.687Z" fill="white"/>
<path d="M146.01 19.504L143.291 15H141.899L144.618 19.504H146.01Z" fill="white"/>
<path d="M143.334 19.504L140.615 15H139.223L141.942 19.504H143.334Z" fill="white"/>
<path d="M140.657 19.504L137.938 15H136.547L139.266 19.504H140.657Z" fill="white"/>
<path d="M137.981 19.504L135.262 15H133.87L136.59 19.504H137.981Z" fill="white"/>
<path d="M135.305 19.504L132.586 15H131.194L133.914 19.504H135.305Z" fill="white"/>
<path d="M132.629 19.504L129.91 15H128.518L131.237 19.504H132.629Z" fill="white"/>
<path d="M129.953 19.504L127.234 15H125.842L128.561 19.504H129.953Z" fill="white"/>
<path d="M127.276 19.504L124.557 15H123.165L125.884 19.504H127.276Z" fill="white"/>
<path d="M124.6 19.504L121.881 15H120.489L123.208 19.504H124.6Z" fill="white"/>
<path d="M121.924 19.504L119.205 15H117.813L120.532 19.504H121.924Z" fill="white"/>
<path d="M119.247 19.504L116.528 15H115.137L117.856 19.504H119.247Z" fill="white"/>
<path d="M116.571 19.504L113.852 15H112.461L115.18 19.504H116.571Z" fill="white"/>
<path d="M113.895 19.504L111.176 15H109.784L112.503 19.504H113.895Z" fill="white"/>
<path d="M111.219 19.504L108.5 15H107.108L109.827 19.504H111.219Z" fill="white"/>
<path d="M108.542 19.504L105.823 15H104.432L107.151 19.504H108.542Z" fill="white"/>
<path d="M105.866 19.504L103.147 15H101.755L104.475 19.504H105.866Z" fill="white"/>
<path d="M103.19 19.504L100.471 15H99.0792L101.798 19.504H103.19Z" fill="white"/>
<path d="M100.514 19.504L97.7946 15H96.4029L99.122 19.504H100.514Z" fill="white"/>
<path d="M97.8374 19.504L95.1183 15H93.7267L96.4457 19.504H97.8374Z" fill="white"/>
<path d="M95.1611 19.504L92.4421 15H91.0504L93.7695 19.504H95.1611Z" fill="white"/>
<path d="M92.4849 19.504L89.7658 15H88.3741L91.0932 19.504H92.4849Z" fill="white"/>
<path d="M89.8086 19.504L87.0895 15H85.6979L88.4169 19.504H89.8086Z" fill="white"/>
<path d="M87.1323 19.504L84.4132 15H83.0216L85.7407 19.504H87.1323Z" fill="white"/>
<path d="M84.4562 19.504L81.7371 15H80.3454L83.0645 19.504H84.4562Z" fill="white"/>
<path d="M81.7799 19.504L79.0608 15H77.6692L80.3883 19.504H81.7799Z" fill="white"/>
<path d="M79.1035 19.504L76.3844 15H74.9928L77.7119 19.504H79.1035Z" fill="white"/>
<path d="M76.4272 19.504L73.7082 15H72.3165L75.0356 19.504H76.4272Z" fill="white"/>
<path d="M73.751 19.504L71.0319 15H69.6402L72.3593 19.504H73.751Z" fill="white"/>
<path d="M71.0748 19.504L68.3558 15H66.9641L69.6832 19.504H71.0748Z" fill="white"/>
<path d="M68.3984 19.504L65.6794 15H64.2877L67.0068 19.504H68.3984Z" fill="white"/>
<path d="M65.7223 19.504L63.0032 15H61.6116L64.3306 19.504H65.7223Z" fill="white"/>
<path d="M63.046 19.504L60.3269 15H58.9353L61.6544 19.504H63.046Z" fill="white"/>
<path d="M60.3698 19.504L57.6507 15H56.259L58.9781 19.504H60.3698Z" fill="white"/>
<path d="M57.6935 19.504L54.9744 15H53.5827L56.3018 19.504H57.6935Z" fill="white"/>
<path d="M55.0172 19.504L52.2981 15H50.9065L53.6256 19.504H55.0172Z" fill="white"/>
<path d="M52.3411 19.504L49.622 15H48.2303L50.9494 19.504H52.3411Z" fill="white"/>
<path d="M49.6648 19.504L46.9457 15H45.5541L48.2731 19.504H49.6648Z" fill="white"/>
<path d="M46.9885 19.504L44.2694 15H42.8778L45.5969 19.504H46.9885Z" fill="white"/>
<path d="M44.3121 19.504L41.5931 15H40.2014L42.9205 19.504H44.3121Z" fill="white"/>
<path d="M41.6359 19.504L38.9168 15H37.5251L40.2442 19.504H41.6359Z" fill="white"/>
<path d="M38.9597 19.504L36.2406 15H34.849L37.5681 19.504H38.9597Z" fill="white"/>
<path d="M36.2834 19.504L33.5644 15H32.1727L34.8918 19.504H36.2834Z" fill="white"/>
<path d="M33.6072 19.504L30.8881 15H29.4964L32.2155 19.504H33.6072Z" fill="white"/>
<path d="M30.9309 19.504L28.2118 15H26.8202L29.5393 19.504H30.9309Z" fill="white"/>
<path d="M28.2546 19.504L25.5356 15H24.1439L26.863 19.504H28.2546Z" fill="white"/>
<path d="M25.5785 19.504L22.8594 15H21.4678L24.1868 19.504H25.5785Z" fill="white"/>
<path d="M22.9021 19.504L20.183 15H18.7914L21.5104 19.504H22.9021Z" fill="white"/>
<path d="M20.2258 19.504L17.5068 15H16.1151L18.8342 19.504H20.2258Z" fill="white"/>
<path d="M17.5496 19.504L14.8305 15H13.4388L16.1579 19.504H17.5496Z" fill="white"/>
<path d="M14.8733 19.504L12.1542 15H10.7626L13.4816 19.504H14.8733Z" fill="white"/>
<path d="M12.1971 19.504L9.47806 15H8.08641L10.8055 19.504H12.1971Z" fill="white"/>
<path d="M9.52075 19.504L6.80167 15H5.41002L8.1291 19.504H9.52075Z" fill="white"/>
<path d="M6.8446 19.504L4.12553 15H2.73387L5.45295 19.504H6.8446Z" fill="white"/>
<path d="M4.16833 19.504L1.44926 15H0.0576015L2.77668 19.504H4.16833Z" fill="white"/>
<path d="M344.053 29.504L341.334 25H339.942L342.662 29.504H344.053Z" fill="white"/>
<path d="M341.377 29.504L338.658 25H337.266L339.985 29.504H341.377Z" fill="white"/>
<path d="M338.701 29.504L335.982 25H334.59L337.309 29.504H338.701Z" fill="white"/>
<path d="M336.024 29.504L333.305 25H331.914L334.633 29.504H336.024Z" fill="white"/>
<path d="M333.348 29.504L330.629 25H329.237L331.956 29.504H333.348Z" fill="white"/>
<path d="M330.672 29.504L327.953 25H326.561L329.28 29.504H330.672Z" fill="white"/>
<path d="M327.996 29.504L325.277 25H323.885L326.604 29.504H327.996Z" fill="white"/>
<path d="M325.32 29.504L322.601 25H321.209L323.928 29.504H325.32Z" fill="white"/>
<path d="M322.643 29.504L319.924 25H318.532L321.251 29.504H322.643Z" fill="white"/>
<path d="M319.967 29.504L317.248 25H315.856L318.575 29.504H319.967Z" fill="white"/>
<path d="M317.291 29.504L314.571 25H313.18L315.899 29.504H317.291Z" fill="white"/>
<path d="M314.614 29.504L311.895 25H310.504L313.223 29.504H314.614Z" fill="white"/>
<path d="M311.938 29.504L309.219 25H307.827L310.547 29.504H311.938Z" fill="white"/>
<path d="M309.262 29.504L306.543 25H305.151L307.87 29.504H309.262Z" fill="white"/>
<path d="M306.586 29.504L303.867 25H302.475L305.194 29.504H306.586Z" fill="white"/>
<path d="M303.909 29.504L301.19 25H299.798L302.518 29.504H303.909Z" fill="white"/>
<path d="M301.233 29.504L298.514 25H297.122L299.841 29.504H301.233Z" fill="white"/>
<path d="M298.557 29.504L295.838 25H294.446L297.165 29.504H298.557Z" fill="white"/>
<path d="M295.881 29.504L293.162 25H291.77L294.489 29.504H295.881Z" fill="white"/>
<path d="M293.204 29.504L290.485 25H289.094L291.813 29.504H293.204Z" fill="white"/>
<path d="M290.528 29.504L287.809 25H286.417L289.136 29.504H290.528Z" fill="white"/>
<path d="M287.852 29.504L285.133 25H283.741L286.46 29.504H287.852Z" fill="white"/>
<path d="M285.176 29.504L282.456 25H281.065L283.784 29.504H285.176Z" fill="white"/>
<path d="M282.499 29.504L279.78 25H278.389L281.108 29.504H282.499Z" fill="white"/>
<path d="M279.823 29.504L277.104 25H275.712L278.431 29.504H279.823Z" fill="white"/>
<path d="M277.147 29.504L274.428 25H273.036L275.755 29.504H277.147Z" fill="white"/>
<path d="M274.47 29.504L271.751 25H270.36L273.079 29.504H274.47Z" fill="white"/>
<path d="M271.794 29.504L269.075 25H267.683L270.403 29.504H271.794Z" fill="white"/>
<path d="M269.118 29.504L266.399 25H265.007L267.726 29.504H269.118Z" fill="white"/>
<path d="M266.442 29.504L263.723 25H262.331L265.05 29.504H266.442Z" fill="white"/>
<path d="M263.765 29.504L261.046 25H259.655L262.374 29.504H263.765Z" fill="white"/>
<path d="M261.089 29.504L258.37 25H256.978L259.697 29.504H261.089Z" fill="white"/>
<path d="M258.413 29.504L255.694 25H254.302L257.021 29.504H258.413Z" fill="white"/>
<path d="M255.737 29.504L253.017 25H251.626L254.345 29.504H255.737Z" fill="white"/>
<path d="M253.061 29.504L250.341 25H248.95L251.669 29.504H253.061Z" fill="white"/>
<path d="M250.384 29.504L247.665 25H246.273L248.992 29.504H250.384Z" fill="white"/>
<path d="M247.708 29.504L244.989 25H243.597L246.316 29.504H247.708Z" fill="white"/>
<path d="M245.031 29.504L242.312 25H240.921L243.64 29.504H245.031Z" fill="white"/>
<path d="M242.355 29.504L239.636 25H238.245L240.964 29.504H242.355Z" fill="white"/>
<path d="M239.679 29.504L236.96 25H235.568L238.288 29.504H239.679Z" fill="white"/>
<path d="M237.003 29.504L234.284 25H232.892L235.611 29.504H237.003Z" fill="white"/>
<path d="M234.327 29.504L231.608 25H230.216L232.935 29.504H234.327Z" fill="white"/>
<path d="M231.65 29.504L228.931 25H227.539L230.258 29.504H231.65Z" fill="white"/>
<path d="M228.974 29.504L226.255 25H224.863L227.582 29.504H228.974Z" fill="white"/>
<path d="M226.298 29.504L223.579 25H222.187L224.906 29.504H226.298Z" fill="white"/>
<path d="M223.622 29.504L220.903 25H219.511L222.23 29.504H223.622Z" fill="white"/>
<path d="M220.945 29.504L218.226 25H216.835L219.554 29.504H220.945Z" fill="white"/>
<path d="M218.269 29.504L215.55 25H214.158L216.877 29.504H218.269Z" fill="white"/>
<path d="M215.593 29.504L212.874 25H211.482L214.201 29.504H215.593Z" fill="white"/>
<path d="M212.917 29.504L210.197 25H208.806L211.525 29.504H212.917Z" fill="white"/>
<path d="M210.24 29.504L207.521 25H206.13L208.849 29.504H210.24Z" fill="white"/>
<path d="M207.564 29.504L204.845 25H203.453L206.172 29.504H207.564Z" fill="white"/>
<path d="M204.888 29.504L202.169 25H200.777L203.496 29.504H204.888Z" fill="white"/>
<path d="M202.211 29.504L199.492 25H198.101L200.82 29.504H202.211Z" fill="white"/>
<path d="M199.535 29.504L196.816 25H195.424L198.144 29.504H199.535Z" fill="white"/>
<path d="M196.859 29.504L194.14 25H192.748L195.467 29.504H196.859Z" fill="white"/>
<path d="M194.183 29.504L191.464 25H190.072L192.791 29.504H194.183Z" fill="white"/>
<path d="M191.506 29.504L188.787 25H187.396L190.115 29.504H191.506Z" fill="white"/>
<path d="M188.83 29.504L186.111 25H184.72L187.439 29.504H188.83Z" fill="white"/>
<path d="M186.154 29.504L183.435 25H182.043L184.762 29.504H186.154Z" fill="white"/>
<path d="M183.478 29.504L180.759 25H179.367L182.086 29.504H183.478Z" fill="white"/>
<path d="M180.802 29.504L178.082 25H176.691L179.41 29.504H180.802Z" fill="white"/>
<path d="M178.125 29.504L175.406 25H174.014L176.733 29.504H178.125Z" fill="white"/>
<path d="M175.449 29.504L172.73 25H171.338L174.057 29.504H175.449Z" fill="white"/>
<path d="M172.772 29.504L170.053 25H168.662L171.381 29.504H172.772Z" fill="white"/>
<path d="M170.096 29.504L167.377 25H165.986L168.705 29.504H170.096Z" fill="white"/>
<path d="M167.42 29.504L164.701 25H163.309L166.028 29.504H167.42Z" fill="white"/>
<path d="M164.744 29.504L162.025 25H160.633L163.352 29.504H164.744Z" fill="white"/>
<path d="M162.068 29.504L159.349 25H157.957L160.676 29.504H162.068Z" fill="white"/>
<path d="M159.391 29.504L156.672 25H155.281L158 29.504H159.391Z" fill="white"/>
<path d="M156.715 29.504L153.996 25H152.604L155.323 29.504H156.715Z" fill="white"/>
<path d="M154.039 29.504L151.32 25H149.928L152.647 29.504H154.039Z" fill="white"/>
<path d="M151.363 29.504L148.643 25H147.252L149.971 29.504H151.363Z" fill="white"/>
<path d="M148.687 29.504L145.967 25H144.576L147.295 29.504H148.687Z" fill="white"/>
<path d="M146.01 29.504L143.291 25H141.899L144.618 29.504H146.01Z" fill="white"/>
<path d="M143.334 29.504L140.615 25H139.223L141.942 29.504H143.334Z" fill="white"/>
<path d="M140.657 29.504L137.938 25H136.547L139.266 29.504H140.657Z" fill="white"/>
<path d="M137.981 29.504L135.262 25H133.87L136.59 29.504H137.981Z" fill="white"/>
<path d="M135.305 29.504L132.586 25H131.194L133.914 29.504H135.305Z" fill="white"/>
<path d="M132.629 29.504L129.91 25H128.518L131.237 29.504H132.629Z" fill="white"/>
<path d="M129.953 29.504L127.234 25H125.842L128.561 29.504H129.953Z" fill="white"/>
<path d="M127.276 29.504L124.557 25H123.165L125.884 29.504H127.276Z" fill="white"/>
<path d="M124.6 29.504L121.881 25H120.489L123.208 29.504H124.6Z" fill="white"/>
<path d="M121.924 29.504L119.205 25H117.813L120.532 29.504H121.924Z" fill="white"/>
<path d="M119.247 29.504L116.528 25H115.137L117.856 29.504H119.247Z" fill="white"/>
<path d="M116.571 29.504L113.852 25H112.461L115.18 29.504H116.571Z" fill="white"/>
<path d="M113.895 29.504L111.176 25H109.784L112.503 29.504H113.895Z" fill="white"/>
<path d="M111.219 29.504L108.5 25H107.108L109.827 29.504H111.219Z" fill="white"/>
<path d="M108.542 29.504L105.823 25H104.432L107.151 29.504H108.542Z" fill="white"/>
<path d="M105.866 29.504L103.147 25H101.755L104.475 29.504H105.866Z" fill="white"/>
<path d="M103.19 29.504L100.471 25H99.0792L101.798 29.504H103.19Z" fill="white"/>
<path d="M100.514 29.504L97.7946 25H96.4029L99.122 29.504H100.514Z" fill="white"/>
<path d="M97.8374 29.504L95.1183 25H93.7267L96.4457 29.504H97.8374Z" fill="white"/>
<path d="M95.1611 29.504L92.4421 25H91.0504L93.7695 29.504H95.1611Z" fill="white"/>
<path d="M92.4849 29.504L89.7658 25H88.3741L91.0932 29.504H92.4849Z" fill="white"/>
<path d="M89.8086 29.504L87.0895 25H85.6979L88.4169 29.504H89.8086Z" fill="white"/>
<path d="M87.1323 29.504L84.4132 25H83.0216L85.7407 29.504H87.1323Z" fill="white"/>
<path d="M84.4562 29.504L81.7371 25H80.3454L83.0645 29.504H84.4562Z" fill="white"/>
<path d="M81.7799 29.504L79.0608 25H77.6692L80.3883 29.504H81.7799Z" fill="white"/>
<path d="M79.1035 29.504L76.3844 25H74.9928L77.7119 29.504H79.1035Z" fill="white"/>
<path d="M76.4272 29.504L73.7082 25H72.3165L75.0356 29.504H76.4272Z" fill="white"/>
<path d="M73.751 29.504L71.0319 25H69.6402L72.3593 29.504H73.751Z" fill="white"/>
<path d="M71.0748 29.504L68.3558 25H66.9641L69.6832 29.504H71.0748Z" fill="white"/>
<path d="M68.3984 29.504L65.6794 25H64.2877L67.0068 29.504H68.3984Z" fill="white"/>
<path d="M65.7223 29.504L63.0032 25H61.6116L64.3306 29.504H65.7223Z" fill="white"/>
<path d="M63.046 29.504L60.3269 25H58.9353L61.6544 29.504H63.046Z" fill="white"/>
<path d="M60.3698 29.504L57.6507 25H56.259L58.9781 29.504H60.3698Z" fill="white"/>
<path d="M57.6935 29.504L54.9744 25H53.5827L56.3018 29.504H57.6935Z" fill="white"/>
<path d="M55.0172 29.504L52.2981 25H50.9065L53.6256 29.504H55.0172Z" fill="white"/>
<path d="M52.3411 29.504L49.622 25H48.2303L50.9494 29.504H52.3411Z" fill="white"/>
<path d="M49.6648 29.504L46.9457 25H45.5541L48.2731 29.504H49.6648Z" fill="white"/>
<path d="M46.9885 29.504L44.2694 25H42.8778L45.5969 29.504H46.9885Z" fill="white"/>
<path d="M44.3121 29.504L41.5931 25H40.2014L42.9205 29.504H44.3121Z" fill="white"/>
<path d="M41.6359 29.504L38.9168 25H37.5251L40.2442 29.504H41.6359Z" fill="white"/>
<path d="M38.9597 29.504L36.2406 25H34.849L37.5681 29.504H38.9597Z" fill="white"/>
<path d="M36.2834 29.504L33.5644 25H32.1727L34.8918 29.504H36.2834Z" fill="white"/>
<path d="M33.6072 29.504L30.8881 25H29.4964L32.2155 29.504H33.6072Z" fill="white"/>
<path d="M30.9309 29.504L28.2118 25H26.8202L29.5393 29.504H30.9309Z" fill="white"/>
<path d="M28.2546 29.504L25.5356 25H24.1439L26.863 29.504H28.2546Z" fill="white"/>
<path d="M25.5785 29.504L22.8594 25H21.4678L24.1868 29.504H25.5785Z" fill="white"/>
<path d="M22.9021 29.504L20.183 25H18.7914L21.5104 29.504H22.9021Z" fill="white"/>
<path d="M20.2258 29.504L17.5068 25H16.1151L18.8342 29.504H20.2258Z" fill="white"/>
<path d="M17.5496 29.504L14.8305 25H13.4388L16.1579 29.504H17.5496Z" fill="white"/>
<path d="M14.8733 29.504L12.1542 25H10.7626L13.4816 29.504H14.8733Z" fill="white"/>
<path d="M12.1971 29.504L9.47806 25H8.08641L10.8055 29.504H12.1971Z" fill="white"/>
<path d="M9.52075 29.504L6.80167 25H5.41002L8.1291 29.504H9.52075Z" fill="white"/>
<path d="M6.8446 29.504L4.12553 25H2.73387L5.45295 29.504H6.8446Z" fill="white"/>
<path d="M4.16833 29.504L1.44926 25H0.0576015L2.77668 29.504H4.16833Z" fill="white"/>
<path d="M344.053 39.504L341.334 35H339.942L342.662 39.504H344.053Z" fill="white"/>
<path d="M341.377 39.504L338.658 35H337.266L339.985 39.504H341.377Z" fill="white"/>
<path d="M338.701 39.504L335.982 35H334.59L337.309 39.504H338.701Z" fill="white"/>
<path d="M336.024 39.504L333.305 35H331.914L334.633 39.504H336.024Z" fill="white"/>
<path d="M333.348 39.504L330.629 35H329.237L331.956 39.504H333.348Z" fill="white"/>
<path d="M330.672 39.504L327.953 35H326.561L329.28 39.504H330.672Z" fill="white"/>
<path d="M327.996 39.504L325.277 35H323.885L326.604 39.504H327.996Z" fill="white"/>
<path d="M325.32 39.504L322.601 35H321.209L323.928 39.504H325.32Z" fill="white"/>
<path d="M322.643 39.504L319.924 35H318.532L321.251 39.504H322.643Z" fill="white"/>
<path d="M319.967 39.504L317.248 35H315.856L318.575 39.504H319.967Z" fill="white"/>
<path d="M317.291 39.504L314.571 35H313.18L315.899 39.504H317.291Z" fill="white"/>
<path d="M314.614 39.504L311.895 35H310.504L313.223 39.504H314.614Z" fill="white"/>
<path d="M311.938 39.504L309.219 35H307.827L310.547 39.504H311.938Z" fill="white"/>
<path d="M309.262 39.504L306.543 35H305.151L307.87 39.504H309.262Z" fill="white"/>
<path d="M306.586 39.504L303.867 35H302.475L305.194 39.504H306.586Z" fill="white"/>
<path d="M303.909 39.504L301.19 35H299.798L302.518 39.504H303.909Z" fill="white"/>
<path d="M301.233 39.504L298.514 35H297.122L299.841 39.504H301.233Z" fill="white"/>
<path d="M298.557 39.504L295.838 35H294.446L297.165 39.504H298.557Z" fill="white"/>
<path d="M295.881 39.504L293.162 35H291.77L294.489 39.504H295.881Z" fill="white"/>
<path d="M293.204 39.504L290.485 35H289.094L291.813 39.504H293.204Z" fill="white"/>
<path d="M290.528 39.504L287.809 35H286.417L289.136 39.504H290.528Z" fill="white"/>
<path d="M287.852 39.504L285.133 35H283.741L286.46 39.504H287.852Z" fill="white"/>
<path d="M285.176 39.504L282.456 35H281.065L283.784 39.504H285.176Z" fill="white"/>
<path d="M282.499 39.504L279.78 35H278.389L281.108 39.504H282.499Z" fill="white"/>
<path d="M279.823 39.504L277.104 35H275.712L278.431 39.504H279.823Z" fill="white"/>
<path d="M277.147 39.504L274.428 35H273.036L275.755 39.504H277.147Z" fill="white"/>
<path d="M274.47 39.504L271.751 35H270.36L273.079 39.504H274.47Z" fill="white"/>
<path d="M271.794 39.504L269.075 35H267.683L270.403 39.504H271.794Z" fill="white"/>
<path d="M269.118 39.504L266.399 35H265.007L267.726 39.504H269.118Z" fill="white"/>
<path d="M266.442 39.504L263.723 35H262.331L265.05 39.504H266.442Z" fill="white"/>
<path d="M263.765 39.504L261.046 35H259.655L262.374 39.504H263.765Z" fill="white"/>
<path d="M261.089 39.504L258.37 35H256.978L259.697 39.504H261.089Z" fill="white"/>
<path d="M258.413 39.504L255.694 35H254.302L257.021 39.504H258.413Z" fill="white"/>
<path d="M255.737 39.504L253.017 35H251.626L254.345 39.504H255.737Z" fill="white"/>
<path d="M253.061 39.504L250.341 35H248.95L251.669 39.504H253.061Z" fill="white"/>
<path d="M250.384 39.504L247.665 35H246.273L248.992 39.504H250.384Z" fill="white"/>
<path d="M247.708 39.504L244.989 35H243.597L246.316 39.504H247.708Z" fill="white"/>
<path d="M245.031 39.504L242.312 35H240.921L243.64 39.504H245.031Z" fill="white"/>
<path d="M242.355 39.504L239.636 35H238.245L240.964 39.504H242.355Z" fill="white"/>
<path d="M239.679 39.504L236.96 35H235.568L238.288 39.504H239.679Z" fill="white"/>
<path d="M237.003 39.504L234.284 35H232.892L235.611 39.504H237.003Z" fill="white"/>
<path d="M234.327 39.504L231.608 35H230.216L232.935 39.504H234.327Z" fill="white"/>
<path d="M231.65 39.504L228.931 35H227.539L230.258 39.504H231.65Z" fill="white"/>
<path d="M228.974 39.504L226.255 35H224.863L227.582 39.504H228.974Z" fill="white"/>
<path d="M226.298 39.504L223.579 35H222.187L224.906 39.504H226.298Z" fill="white"/>
<path d="M223.622 39.504L220.903 35H219.511L222.23 39.504H223.622Z" fill="white"/>
<path d="M220.945 39.504L218.226 35H216.835L219.554 39.504H220.945Z" fill="white"/>
<path d="M218.269 39.504L215.55 35H214.158L216.877 39.504H218.269Z" fill="white"/>
<path d="M215.593 39.504L212.874 35H211.482L214.201 39.504H215.593Z" fill="white"/>
<path d="M212.917 39.504L210.197 35H208.806L211.525 39.504H212.917Z" fill="white"/>
<path d="M210.24 39.504L207.521 35H206.13L208.849 39.504H210.24Z" fill="white"/>
<path d="M207.564 39.504L204.845 35H203.453L206.172 39.504H207.564Z" fill="white"/>
<path d="M204.888 39.504L202.169 35H200.777L203.496 39.504H204.888Z" fill="white"/>
<path d="M202.211 39.504L199.492 35H198.101L200.82 39.504H202.211Z" fill="white"/>
<path d="M199.535 39.504L196.816 35H195.424L198.144 39.504H199.535Z" fill="white"/>
<path d="M196.859 39.504L194.14 35H192.748L195.467 39.504H196.859Z" fill="white"/>
<path d="M194.183 39.504L191.464 35H190.072L192.791 39.504H194.183Z" fill="white"/>
<path d="M191.506 39.504L188.787 35H187.396L190.115 39.504H191.506Z" fill="white"/>
<path d="M188.83 39.504L186.111 35H184.72L187.439 39.504H188.83Z" fill="white"/>
<path d="M186.154 39.504L183.435 35H182.043L184.762 39.504H186.154Z" fill="white"/>
<path d="M183.478 39.504L180.759 35H179.367L182.086 39.504H183.478Z" fill="white"/>
<path d="M180.802 39.504L178.082 35H176.691L179.41 39.504H180.802Z" fill="white"/>
<path d="M178.125 39.504L175.406 35H174.014L176.733 39.504H178.125Z" fill="white"/>
<path d="M175.449 39.504L172.73 35H171.338L174.057 39.504H175.449Z" fill="white"/>
<path d="M172.772 39.504L170.053 35H168.662L171.381 39.504H172.772Z" fill="white"/>
<path d="M170.096 39.504L167.377 35H165.986L168.705 39.504H170.096Z" fill="white"/>
<path d="M167.42 39.504L164.701 35H163.309L166.028 39.504H167.42Z" fill="white"/>
<path d="M164.744 39.504L162.025 35H160.633L163.352 39.504H164.744Z" fill="white"/>
<path d="M162.068 39.504L159.349 35H157.957L160.676 39.504H162.068Z" fill="white"/>
<path d="M159.391 39.504L156.672 35H155.281L158 39.504H159.391Z" fill="white"/>
<path d="M156.715 39.504L153.996 35H152.604L155.323 39.504H156.715Z" fill="white"/>
<path d="M154.039 39.504L151.32 35H149.928L152.647 39.504H154.039Z" fill="white"/>
<path d="M151.363 39.504L148.643 35H147.252L149.971 39.504H151.363Z" fill="white"/>
<path d="M148.687 39.504L145.967 35H144.576L147.295 39.504H148.687Z" fill="white"/>
<path d="M146.01 39.504L143.291 35H141.899L144.618 39.504H146.01Z" fill="white"/>
<path d="M143.334 39.504L140.615 35H139.223L141.942 39.504H143.334Z" fill="white"/>
<path d="M140.657 39.504L137.938 35H136.547L139.266 39.504H140.657Z" fill="white"/>
<path d="M137.981 39.504L135.262 35H133.87L136.59 39.504H137.981Z" fill="white"/>
<path d="M135.305 39.504L132.586 35H131.194L133.914 39.504H135.305Z" fill="white"/>
<path d="M132.629 39.504L129.91 35H128.518L131.237 39.504H132.629Z" fill="white"/>
<path d="M129.953 39.504L127.234 35H125.842L128.561 39.504H129.953Z" fill="white"/>
<path d="M127.276 39.504L124.557 35H123.165L125.884 39.504H127.276Z" fill="white"/>
<path d="M124.6 39.504L121.881 35H120.489L123.208 39.504H124.6Z" fill="white"/>
<path d="M121.924 39.504L119.205 35H117.813L120.532 39.504H121.924Z" fill="white"/>
<path d="M119.247 39.504L116.528 35H115.137L117.856 39.504H119.247Z" fill="white"/>
<path d="M116.571 39.504L113.852 35H112.461L115.18 39.504H116.571Z" fill="white"/>
<path d="M113.895 39.504L111.176 35H109.784L112.503 39.504H113.895Z" fill="white"/>
<path d="M111.219 39.504L108.5 35H107.108L109.827 39.504H111.219Z" fill="white"/>
<path d="M108.542 39.504L105.823 35H104.432L107.151 39.504H108.542Z" fill="white"/>
<path d="M105.866 39.504L103.147 35H101.755L104.475 39.504H105.866Z" fill="white"/>
<path d="M103.19 39.504L100.471 35H99.0792L101.798 39.504H103.19Z" fill="white"/>
<path d="M100.514 39.504L97.7946 35H96.4029L99.122 39.504H100.514Z" fill="white"/>
<path d="M97.8374 39.504L95.1183 35H93.7267L96.4457 39.504H97.8374Z" fill="white"/>
<path d="M95.1611 39.504L92.4421 35H91.0504L93.7695 39.504H95.1611Z" fill="white"/>
<path d="M92.4849 39.504L89.7658 35H88.3741L91.0932 39.504H92.4849Z" fill="white"/>
<path d="M89.8086 39.504L87.0895 35H85.6979L88.4169 39.504H89.8086Z" fill="white"/>
<path d="M87.1323 39.504L84.4132 35H83.0216L85.7407 39.504H87.1323Z" fill="white"/>
<path d="M84.4562 39.504L81.7371 35H80.3454L83.0645 39.504H84.4562Z" fill="white"/>
<path d="M81.7799 39.504L79.0608 35H77.6692L80.3883 39.504H81.7799Z" fill="white"/>
<path d="M79.1035 39.504L76.3844 35H74.9928L77.7119 39.504H79.1035Z" fill="white"/>
<path d="M76.4272 39.504L73.7082 35H72.3165L75.0356 39.504H76.4272Z" fill="white"/>
<path d="M73.751 39.504L71.0319 35H69.6402L72.3593 39.504H73.751Z" fill="white"/>
<path d="M71.0748 39.504L68.3558 35H66.9641L69.6832 39.504H71.0748Z" fill="white"/>
<path d="M68.3984 39.504L65.6794 35H64.2877L67.0068 39.504H68.3984Z" fill="white"/>
<path d="M65.7223 39.504L63.0032 35H61.6116L64.3306 39.504H65.7223Z" fill="white"/>
<path d="M63.046 39.504L60.3269 35H58.9353L61.6544 39.504H63.046Z" fill="white"/>
<path d="M60.3698 39.504L57.6507 35H56.259L58.9781 39.504H60.3698Z" fill="white"/>
<path d="M57.6935 39.504L54.9744 35H53.5827L56.3018 39.504H57.6935Z" fill="white"/>
<path d="M55.0172 39.504L52.2981 35H50.9065L53.6256 39.504H55.0172Z" fill="white"/>
<path d="M52.3411 39.504L49.622 35H48.2303L50.9494 39.504H52.3411Z" fill="white"/>
<path d="M49.6648 39.504L46.9457 35H45.5541L48.2731 39.504H49.6648Z" fill="white"/>
<path d="M46.9885 39.504L44.2694 35H42.8778L45.5969 39.504H46.9885Z" fill="white"/>
<path d="M44.3121 39.504L41.5931 35H40.2014L42.9205 39.504H44.3121Z" fill="white"/>
<path d="M41.6359 39.504L38.9168 35H37.5251L40.2442 39.504H41.6359Z" fill="white"/>
<path d="M38.9597 39.504L36.2406 35H34.849L37.5681 39.504H38.9597Z" fill="white"/>
<path d="M36.2834 39.504L33.5644 35H32.1727L34.8918 39.504H36.2834Z" fill="white"/>
<path d="M33.6072 39.504L30.8881 35H29.4964L32.2155 39.504H33.6072Z" fill="white"/>
<path d="M30.9309 39.504L28.2118 35H26.8202L29.5393 39.504H30.9309Z" fill="white"/>
<path d="M28.2546 39.504L25.5356 35H24.1439L26.863 39.504H28.2546Z" fill="white"/>
<path d="M25.5785 39.504L22.8594 35H21.4678L24.1868 39.504H25.5785Z" fill="white"/>
<path d="M22.9021 39.504L20.183 35H18.7914L21.5104 39.504H22.9021Z" fill="white"/>
<path d="M20.2258 39.504L17.5068 35H16.1151L18.8342 39.504H20.2258Z" fill="white"/>
<path d="M17.5496 39.504L14.8305 35H13.4388L16.1579 39.504H17.5496Z" fill="white"/>
<path d="M14.8733 39.504L12.1542 35H10.7626L13.4816 39.504H14.8733Z" fill="white"/>
<path d="M12.1971 39.504L9.47806 35H8.08641L10.8055 39.504H12.1971Z" fill="white"/>
<path d="M9.52075 39.504L6.80167 35H5.41002L8.1291 39.504H9.52075Z" fill="white"/>
<path d="M6.8446 39.504L4.12553 35H2.73387L5.45295 39.504H6.8446Z" fill="white"/>
<path d="M4.16833 39.504L1.44926 35H0.0576015L2.77668 39.504H4.16833Z" fill="white"/>
</svg>
