<svg width="22" height="17" viewBox="0 0 22 17" fill="none" xmlns="http://www.w3.org/2000/svg">
<path d="M15.3979 16.9377H13.8581V15.3979H15.3979V16.9377Z" fill="#3BE06D"/>
<path d="M16.9377 16.9377H15.3979V15.3979H16.9377V16.9377Z" fill="#3BE06D"/>
<path d="M18.4775 15.3979H16.9377V13.8581H18.4775V15.3979Z" fill="#3BE06D"/>
<path d="M4.55872 15.3979H3.0189V13.8581H4.55872V15.3979Z" fill="#3BE06D"/>
<path d="M18.9565 13.8582H17.4167V12.3183H18.9565V13.8582Z" fill="#3BE06D"/>
<path d="M5.03766 13.8582H3.49785V12.3183H5.03766V13.8582Z" fill="#3BE06D"/>
<path d="M19.8854 12.3184H18.3456V10.7785H19.8854V12.3184Z" fill="#3BE06D"/>
<path d="M5.96655 12.3184H4.42674V10.7785H5.96655V12.3184Z" fill="#3BE06D"/>
<path d="M20.5821 10.7786H19.0423V9.23875H20.5821V10.7786Z" fill="#3BE06D"/>
<path d="M6.66321 10.7786H5.1234V9.23875H6.66321V10.7786Z" fill="#3BE06D"/>
<path d="M21.2787 9.23877H19.7389V7.69896H21.2787V9.23877Z" fill="#3BE06D"/>
<path d="M7.35992 9.23877H5.82011V7.69896H7.35992V9.23877Z" fill="#3BE06D"/>
<path d="M21.7432 7.69897H20.2034V6.15916H21.7432V7.69897Z" fill="#3BE06D"/>
<path d="M20.5517 7.69897H6.28452V6.15916H20.5517V7.69897Z" fill="#3BE06D"/>
<path d="M18.4775 6.15918H16.9377V4.61937H18.4775V6.15918Z" fill="#3BE06D"/>
<path d="M16.9377 4.61951H15.3979V3.07969H16.9377V4.61951Z" fill="#3BE06D"/>
<path d="M3.07965 1.53979H1.53984V-1.84774e-05H3.07965V1.53979Z" fill="#3BE06D"/>
<path d="M4.61938 1.53979H3.07957V-1.84774e-05H4.61938V1.53979Z" fill="#3BE06D"/>
<path d="M6.15924 1.53979H4.61943V-1.84774e-05H6.15924V1.53979Z" fill="#3BE06D"/>
<path d="M7.69897 1.53979H6.15916V-1.84774e-05H7.69897V1.53979Z" fill="#3BE06D"/>
<path d="M7.69897 15.3979H9.23879V16.9378H7.69897V15.3979Z" fill="#3BE06D"/>
<path d="M6.15924 15.3979H7.69905V16.9378H6.15924V15.3979Z" fill="#3BE06D"/>
<path d="M4.61938 15.3979H6.1592V16.9378H4.61938V15.3979Z" fill="#3BE06D"/>
<path d="M3.07965 15.3979H4.61946V16.9378H3.07965V15.3979Z" fill="#3BE06D"/>
<path d="M12.3184 15.3979H13.8582V16.9378H12.3184V15.3979Z" fill="#3BE06D"/>
<path d="M15.3979 4.61951H13.8581V3.07969H15.3979V4.61951Z" fill="#3BE06D"/>
<path d="M12.3184 3.07959H13.8582V4.6194H12.3184V3.07959Z" fill="#3BE06D"/>
<path d="M10.7786 15.3979H12.3184V16.9378H10.7786V15.3979Z" fill="#3BE06D"/>
<path d="M10.7786 3.07959H12.3184V4.6194H10.7786V3.07959Z" fill="#3BE06D"/>
<path d="M9.23877 15.3979H10.7786V16.9378H9.23877V15.3979Z" fill="#3BE06D"/>
<path d="M3.07965 16.9377H1.53984V15.3979H3.07965V16.9377Z" fill="#3BE06D"/>
<path d="M1.53979 15.3979H-1.8239e-05V13.8581H1.53979V15.3979Z" fill="#3BE06D"/>
<path d="M1.53979 13.8582H-1.8239e-05V12.3183H1.53979V13.8582Z" fill="#3BE06D"/>
<path d="M1.53979 12.3184H-1.8239e-05V10.7785H1.53979V12.3184Z" fill="#3BE06D"/>
<path d="M1.53979 10.7786H-1.8239e-05V9.23875H1.53979V10.7786Z" fill="#3BE06D"/>
<path d="M1.53979 9.23877H-1.8239e-05V7.69896H1.53979V9.23877Z" fill="#3BE06D"/>
<path d="M1.53979 7.69897H-1.8239e-05V6.15916H1.53979V7.69897Z" fill="#3BE06D"/>
<path d="M1.53979 6.15918H-1.8239e-05V4.61937H1.53979V6.15918Z" fill="#3BE06D"/>
<path d="M1.53979 4.61951H-1.8239e-05V3.07969H1.53979V4.61951Z" fill="#3BE06D"/>
<path d="M3.07965 4.61951H1.53984V3.07969H3.07965V4.61951Z" fill="#3BE06D"/>
<path d="M4.61938 4.61951H3.07957V3.07969H4.61938V4.61951Z" fill="#3BE06D"/>
<path d="M6.15924 4.61951H4.61943V3.07969H6.15924V4.61951Z" fill="#3BE06D"/>
<path d="M7.69897 4.61951H6.15916V3.07969H7.69897V4.61951Z" fill="#3BE06D"/>
<path d="M9.23877 4.61951H7.69896V3.07969H9.23877V4.61951Z" fill="#3BE06D"/>
<path d="M1.53979 3.07971H-1.8239e-05V1.5399H1.53979V3.07971Z" fill="#3BE06D"/>
<path d="M9.23877 3.07971H7.69896V1.5399H9.23877V3.07971Z" fill="#3BE06D"/>
<path d="M10.7786 4.61951H9.23881V3.07969H10.7786V4.61951Z" fill="#3BE06D"/>
</svg>
