<svg width="9" height="9" viewBox="0 0 9 9" fill="none" xmlns="http://www.w3.org/2000/svg">
<g clip-path="url(#clip0_128_2565)">
<path d="M8.78468 2.35687H8.35718V3.21469H8.78468V2.35687Z" fill="black"/>
<path d="M8.35719 1.92938H7.92969V2.35688H8.35719V1.92938Z" fill="black"/>
<path d="M8.35732 3.21469H7.49951V3.64219H8.35732V3.21469Z" fill="black"/>
<path d="M7.92982 1.49905H7.49951V1.92937H7.92982V1.49905Z" fill="black"/>
<path d="M7.49952 2.78436H7.07202V3.21468H7.49952V2.78436Z" fill="black"/>
<path d="M7.49952 1.07156H7.07202V1.49906H7.49952V1.07156Z" fill="black"/>
<path d="M7.07191 3.21469H6.6416V3.64219H7.07191V3.21469Z" fill="black"/>
<path d="M7.07191 2.35687H6.6416V2.78437H7.07191V2.35687Z" fill="black"/>
<path d="M7.07191 0.641235H6.6416V1.07155H7.07191V0.641235Z" fill="black"/>
<path d="M6.64161 4.92749H6.21411V6.2128H6.64161V4.92749Z" fill="black"/>
<path d="M6.64161 3.64218H6.21411V4.06968H6.64161V3.64218Z" fill="black"/>
<path d="M6.64161 1.92938H6.21411V2.35688H6.64161V1.92938Z" fill="black"/>
<path d="M6.64162 0.213745H5.78662V0.641245H6.64162V0.213745Z" fill="black"/>
<path d="M6.21412 6.2128H5.78662V7.07061H6.21412V6.2128Z" fill="black"/>
<path d="M6.21412 4.06967H5.78662V4.92748H6.21412V4.06967Z" fill="black"/>
<path d="M6.21412 1.49905H5.78662V1.92937H6.21412V1.49905Z" fill="black"/>
<path d="M5.78676 7.07062H5.35645V7.49812H5.78676V7.07062Z" fill="black"/>
<path d="M5.78676 1.92938H5.35645V2.35688H5.78676V1.92938Z" fill="black"/>
<path d="M5.78676 0.641235H5.35645V1.49905H5.78676V0.641235Z" fill="black"/>
<path d="M5.35646 4.5H4.92896V4.9275H5.35646V4.5Z" fill="black"/>
<path d="M5.35646 2.35687H4.92896V2.78437H5.35646V2.35687Z" fill="black"/>
<path d="M5.35622 7.49811H4.50122V7.92842H5.35622V7.49811Z" fill="black"/>
<path d="M4.92872 4.06967H4.50122V4.49998H4.92872V4.06967Z" fill="black"/>
<path d="M4.50136 7.07062H4.07104V7.49812H4.50136V7.07062Z" fill="black"/>
<path d="M4.50136 3.64218H4.07104V4.06968H4.50136V3.64218Z" fill="black"/>
<path d="M4.92886 2.78436H4.07104V3.21468H4.92886V2.78436Z" fill="black"/>
<path d="M4.07105 6.64313H3.64355V7.07063H4.07105V6.64313Z" fill="black"/>
<path d="M1.0729 8.35594H1.5004V7.92844H1.9279V7.49813H2.35821V7.07063H2.78571V6.64313H3.64353V6.21282H3.21321V5.78532H2.78571V5.35782H2.35821V6.21282H1.9279V6.64313H1.5004V7.07063H1.0729V7.49813H0.642588V7.92844H0.215088V8.78626H1.0729V8.35594Z" fill="black"/>
<path d="M4.07096 2.35687H2.78564V2.78437H4.07096V2.35687Z" fill="black"/>
<path d="M2.78579 2.78436H1.92798V3.21468H2.78579V2.78436Z" fill="black"/>
<path d="M2.35829 4.92749H1.92798V5.3578H2.35829V4.92749Z" fill="black"/>
<path d="M1.92799 4.5H1.50049V4.9275H1.92799V4.5Z" fill="black"/>
<path d="M1.92799 3.21469H1.50049V3.64219H1.92799V3.21469Z" fill="black"/>
<path d="M1.5005 3.64218H1.073V4.49999H1.5005V3.64218Z" fill="black"/>
</g>
<defs>
<clipPath id="clip0_128_2565">
<rect width="9" height="9" fill="white"/>
</clipPath>
</defs>
</svg>
