<svg width="20" height="20" viewBox="0 0 20 20" fill="none" xmlns="http://www.w3.org/2000/svg">
<g clip-path="url(#clip0_128_14496)">
<path d="M15.2375 12.3813H14.2812V14.2875H12.3812V15.2375H10.475V16.1875H13.3312V17.1438H14.2812V18.0938H15.2375V19.05H16.1875V20H17.1437V19.05H18.0937V18.0938H19.0437V17.1438H20V16.1875H19.0437V15.2375H18.0937V14.2875H17.1437V13.3313H16.1875V10.475H15.2375V12.3813Z" fill="white"/>
<path d="M17.1438 6.66875H16.1875V10.475H17.1438V6.66875Z" fill="white"/>
<path d="M16.1875 4.7625H15.2375V6.66875H16.1875V4.7625Z" fill="white"/>
<path d="M15.2375 2.85625H14.2812V4.7625H15.2375V2.85625Z" fill="white"/>
<path d="M14.2812 7.61874H13.3312V9.52499H14.2812V7.61874Z" fill="white"/>
<path d="M13.3312 5.71249H12.3812V7.61874H13.3312V5.71249Z" fill="white"/>
<path d="M14.2812 1.90625H12.3812V2.85625H14.2812V1.90625Z" fill="white"/>
<path d="M12.3812 4.7625H10.475V5.7125H12.3812V4.7625Z" fill="white"/>
<path d="M12.3812 0.949997H10.475V1.90625H12.3812V0.949997Z" fill="white"/>
<path d="M10.475 3.8125H8.56873V4.7625H10.475V3.8125Z" fill="white"/>
<path d="M10.475 16.1875H6.66248V17.1438H10.475V16.1875Z" fill="white"/>
<path d="M10.475 0H6.66248V0.95H10.475V0Z" fill="white"/>
<path d="M6.66251 15.2375H4.76251V16.1875H6.66251V15.2375Z" fill="white"/>
<path d="M6.66251 0.949997H4.76251V1.90625H6.66251V0.949997Z" fill="white"/>
<path d="M4.76251 14.2875H2.85626V15.2375H4.76251V14.2875Z" fill="white"/>
<path d="M4.76251 1.90625H2.85626V2.85625H4.76251V1.90625Z" fill="white"/>
<path d="M2.85625 12.3813H1.90625V14.2875H2.85625V12.3813Z" fill="white"/>
<path d="M2.85625 2.85625H1.90625V4.7625H2.85625V2.85625Z" fill="white"/>
<path d="M1.90626 10.475H0.950012V12.3813H1.90626V10.475Z" fill="white"/>
<path d="M1.90626 4.7625H0.950012V6.66875H1.90626V4.7625Z" fill="white"/>
<path d="M0.95 6.66875H0V10.475H0.95V6.66875Z" fill="white"/>
</g>
<defs>
<clipPath id="clip0_128_14496">
<rect width="20" height="20" fill="white"/>
</clipPath>
</defs>
</svg>
