<svg width="20" height="17" viewBox="0 0 20 17" fill="none" xmlns="http://www.w3.org/2000/svg">
<path d="M16.0308 16.9377H14.4909V15.3979H16.0308V16.9377Z" fill="#6E97FF"/>
<path d="M17.5706 16.9377H16.0308V15.3979H17.5706V16.9377Z" fill="#6E97FF"/>
<path d="M19.1104 15.3979H17.5705V13.8581H19.1104V15.3979Z" fill="#6E97FF"/>
<path d="M19.1104 13.8582H17.5705V12.3183H19.1104V13.8582Z" fill="#6E97FF"/>
<path d="M19.1104 12.3184H17.5705V10.7785H19.1104V12.3184Z" fill="#6E97FF"/>
<path d="M19.1104 10.7786H17.5705V9.23875H19.1104V10.7786Z" fill="#6E97FF"/>
<path d="M19.1104 9.23877H17.5705V7.69896H19.1104V9.23877Z" fill="#6E97FF"/>
<path d="M19.1104 7.69897H17.5705V6.15916H19.1104V7.69897Z" fill="#6E97FF"/>
<path d="M19.1104 6.15918H17.5705V4.61937H19.1104V6.15918Z" fill="#6E97FF"/>
<path d="M17.5706 4.61951H16.0308V3.07969H17.5706V4.61951Z" fill="#6E97FF"/>
<path d="M3.71246 1.53979H2.17265V-1.84774e-05H3.71246V1.53979Z" fill="#6E97FF"/>
<path d="M5.2522 1.53979H3.71238V-1.84774e-05H5.2522V1.53979Z" fill="#6E97FF"/>
<path d="M6.79205 1.53979H5.25224V-1.84774e-05H6.79205V1.53979Z" fill="#6E97FF"/>
<path d="M8.33179 1.53979H6.79197V-1.84774e-05H8.33179V1.53979Z" fill="#6E97FF"/>
<path d="M8.33179 15.3979H9.8716V16.9378H8.33179V15.3979Z" fill="#6E97FF"/>
<path d="M6.79205 15.3979H8.33187V16.9378H6.79205V15.3979Z" fill="#6E97FF"/>
<path d="M5.2522 15.3979H6.79201V16.9378H5.2522V15.3979Z" fill="#6E97FF"/>
<path d="M3.71246 15.3979H5.25228V16.9378H3.71246V15.3979Z" fill="#6E97FF"/>
<path d="M12.9512 15.3979H14.491V16.9378H12.9512V15.3979Z" fill="#6E97FF"/>
<path d="M16.0308 4.61951H14.4909V3.07969H16.0308V4.61951Z" fill="#6E97FF"/>
<path d="M12.9512 3.07959H14.491V4.6194H12.9512V3.07959Z" fill="#6E97FF"/>
<path d="M11.4114 15.3979H12.9513V16.9378H11.4114V15.3979Z" fill="#6E97FF"/>
<path d="M11.4114 3.07959H12.9513V4.6194H11.4114V3.07959Z" fill="#6E97FF"/>
<path d="M9.87164 15.3979H11.4115V16.9378H9.87164V15.3979Z" fill="#6E97FF"/>
<path d="M3.71246 16.9377H2.17265V15.3979H3.71246V16.9377Z" fill="#6E97FF"/>
<path d="M2.17267 15.3979H0.632855V13.8581H2.17267V15.3979Z" fill="#6E97FF"/>
<path d="M2.17267 13.8582H0.632855V12.3183H2.17267V13.8582Z" fill="#6E97FF"/>
<path d="M2.17267 12.3184H0.632855V10.7785H2.17267V12.3184Z" fill="#6E97FF"/>
<path d="M2.17267 10.7786H0.632855V9.23875H2.17267V10.7786Z" fill="#6E97FF"/>
<path d="M2.17267 9.23877H0.632855V7.69896H2.17267V9.23877Z" fill="#6E97FF"/>
<path d="M2.17267 7.69897H0.632855V6.15916H2.17267V7.69897Z" fill="#6E97FF"/>
<path d="M2.17267 6.15918H0.632855V4.61937H2.17267V6.15918Z" fill="#6E97FF"/>
<path d="M2.17267 4.61951H0.632855V3.07969H2.17267V4.61951Z" fill="#6E97FF"/>
<path d="M3.71246 4.61951H2.17265V3.07969H3.71246V4.61951Z" fill="#6E97FF"/>
<path d="M5.2522 4.61951H3.71238V3.07969H5.2522V4.61951Z" fill="#6E97FF"/>
<path d="M6.79205 4.61951H5.25224V3.07969H6.79205V4.61951Z" fill="#6E97FF"/>
<path d="M8.33179 4.61951H6.79197V3.07969H8.33179V4.61951Z" fill="#6E97FF"/>
<path d="M9.87164 4.61951H8.33183V3.07969H9.87164V4.61951Z" fill="#6E97FF"/>
<path d="M2.17267 3.07971H0.632855V1.5399H2.17267V3.07971Z" fill="#6E97FF"/>
<path d="M9.87164 3.07971H8.33183V1.5399H9.87164V3.07971Z" fill="#6E97FF"/>
<path d="M11.4114 4.61951H9.87162V3.07969H11.4114V4.61951Z" fill="#6E97FF"/>
</svg>
