<svg width="10" height="10" viewBox="0 0 10 10" fill="none" xmlns="http://www.w3.org/2000/svg">
<g clip-path="url(#clip0_128_13896)">
<path d="M9.0469 1.42812H8.5719V6.66562H9.0469V1.42812Z" fill="black"/>
<path d="M8.57188 6.66563H8.09375V7.61875H8.57188V6.66563Z" fill="black"/>
<path d="M8.09377 7.61875H7.61877V8.09375H8.09377V7.61875Z" fill="black"/>
<path d="M3.33126 1.42813H2.38126V1.90625H1.90314V6.66562H2.38126V4.7625H4.76251V8.57187H4.28439V9.04688H5.71251V8.57187H6.66564V8.09375H7.14064V7.61875H7.61876V6.66562H8.09376V1.90625H7.61876V4.7625H5.23751V1.42813H6.66564V0.953125H3.33126V1.42813Z" fill="black"/>
<path d="M8.5719 0.953125H7.61877V1.42813H8.5719V0.953125Z" fill="black"/>
<path d="M7.61875 8.09375H7.14062V8.57188H7.61875V8.09375Z" fill="black"/>
<path d="M7.14065 8.57188H6.66565V9.04688H7.14065V8.57188Z" fill="black"/>
<path d="M7.61877 1.42812H6.66565V1.90625H7.61877V1.42812Z" fill="black"/>
<path d="M7.61877 0.474998H6.66565V0.953123H7.61877V0.474998Z" fill="black"/>
<path d="M6.66565 9.04688H5.71252V9.525H6.66565V9.04688Z" fill="black"/>
<path d="M5.71249 9.525H4.28436V10H5.71249V9.525Z" fill="black"/>
<path d="M4.28436 9.04688H3.33124V9.525H4.28436V9.04688Z" fill="black"/>
<path d="M4.28436 8.09375H3.33124V8.57188H4.28436V8.09375Z" fill="black"/>
<path d="M6.66561 0H3.33124V0.475H6.66561V0Z" fill="black"/>
<path d="M3.33126 8.57188H2.85626V9.04688H3.33126V8.57188Z" fill="black"/>
<path d="M3.33126 7.61875H2.85626V8.09375H3.33126V7.61875Z" fill="black"/>
<path d="M3.33123 0.474998H2.38123V0.953123H3.33123V0.474998Z" fill="black"/>
<path d="M2.85623 8.09375H2.38123V8.57188H2.85623V8.09375Z" fill="black"/>
<path d="M2.85623 6.66563H2.38123V7.61875H2.85623V6.66563Z" fill="black"/>
<path d="M2.38126 7.61875H1.90314V8.09375H2.38126V7.61875Z" fill="black"/>
<path d="M2.38123 0.953125H1.4281V1.42813H2.38123V0.953125Z" fill="black"/>
<path d="M1.9031 6.66563H1.4281V7.61875H1.9031V6.66563Z" fill="black"/>
<path d="M1.42813 1.42812H0.953125V6.66562H1.42813V1.42812Z" fill="black"/>
</g>
<defs>
<clipPath id="clip0_128_13896">
<rect width="10" height="10" fill="white"/>
</clipPath>
</defs>
</svg>
