<svg width="20" height="20" viewBox="0 0 20 20" fill="none" xmlns="http://www.w3.org/2000/svg">
<g clip-path="url(#clip0_128_2260)">
<path d="M19.0469 2.85625H18.0969V7.61875H19.0469V2.85625Z" fill="white"/>
<path d="M18.097 7.61874H17.147V8.56874H18.097V7.61874Z" fill="white"/>
<path d="M18.097 1.90625H17.147V2.85625H18.097V1.90625Z" fill="white"/>
<path d="M17.1469 8.56876H16.1907V9.52501H17.1469V8.56876Z" fill="white"/>
<path d="M16.1907 9.52499H15.2407V10.475H16.1907V9.52499Z" fill="white"/>
<path d="M15.2406 1.90625H4.76563V2.85625H2.85938V4.7625H4.76563V5.7125H6.66563V6.66875H13.3344V5.7125H15.2406V4.7625H17.1469V2.85625H15.2406V1.90625Z" fill="white"/>
<path d="M17.147 0.949997H15.2407V1.90625H17.147V0.949997Z" fill="white"/>
<path d="M15.2407 10.475H14.2844V11.4313H15.2407V10.475Z" fill="white"/>
<path d="M14.2845 11.4312H13.3345V12.3812H14.2845V11.4312Z" fill="white"/>
<path d="M13.3343 12.3813H12.3843V13.3313H13.3343V12.3813Z" fill="white"/>
<path d="M12.3845 13.3313H11.4282V18.0938H12.3845V13.3313Z" fill="white"/>
<path d="M11.428 18.0938H10.478V19.05H11.428V18.0938Z" fill="white"/>
<path d="M10.478 19.05H8.57178V20H10.478V19.05Z" fill="white"/>
<path d="M8.57183 13.3313H7.62183V19.05H8.57183V13.3313Z" fill="white"/>
<path d="M7.62178 12.3813H6.66553V13.3313H7.62178V12.3813Z" fill="white"/>
<path d="M6.66558 11.4312H5.71558V12.3812H6.66558V11.4312Z" fill="white"/>
<path d="M15.2406 0H4.76562V0.95H15.2406V0Z" fill="white"/>
<path d="M5.71563 10.475H4.76562V11.4313H5.71563V10.475Z" fill="white"/>
<path d="M4.76558 9.52499H3.80933V10.475H4.76558V9.52499Z" fill="white"/>
<path d="M4.76563 0.949997H2.85938V1.90625H4.76563V0.949997Z" fill="white"/>
<path d="M3.80937 8.56876H2.85938V9.52501H3.80937V8.56876Z" fill="white"/>
<path d="M2.85942 7.61874H1.90942V8.56874H2.85942V7.61874Z" fill="white"/>
<path d="M2.85942 1.90625H1.90942V2.85625H2.85942V1.90625Z" fill="white"/>
<path d="M1.90938 2.85625H0.953125V7.61875H1.90938V2.85625Z" fill="white"/>
</g>
<defs>
<clipPath id="clip0_128_2260">
<rect width="20" height="20" fill="white"/>
</clipPath>
</defs>
</svg>
