<svg width="268" height="265" viewBox="0 0 268 265" fill="none" xmlns="http://www.w3.org/2000/svg">
<g opacity="0.3">
<rect x="0.5" y="0.5" width="267" height="264" stroke="#505050"/>
<line x1="29.5" y1="2.18557e-08" x2="29.5" y2="265" stroke="#505050"/>
<line x1="70.5" y1="2.18557e-08" x2="70.5" y2="265" stroke="#505050"/>
<line x1="111.5" y1="2.18557e-08" x2="111.5" y2="265" stroke="#505050"/>
<line x1="152.5" y1="2.18557e-08" x2="152.5" y2="265" stroke="#505050"/>
<line x1="193.5" y1="2.18557e-08" x2="193.5" y2="265" stroke="#505050"/>
<line x1="234.5" y1="2.18557e-08" x2="234.5" y2="265" stroke="#505050"/>
<line x1="268" y1="30.5" x2="-4.37114e-08" y2="30.5" stroke="#505050"/>
<line x1="268" y1="71.5" x2="-4.37114e-08" y2="71.5" stroke="#505050"/>
<line x1="268" y1="112.5" x2="-4.37114e-08" y2="112.5" stroke="#505050"/>
<line x1="268" y1="153.5" x2="-4.37114e-08" y2="153.5" stroke="#505050"/>
<line x1="268" y1="194.5" x2="-4.37114e-08" y2="194.5" stroke="#505050"/>
<line x1="268" y1="235.5" x2="-4.37114e-08" y2="235.5" stroke="#505050"/>
</g>
</svg>
